<svg width="296" height="200" viewBox="0 0 296 200" fill="none" xmlns="http://www.w3.org/2000/svg">
<mask id="mask0_244_5201" style="mask-type:luminance" maskUnits="userSpaceOnUse" x="0" y="0" width="296" height="200">
<path d="M295.281 0H1.11461e-05V199.317H295.281V0Z" fill="white"/>
</mask>
<g mask="url(#mask0_244_5201)">
<path d="M262.659 66.2327C262.755 66.3035 262.85 66.3723 262.945 66.4432C263.188 66.6204 263.182 66.8789 262.942 67.054C262.832 67.1332 262.647 67.179 262.496 67.179C262.321 67.179 262.161 67.129 262.035 67.0519C261.93 66.9852 261.829 66.9226 261.724 66.858C261.601 66.7767 261.546 66.66 261.537 66.5474C261.528 66.4265 261.614 66.314 261.734 66.2285C261.967 66.0555 262.429 66.0617 262.659 66.2327ZM220.702 47.3278C220.699 47.0443 221.132 46.7816 221.56 46.8754C221.677 46.9046 221.8 46.9276 221.914 46.9672C222.006 46.9984 222.08 47.0506 222.135 47.1089C222.172 47.1298 222.206 47.1548 222.237 47.1819C222.35 47.2736 222.35 47.3799 222.237 47.4716C222.203 47.4987 222.172 47.5217 222.135 47.5425C222.08 47.5988 222.003 47.6488 221.911 47.6863C221.806 47.7259 221.677 47.7468 221.563 47.7739C221.142 47.8698 220.705 47.6113 220.702 47.3278ZM244.657 11.2191C245.149 11.2191 245.152 11.7361 244.66 11.7361C244.167 11.7361 244.164 11.2191 244.657 11.2191ZM253.586 18.7673C254.096 18.7673 254.099 19.3051 253.586 19.3051C253.075 19.3051 253.072 18.7673 253.586 18.7673ZM253.946 23.3992C253.856 23.3554 253.786 23.3158 253.715 23.2616C253.61 23.1782 253.546 23.0969 253.524 22.9864C253.503 22.8822 253.527 22.7759 253.607 22.6821C253.733 22.532 253.97 22.4507 254.219 22.4403C254.505 22.4319 254.773 22.5695 254.878 22.7404C254.933 22.8342 254.958 22.9468 254.911 23.0448C254.874 23.1302 254.807 23.199 254.724 23.2678C254.656 23.3199 254.585 23.3575 254.496 23.3992C254.355 23.47 254.087 23.4679 253.946 23.3992ZM264.742 17.2435C265.338 17.2455 265.446 17.7375 265.022 17.9501L264.948 17.9835C264.846 18.0377 264.64 18.0356 264.536 17.9835C264.511 17.971 264.49 17.9605 264.465 17.948C264.047 17.7396 264.145 17.2414 264.742 17.2435ZM178.24 13.3516C178.098 13.4266 177.954 13.4245 177.812 13.3495C177.754 13.3161 177.698 13.2849 177.658 13.2411C177.612 13.189 177.603 13.1265 177.591 13.0681C177.563 12.9576 177.585 12.8534 177.711 12.77C177.791 12.7158 177.911 12.6824 178.028 12.6824C178.151 12.6804 178.264 12.7158 178.354 12.7742C178.474 12.8492 178.495 12.9618 178.467 13.0681C178.452 13.1265 178.44 13.1869 178.397 13.2411C178.36 13.2911 178.301 13.3203 178.24 13.3516ZM285.787 42.1206C285.005 42.1206 285.002 41.3013 285.781 41.3013C286.562 41.3013 286.568 42.1206 285.787 42.1206ZM290.247 53.8525C290.976 53.8525 290.979 54.6196 290.25 54.6196C289.521 54.6196 289.515 53.8525 290.247 53.8525ZM286.107 57.7548C285.165 57.7548 285.162 56.7667 286.1 56.7667C287.042 56.7667 287.045 57.7548 286.107 57.7548ZM286.912 7.48772C286.765 7.50648 286.722 7.50648 286.574 7.48772C286.359 7.46271 286.134 7.31262 286.097 7.16879C286.088 7.13335 286.079 7.1 286.07 7.06456C286.039 6.98535 286.039 6.90405 286.067 6.82275C286.1 6.74145 286.162 6.66849 286.251 6.60804C286.377 6.52466 286.562 6.47254 286.737 6.47046C286.928 6.47046 287.097 6.52674 287.235 6.61221C287.423 6.72894 287.454 6.90196 287.414 7.06039C287.405 7.09583 287.395 7.13126 287.386 7.16462C287.349 7.31054 287.128 7.46062 286.912 7.48772ZM291.179 23.3324C291.225 23.2928 291.271 23.2512 291.317 23.2115C291.434 23.1115 291.659 23.0719 291.837 23.0656C292.04 23.0594 292.228 23.1261 292.372 23.2178C292.504 23.2991 292.587 23.4471 292.587 23.568C292.587 23.6847 292.507 23.8557 292.366 23.9307C292.304 23.962 292.243 23.9933 292.188 24.0245C292.12 24.06 292.046 24.1037 291.978 24.1308C291.806 24.1975 291.628 24.2038 291.437 24.1767C291.213 24.1475 290.994 24.0016 290.951 23.8494C290.911 23.7181 290.917 23.5951 291.019 23.4742C291.056 23.4304 291.129 23.3783 291.179 23.3324ZM282.468 54.1818C282.468 54.1714 282.468 54.1631 282.468 54.1526C282.459 54.0171 282.542 53.8858 282.659 53.7816C282.779 53.6774 282.938 53.6002 283.129 53.5648C283.44 53.5064 283.769 53.5794 284 53.7253C284.141 53.8129 284.218 53.9442 284.24 54.0693C284.261 54.1214 284.261 54.1714 284.243 54.2235C284.243 54.2798 284.221 54.3298 284.181 54.3778C284.107 54.4987 283.981 54.6154 283.806 54.6759C283.735 54.6967 283.664 54.7155 283.594 54.7363C283.517 54.7426 283.443 54.7488 283.366 54.7572C283.354 54.7551 283.338 54.7551 283.326 54.7551C283.086 54.7488 282.886 54.6905 282.711 54.5821C282.554 54.4841 282.477 54.3236 282.468 54.1818ZM226.755 54.6175C226.857 54.6321 226.958 54.6404 227.06 54.6509C227.198 54.6717 227.321 54.7134 227.423 54.7759C227.533 54.826 227.622 54.8927 227.687 54.976C227.767 55.0803 227.813 55.1949 227.822 55.3117C227.825 55.4055 227.798 55.493 227.736 55.5743C227.712 55.6348 227.666 55.6869 227.601 55.7327C227.527 55.8099 227.432 55.8682 227.309 55.912C227.229 55.9349 227.149 55.9558 227.069 55.9787C226.967 55.9891 226.863 55.9996 226.761 56.0142C226.386 56.0663 226.008 56.0142 225.731 55.8224C225.54 55.6931 225.423 55.5014 225.423 55.32C225.42 55.122 225.546 54.9448 225.74 54.8009C225.998 54.6133 226.401 54.5675 226.755 54.6175ZM259.328 46.7462C258.784 46.7462 258.781 46.1771 259.322 46.1771C259.863 46.1771 259.867 46.7462 259.328 46.7462ZM261.349 49.3227C261.481 49.3915 261.583 49.4832 261.614 49.5979C261.62 49.6312 261.626 49.6667 261.632 49.6979C261.626 49.7417 261.62 49.7813 261.607 49.823C261.564 49.9814 261.331 50.1315 261.1 50.167C260.922 50.1941 260.722 50.1878 260.562 50.119C260.405 50.0502 260.282 49.9523 260.23 49.8251C260.18 49.7063 260.208 49.5666 260.303 49.4603C260.516 49.2081 261.014 49.1476 261.349 49.3227ZM266.633 43.7028C266.369 43.684 266.194 43.5985 266.024 43.4651C265.784 43.2754 265.812 42.9773 266.151 42.8481C266.464 42.7251 266.91 42.8397 266.999 43.0878C267.055 43.2525 267.095 43.4193 266.956 43.5735C266.892 43.6465 266.763 43.709 266.633 43.7028ZM255.6 53.7065C256.203 53.7065 256.652 54.0359 256.68 54.4341C256.695 54.6175 256.551 54.8301 256.363 54.9573C256.169 55.0844 255.88 55.1657 255.61 55.1657C255.007 55.1657 254.555 54.8385 254.527 54.4403C254.515 54.2569 254.656 54.0442 254.85 53.9171C255.041 53.7878 255.33 53.7065 255.6 53.7065ZM252.934 49.7042C252.801 49.6021 252.715 49.4874 252.691 49.3519C252.663 49.2122 252.703 49.083 252.795 48.96C252.841 48.8996 252.912 48.8474 252.989 48.8037C253.112 48.6703 253.324 48.5827 253.583 48.5744C253.761 48.5681 253.967 48.6327 254.087 48.7182C254.133 48.7474 254.167 48.7807 254.198 48.8183C254.262 48.8599 254.327 48.9058 254.376 48.9621C254.49 49.0851 254.53 49.2873 254.468 49.4249C254.404 49.5604 254.299 49.6729 254.133 49.7584C253.97 49.8397 253.789 49.8793 253.592 49.8856C253.37 49.8939 253.084 49.8126 252.934 49.7042ZM273.985 39.913C274.535 39.9109 274.926 40.3404 274.631 40.6676C274.609 40.6926 274.581 40.7197 274.56 40.7468C274.295 41.0387 273.68 41.0366 273.416 40.7448C273.394 40.7177 273.366 40.6906 273.345 40.6635C273.05 40.3404 273.44 39.913 273.985 39.913ZM280.333 19.772C280.198 19.7053 280.13 19.6699 280.044 19.574C280.026 19.5552 280.01 19.5365 279.995 19.5177C279.693 19.1696 280.093 18.7172 280.678 18.7152C281.274 18.7131 281.677 19.1696 281.37 19.5198C281.354 19.5386 281.336 19.5573 281.321 19.5761C281.234 19.6741 281.167 19.7074 281.031 19.7741C280.85 19.8596 280.515 19.8575 280.333 19.772ZM259.405 0.829645C259.384 0.796292 259.365 0.760854 259.344 0.727501C259.328 0.679557 259.316 0.633696 259.301 0.583667C259.254 0.418987 259.298 0.256392 259.482 0.135487C259.605 0.054189 259.787 0.0020752 259.959 0.0020752C260.143 0.0020752 260.313 0.054189 260.448 0.139656C260.626 0.252222 260.666 0.425241 260.623 0.581583C260.608 0.627443 260.596 0.677472 260.58 0.725417C260.552 0.82756 260.414 0.944295 260.279 0.99224C260.18 1.02559 260.076 1.04644 259.965 1.04852C259.824 1.05478 259.682 1.011 259.574 0.954718C259.504 0.92345 259.445 0.883843 259.405 0.829645ZM262.515 6.35789C261.571 6.35789 261.564 5.36564 262.509 5.36564C263.453 5.36564 263.459 6.35789 262.515 6.35789ZM254.545 10.2227C253.644 10.2227 253.641 9.27836 254.539 9.27836C255.437 9.27836 255.444 10.2227 254.545 10.2227ZM253.909 6.0056C252.814 6.0056 252.811 4.85701 253.899 4.85701C254.991 4.85701 254.998 6.0056 253.909 6.0056ZM204.486 43.3171C205.129 43.3171 205.132 43.9925 204.492 43.9925C203.849 43.9925 203.846 43.3171 204.486 43.3171ZM199.066 44.7742C199.159 44.7784 199.266 44.7742 199.355 44.7909C199.451 44.8097 199.54 44.8784 199.54 44.9493C199.543 45.0223 199.454 45.089 199.355 45.1077C199.269 45.1244 199.162 45.1223 199.069 45.1244C198.928 45.1328 198.817 45.041 198.811 44.9514C198.805 44.8618 198.934 44.768 199.066 44.7742ZM202.893 39.4169C203.563 39.4169 203.563 40.1173 202.899 40.1173C202.228 40.1173 202.225 39.4169 202.893 39.4169ZM196.197 24.9647C196.836 24.9647 196.836 25.6317 196.203 25.6317C195.566 25.6317 195.563 24.9647 196.197 24.9647ZM195.062 17.5937C195.009 17.6583 194.917 17.7062 194.828 17.7437C194.696 17.7959 194.514 17.7938 194.385 17.7417C194.293 17.7041 194.206 17.6562 194.151 17.5937C194.13 17.5666 194.111 17.5353 194.093 17.5061C194 17.3769 193.985 17.2372 194.096 17.108C194.197 16.985 194.394 16.9078 194.603 16.9078C194.816 16.9058 195.015 16.985 195.12 17.11C195.231 17.2414 195.209 17.379 195.12 17.5103C195.098 17.5374 195.083 17.5666 195.062 17.5937ZM215.008 18.4546C215.7 18.4546 215.707 19.1842 215.012 19.1842C214.319 19.1842 214.313 18.4546 215.008 18.4546ZM220.751 21.2938C220.154 21.2938 220.148 20.6663 220.745 20.6663C221.345 20.6663 221.345 21.2938 220.751 21.2938ZM215.651 24.8667C214.827 24.8667 214.824 24.0037 215.645 24.0037C216.469 24.0037 216.469 24.8667 215.651 24.8667ZM214.052 29.1525C214.526 29.1525 214.529 29.6528 214.055 29.6528C213.578 29.6528 213.578 29.1525 214.052 29.1525ZM221.708 35.1123C221.114 35.1123 221.114 34.4911 221.701 34.4911C222.292 34.4911 222.298 35.1123 221.708 35.1123ZM220.425 27.5704C221.04 27.5704 221.04 28.2103 220.431 28.2103C219.822 28.2103 219.819 27.5704 220.425 27.5704ZM216.602 32.1084C217.205 32.1084 217.211 32.7421 216.608 32.7421C216.002 32.7421 215.999 32.1084 216.602 32.1084ZM215.642 36.9029C216.577 36.9029 216.58 37.8827 215.651 37.8827C214.719 37.8827 214.713 36.9029 215.642 36.9029ZM227.447 31.0516C226.77 31.0516 226.767 30.3428 227.441 30.3428C228.118 30.3428 228.118 31.0516 227.447 31.0516ZM267.353 85.7983C267.716 85.8108 268.042 86.0068 268.03 86.2653C268.024 86.3862 268.048 86.5363 267.987 86.653C267.935 86.7489 267.87 86.8239 267.747 86.8865C267.636 86.9448 267.492 86.9886 267.344 86.9823C267.23 86.9803 267.122 86.9594 267.021 86.924C266.858 86.8677 266.769 86.7593 266.707 86.6488C266.649 86.5342 266.67 86.382 266.667 86.259C266.658 86.0172 266.993 85.7879 267.353 85.7983ZM285.045 65.8032C285.341 65.8116 285.605 65.9679 285.596 66.1785C285.59 66.3265 285.608 66.4911 285.482 66.6204C285.27 66.8434 284.821 66.8476 284.606 66.6225C284.476 66.4891 284.495 66.3244 284.489 66.1743C284.479 65.9783 284.756 65.7907 285.045 65.8032ZM252.386 77.1808C252.448 77.1391 252.512 77.1057 252.583 77.0786C252.583 77.0786 252.586 77.0765 252.589 77.0765H252.586C252.589 77.0765 252.592 77.0744 252.592 77.0744C252.595 77.0724 252.595 77.0724 252.598 77.0703C252.712 77.0244 252.832 76.9973 252.961 76.9952C253.167 76.9765 253.389 76.9952 253.567 77.0703C253.709 77.1307 253.856 77.2141 253.933 77.3163C253.939 77.3246 253.946 77.3329 253.949 77.3413C253.967 77.36 253.986 77.3767 254.004 77.3934C254.112 77.4934 254.136 77.6852 254.081 77.7999C254.038 77.8999 253.955 78.0021 253.835 78.0729C253.789 78.1084 253.739 78.1376 253.681 78.1626C253.586 78.223 253.469 78.2647 253.337 78.2835C253.087 78.321 252.835 78.3043 252.611 78.2189C252.608 78.2168 252.604 78.2168 252.601 78.2147C252.534 78.1813 252.469 78.1459 252.398 78.1126C252.3 78.05 252.229 77.975 252.192 77.8916C252.146 77.8395 252.128 77.7832 252.128 77.7248C252.1 77.6394 252.106 77.556 252.143 77.4726C252.202 77.3538 252.257 77.2704 252.386 77.1808ZM144.79 6.28493C144.679 6.32871 144.559 6.35164 144.433 6.34956C144.166 6.34956 143.972 6.25158 143.824 6.10983C143.664 5.96183 143.683 5.76796 143.67 5.59286C143.652 5.31978 144.039 5.06338 144.439 5.07589C144.636 5.08214 144.839 5.12592 144.974 5.22598C145.113 5.32604 145.214 5.45945 145.202 5.59911C145.193 5.77213 145.208 5.96183 145.051 6.10775C144.987 6.18279 144.901 6.24324 144.79 6.28493ZM69.5701 17.0079C69.5517 17.0016 69.5302 16.9996 69.5086 16.9933C69.3856 16.9641 69.2902 16.9224 69.1887 16.8703C69.1426 16.8453 69.0965 16.8245 69.0534 16.7994C68.9704 16.7536 68.8965 16.7015 68.8166 16.6514C68.5305 16.468 68.5182 16.1115 68.8104 15.9281C69.1026 15.7447 69.5917 15.7113 69.8808 15.9218C69.9546 15.974 70.0315 16.024 70.0992 16.0803C70.1638 16.1345 70.2253 16.1908 70.2868 16.247C70.3514 16.3012 70.3883 16.3721 70.416 16.4388C70.5636 16.7703 70.0561 17.108 69.5701 17.0079ZM12.4425 18.3608C13.4236 18.3608 13.4175 19.3947 12.4332 19.3947C11.4551 19.3947 11.4582 18.3608 12.4425 18.3608ZM15.303 3.15601C14.4018 3.15601 14.4048 2.20337 15.3122 2.20337C16.2134 2.20337 16.2104 3.15601 15.303 3.15601ZM26.782 13.0868C26.4806 13.0764 26.2007 12.9117 26.213 12.697C26.2192 12.597 26.2222 12.4969 26.2284 12.3969C26.2376 12.2009 26.4806 12.0112 26.7882 12.0216C27.1019 12.0321 27.3326 12.1884 27.3419 12.401C27.348 12.5011 27.3542 12.6011 27.3572 12.6991C27.3695 12.9034 27.0835 13.0952 26.782 13.0868ZM34.0503 13.7602C34.2502 13.6351 34.5147 13.6226 34.7331 13.7143C34.7946 13.7101 34.8592 13.7039 34.9207 13.6976C35.1545 13.6914 35.4221 13.7748 35.5851 13.8831C35.7604 13.9999 35.8681 14.1792 35.8681 14.3459C35.865 14.5023 35.7635 14.6878 35.5943 14.7962C35.4098 14.9108 35.1668 14.9963 34.9115 14.988C34.6685 14.9796 34.4163 14.9254 34.2471 14.8024C34.0995 14.694 34.0072 14.5711 33.9795 14.421C33.958 14.3522 33.958 14.2813 33.9857 14.2125C33.8657 14.0687 33.8596 13.8811 34.0503 13.7602ZM31.7588 9.0699C31.7495 9.03863 31.7434 9.00737 31.7342 8.97401C31.6819 8.78849 31.7249 8.5842 31.9433 8.44662C32.1033 8.34656 32.3032 8.27986 32.5277 8.28194C32.7338 8.28194 32.9522 8.34239 33.0998 8.44245C33.3182 8.58837 33.3674 8.78015 33.3151 8.97818C33.3059 9.00945 33.2967 9.04072 33.2905 9.07407C33.2567 9.18455 33.1829 9.26794 33.0783 9.35549C32.943 9.46805 32.74 9.54101 32.5216 9.54101C32.3093 9.53893 32.1094 9.47014 31.9802 9.35966C31.8695 9.26794 31.7926 9.18664 31.7588 9.0699ZM51.9117 178.165C52.0563 178.063 52.3639 178.021 52.5546 178.08C52.696 178.121 52.7883 178.155 52.8929 178.236C52.9483 178.28 53.0067 178.33 53.0405 178.38C53.099 178.461 53.1267 178.563 53.1636 178.649C53.2159 178.765 53.1482 178.932 53.0528 179.03C52.9483 179.136 52.7514 179.234 52.5607 179.253C52.3669 179.272 52.1578 179.255 51.9948 179.176C51.8379 179.099 51.6872 178.98 51.6656 178.843C51.6533 178.755 51.6257 178.653 51.6318 178.565C51.638 178.509 51.6626 178.453 51.6902 178.399C51.7395 178.299 51.8071 178.242 51.9117 178.165ZM44.2498 187.031C44.339 186.977 44.4466 186.943 44.5635 186.926C44.6773 186.914 44.7911 186.918 44.9019 186.943C45.1264 186.995 45.3017 187.129 45.3448 187.285C45.3878 187.441 45.3048 187.606 45.1264 187.712C45.0372 187.764 44.9326 187.8 44.8127 187.815C44.6989 187.831 44.5881 187.825 44.4743 187.8C44.3882 187.787 44.2959 187.781 44.2129 187.754C44.0437 187.7 43.853 187.627 43.8253 187.485C43.7946 187.348 43.8899 187.248 44.0191 187.15C44.0868 187.1 44.1698 187.068 44.2498 187.031ZM72.1016 190.447C72.2154 190.368 72.3722 190.312 72.5814 190.295C72.6029 190.293 72.6275 190.289 72.6552 190.289C73.2612 190.237 73.5903 190.487 73.6549 190.77C73.7564 191.048 73.5903 191.362 72.9905 191.475C72.9628 191.479 72.9413 191.483 72.9167 191.488C72.7137 191.525 72.5383 191.513 72.3876 191.465C71.6802 191.406 71.4802 190.685 72.1016 190.447ZM77.4566 195.423C77.4289 195.279 77.4781 195.14 77.6227 195.01C77.8349 194.825 78.204 194.775 78.4716 194.935C78.73 195.088 78.7146 195.359 78.5762 195.55C78.5578 195.586 78.5301 195.617 78.4901 195.64C78.4839 195.644 78.4809 195.646 78.4778 195.65C78.4747 195.655 78.4716 195.657 78.4716 195.661C78.4624 195.68 78.4532 195.694 78.444 195.713C78.4101 195.786 78.3732 195.859 78.3394 195.932C78.2502 196.107 77.9518 196.209 77.6935 196.149C77.4105 196.084 77.3151 195.894 77.3736 195.713C77.4043 195.617 77.4474 195.521 77.4566 195.423ZM40.3681 198.331C40.528 198.275 40.7771 198.262 40.9463 198.308C40.9925 198.319 41.0324 198.333 41.0724 198.35C41.3739 198.327 41.6968 198.446 41.743 198.663C41.7891 198.884 41.5984 199.063 41.2908 199.121C41.1616 199.232 40.974 199.305 40.7464 199.313C40.5772 199.321 40.4234 199.294 40.2758 199.234C40.1189 199.169 39.9744 199.021 39.9467 198.898C39.8944 198.658 40.0543 198.446 40.3681 198.331ZM-0.43919 181.496C-0.00857044 181.338 0.532778 181.444 0.769618 181.736C1.00338 182.03 0.846514 182.397 0.41282 182.555C-0.0177988 182.716 -0.559148 182.607 -0.795988 182.315C-1.02975 182.022 -0.872884 181.655 -0.43919 181.496ZM63.7876 184.715C64.2735 184.765 64.6057 185.073 64.5319 185.403C64.4581 185.732 64.0029 185.959 63.5169 185.909C63.0309 185.859 62.6956 185.551 62.7694 185.219C62.8433 184.892 63.2985 184.665 63.7876 184.715ZM14.6448 181.849C15.0785 181.688 15.6167 181.796 15.8536 182.088C16.0904 182.382 15.9335 182.749 15.4968 182.907C15.0692 183.068 14.5279 182.96 14.288 182.666C14.0542 182.374 14.2141 182.007 14.6448 181.849ZM74.8391 174.471C75.2297 174.511 75.4973 174.759 75.4389 175.024C75.3773 175.288 75.0144 175.472 74.6238 175.43C74.2331 175.391 73.9655 175.142 74.024 174.878C74.0855 174.611 74.4484 174.432 74.8391 174.471ZM21.9099 183.862C22.1529 183.831 22.3867 183.937 22.4359 184.1C22.482 184.265 22.3251 184.423 22.0852 184.454C21.8422 184.488 21.6085 184.381 21.5623 184.219C21.5131 184.054 21.67 183.896 21.9099 183.862ZM7.96402 105.933C8.03784 105.904 8.12397 105.875 8.20394 105.86C8.33005 105.839 8.48384 105.839 8.6161 105.831C8.79758 105.82 9.02211 105.898 9.14822 105.979C9.28048 106.071 9.38506 106.221 9.37583 106.35C9.36661 106.481 9.29894 106.619 9.15437 106.711C9.01289 106.8 8.80988 106.875 8.60687 106.863C8.47769 106.857 8.3239 106.857 8.20086 106.832C8.12089 106.819 8.04092 106.792 7.9671 106.763C7.83176 106.711 7.76409 106.656 7.67489 106.571C7.55493 106.454 7.55186 106.242 7.67182 106.127C7.76102 106.041 7.82868 105.987 7.96402 105.933ZM19.6153 112.697C19.8522 112.7 20.0736 112.787 20.1905 112.925C20.252 112.996 20.2797 113.071 20.2797 113.154C20.2797 113.231 20.249 113.306 20.1905 113.375C20.1567 113.431 20.129 113.492 20.0736 113.542C19.9629 113.642 19.8183 113.756 19.6092 113.748C19.4031 113.742 19.2801 113.656 19.1632 113.55C19.1017 113.498 19.0709 113.437 19.034 113.377C18.9725 113.306 18.9448 113.229 18.9448 113.148C18.9448 113.071 18.9755 112.996 19.0309 112.927C19.1478 112.787 19.3754 112.697 19.6153 112.697ZM30.1347 94.5555C30.5561 94.543 30.9806 94.714 31.0267 95.1371C31.0267 95.1517 31.0298 95.1684 31.0329 95.1872C31.0452 95.3268 30.9929 95.4436 30.8975 95.5332C30.673 95.9918 29.5903 95.9856 29.3688 95.527C29.2735 95.4373 29.2212 95.3206 29.2366 95.1788C29.2396 95.1622 29.2396 95.1455 29.2427 95.1288C29.2858 94.7161 29.7133 94.5451 30.1347 94.5555ZM37.0984 92.1604C37.3691 92.0186 37.7597 92.0791 38.0089 92.2083C38.055 92.2271 38.095 92.2521 38.1227 92.2855C38.1288 92.2896 38.1288 92.2917 38.135 92.2959C38.1381 92.2959 38.1442 92.3001 38.1504 92.3021C38.1719 92.3105 38.1934 92.3188 38.215 92.3292C38.3165 92.3668 38.418 92.4043 38.5164 92.4418C38.7532 92.5335 38.8424 92.7503 38.7071 92.9129C38.5564 93.088 38.2642 93.1151 38.012 93.0401C37.8797 93.0005 37.7474 92.9546 37.609 92.9296C37.3937 92.9192 37.203 92.8629 37.0431 92.7378C36.8155 92.5627 36.8155 92.3084 37.0984 92.1604ZM42.5058 96.9153C42.7365 96.7756 43.044 96.7256 43.3332 96.8069C43.6008 96.8819 43.8192 97.0737 43.8038 97.2801C43.7915 97.4573 43.6592 97.6303 43.4255 97.7199C43.1271 97.8366 42.7611 97.795 42.515 97.6428C42.3489 97.5406 42.149 97.4427 42.149 97.2738C42.152 97.1112 42.3458 97.0153 42.5058 96.9153ZM51.7395 99.1666C51.8102 99.0728 51.9455 99.0061 52.084 98.9665C52.0963 98.9644 52.1116 98.9623 52.1209 98.9581C52.1393 98.9477 52.1547 98.9373 52.1701 98.9269C52.4038 98.7747 52.816 98.7538 53.0436 98.9227C53.2743 99.0895 53.2928 99.3459 53.0498 99.5147C53.0344 99.5251 53.0159 99.5376 53.0006 99.5501C52.9944 99.5606 52.9913 99.5689 52.9852 99.5793C52.9298 99.6711 52.8283 99.7628 52.6961 99.8086C52.6622 99.8191 52.6315 99.8316 52.5976 99.8441C52.4746 99.8816 52.3731 99.8983 52.2347 99.9045C51.9056 99.9191 51.5795 99.6919 51.601 99.4709C51.6103 99.3813 51.6318 99.3125 51.6902 99.2312C51.7056 99.2083 51.721 99.1874 51.7395 99.1666ZM66.4082 137.031C66.4758 136.864 66.6911 136.734 66.9618 136.737C67.2325 136.737 67.4386 136.862 67.5062 137.028C67.5678 137.066 67.6201 137.11 67.6539 137.151C67.7585 137.289 67.7615 137.412 67.7308 137.562C67.697 137.741 67.6078 137.854 67.4417 137.994C67.2294 138.171 66.6973 138.177 66.4851 137.998C66.3159 137.854 66.2205 137.741 66.1836 137.56C66.156 137.42 66.1467 137.281 66.2636 137.153C66.3036 137.112 66.3528 137.07 66.4082 137.031ZM84.9771 187.658C84.9894 187.548 85.0416 187.441 85.1616 187.36C85.2723 187.285 85.4538 187.229 85.6168 187.233C85.9767 187.245 86.2197 187.423 86.2443 187.662V187.664C86.3427 187.756 86.4104 187.879 86.4042 187.99C86.3858 188.259 86.112 188.479 85.7091 188.513C85.5338 188.53 85.3738 188.504 85.22 188.452C85.0478 188.392 84.8848 188.246 84.8448 188.121C84.7956 187.963 84.8448 187.794 84.9771 187.669C84.9771 187.664 84.9771 187.662 84.9771 187.658ZM43.9084 131.959V131.938C43.9237 131.736 44.1667 131.542 44.4835 131.552C44.8096 131.563 45.0372 131.725 45.0526 131.942C45.0526 131.944 45.0526 131.946 45.0526 131.948C45.1572 132.036 45.2187 132.161 45.2187 132.267C45.2187 132.528 44.8742 132.778 44.4774 132.763C44.0929 132.751 43.7238 132.54 43.7423 132.263C43.7515 132.151 43.7976 132.055 43.8991 131.965C43.8991 131.963 43.9022 131.961 43.9084 131.959ZM35.3883 118.53C35.0345 118.518 34.7577 118.37 34.6531 118.14C34.5978 118.024 34.6316 117.855 34.73 117.753C34.7546 117.725 34.7823 117.7 34.8131 117.677C34.8408 117.473 35.0745 117.281 35.3975 117.292C35.7266 117.302 35.9481 117.465 35.9758 117.68C36.1111 117.788 36.1788 117.926 36.148 118.08C36.1265 118.192 36.0557 118.288 35.9419 118.376C35.8158 118.47 35.5759 118.536 35.3883 118.53ZM212.062 81.9356C212.163 81.7835 212.486 81.7439 212.686 81.821C212.895 81.9023 212.988 82.1003 212.858 82.2441C212.745 82.3671 212.646 82.5005 212.505 82.6069C212.446 82.6506 212.394 82.6986 212.339 82.7444C212.268 82.8007 212.173 82.8341 212.083 82.8737C211.923 82.9466 211.72 82.8487 211.72 82.7298C211.708 82.4463 211.896 82.192 212.062 81.9356ZM218.084 75.14C217.675 75.14 217.675 74.7085 218.09 74.7085C218.5 74.7085 218.496 75.14 218.084 75.14ZM227.847 79.4592L227.829 79.6593C227.822 79.7343 227.816 79.7844 227.739 79.8407C227.693 79.8698 227.613 79.8719 227.57 79.8407C227.487 79.7844 227.484 79.7323 227.478 79.6572C227.469 79.5905 227.463 79.5238 227.459 79.4592C227.441 79.2882 227.862 79.2882 227.847 79.4592ZM220.96 84.3683C221.477 84.3683 221.477 84.9145 220.954 84.9145C220.434 84.9145 220.437 84.3683 220.96 84.3683ZM211.394 91.7873C211.979 91.7873 211.976 92.4001 211.388 92.4001C210.807 92.4001 210.81 91.7873 211.394 91.7873ZM206.538 111.809C206.658 111.797 206.796 111.809 206.904 111.853C207.03 111.907 207.165 111.997 207.183 112.103C207.193 112.145 207.199 112.187 207.208 112.231C207.202 112.274 207.193 112.316 207.18 112.358C207.177 112.381 207.168 112.406 207.162 112.429C207.15 112.485 207.134 112.539 207.119 112.595C207.082 112.745 206.824 112.868 206.605 112.86C206.387 112.852 206.138 112.752 206.101 112.593C206.085 112.541 206.073 112.489 206.058 112.437C206.039 112.362 206.002 112.276 206.015 112.201C206.033 112.097 206.067 111.997 206.187 111.922C206.285 111.859 206.399 111.82 206.538 111.809ZM215.307 108.537C215.362 108.422 215.51 108.328 215.697 108.334C215.888 108.341 216.033 108.42 216.088 108.533C216.18 108.572 216.266 108.622 216.322 108.695C216.396 108.793 216.429 108.893 216.405 109.004C216.359 109.235 216.051 109.439 215.691 109.429C215.359 109.416 215.095 109.279 214.999 109.062C214.947 108.954 214.981 108.793 215.07 108.697C215.131 108.628 215.215 108.578 215.307 108.537ZM219.047 112.379C219.899 112.379 219.896 113.275 219.041 113.275C218.186 113.275 218.192 112.379 219.047 112.379ZM209.004 107.849C209.844 107.849 209.838 108.733 208.998 108.733C208.159 108.733 208.162 107.849 209.004 107.849ZM199.918 110.359C200.912 110.359 200.906 111.407 199.912 111.407C198.919 111.407 198.922 110.359 199.918 110.359ZM199.875 115.324C199.752 115.203 199.749 114.988 199.875 114.865C199.989 114.755 200.134 114.651 200.34 114.628C200.395 114.622 200.447 114.617 200.503 114.613C200.626 114.592 200.752 114.592 200.878 114.613C200.933 114.63 200.992 114.647 201.05 114.661C201.256 114.734 201.379 114.882 201.407 115.032C201.435 115.166 201.389 115.284 201.269 115.391C201.139 115.505 200.906 115.61 200.684 115.591C200.62 115.585 200.561 115.58 200.497 115.576C200.374 115.566 200.266 115.551 200.149 115.512C200.029 115.472 199.949 115.397 199.875 115.324ZM207.371 114.524C207.408 114.536 207.463 114.542 207.531 114.561C207.623 114.542 207.728 114.54 207.802 114.538C207.808 114.538 207.808 114.538 207.814 114.538C207.869 114.526 207.928 114.515 207.983 114.505C208.088 114.486 208.183 114.48 208.278 114.482C208.672 114.321 209.17 114.549 209.072 114.876C209.057 114.934 209.026 114.988 208.992 115.043C208.872 115.487 207.974 115.664 207.411 115.447C207.346 115.422 207.285 115.384 207.233 115.347C207.19 115.32 207.042 115.214 207.168 115.291C207.094 115.247 207.03 115.205 206.968 115.149C206.817 115.013 206.759 114.845 206.824 114.678C206.891 114.511 207.159 114.455 207.371 114.524ZM228.671 133.72C228.714 133.708 228.761 133.695 228.804 133.683C228.874 133.633 228.973 133.601 229.09 133.603C229.207 133.608 229.299 133.637 229.366 133.683C229.474 133.714 229.579 133.749 229.671 133.808C229.828 133.902 229.92 134.073 229.92 134.21C229.917 134.352 229.828 134.502 229.68 134.604C229.536 134.702 229.293 134.779 229.084 134.771C228.871 134.765 228.65 134.717 228.502 134.608C228.355 134.5 228.244 134.356 228.256 134.204C228.265 134.081 228.318 133.97 228.431 133.872C228.49 133.808 228.57 133.756 228.671 133.72ZM236.881 142.165C237.035 142.342 237.001 142.515 236.955 142.707C236.933 142.744 236.908 142.784 236.887 142.823C236.844 142.882 236.779 142.928 236.696 142.963C236.573 143.028 236.416 143.074 236.256 143.069C236.133 143.065 236.016 143.042 235.906 143.005C235.758 142.953 235.589 142.817 235.564 142.705C235.524 142.517 235.49 142.342 235.641 142.167C235.915 141.848 236.604 141.846 236.881 142.165ZM265.763 76.7055C265.772 76.6513 265.784 76.595 265.794 76.5408C265.812 76.4366 265.846 76.3365 265.966 76.2594C266.064 76.1968 266.181 76.1572 266.317 76.1447C266.443 76.1343 266.578 76.1447 266.686 76.1906C266.815 76.2448 266.95 76.3365 266.969 76.4407C266.987 76.5345 266.99 76.6388 267.03 76.7305C267.156 77.0077 266.8 77.2912 266.387 77.2912C265.972 77.2892 265.628 77.0036 265.754 76.7263C265.757 76.718 265.757 76.7117 265.763 76.7055ZM266.397 61.1672C266.793 61.1818 267.064 61.3798 267.089 61.6445C267.107 61.8447 267.083 62.0698 266.916 62.2407C266.864 62.3324 266.812 62.4137 266.707 62.4992C266.569 62.6159 266.221 62.6201 266.08 62.5034C265.972 62.4137 265.917 62.3304 265.861 62.2366C265.701 62.0635 265.674 61.8426 265.692 61.6383C265.72 61.3923 266.003 61.1547 266.397 61.1672ZM285.525 134.35C286.485 134.35 286.482 135.361 285.519 135.361C284.556 135.361 284.559 134.35 285.525 134.35ZM294.135 133.358C295.134 133.358 295.128 134.41 294.125 134.41C293.126 134.41 293.132 133.358 294.135 133.358ZM292.698 144.52C292.744 144.514 292.794 144.51 292.84 144.506C293.043 144.485 293.258 144.497 293.409 144.61C293.519 144.689 293.59 144.789 293.587 144.9C293.587 145.002 293.522 145.11 293.415 145.183C293.252 145.296 293.052 145.312 292.833 145.29C292.787 145.285 292.738 145.283 292.692 145.277C292.569 145.26 292.477 145.221 292.384 145.162C292.175 145.031 292.169 144.77 292.378 144.639C292.477 144.579 292.569 144.537 292.698 144.52ZM272.613 183.018C273.431 183.018 273.428 183.881 272.604 183.881C271.785 183.881 271.789 183.018 272.613 183.018ZM275.775 186.543C275.929 186.482 276.055 186.47 276.221 186.455C276.365 186.43 276.51 186.43 276.655 186.455C276.799 186.482 276.925 186.53 277.033 186.601C277.19 186.716 277.288 186.858 277.285 187.016C277.285 187.162 277.193 187.316 277.042 187.418C276.931 187.493 276.802 187.544 276.648 187.573C276.504 187.598 276.359 187.596 276.215 187.571C276.055 187.556 275.929 187.544 275.781 187.485C275.523 187.383 275.335 187.222 275.335 187.01C275.338 186.806 275.523 186.643 275.775 186.543ZM277.393 180.881C277.965 180.881 277.962 181.482 277.39 181.482C276.818 181.482 276.821 180.881 277.393 180.881ZM286.639 188.442C286.654 188.448 286.669 188.454 286.685 188.463C286.943 188.432 287.26 188.557 287.303 188.736C287.322 188.811 287.343 188.884 287.34 188.959C287.331 189.103 287.168 189.211 286.956 189.217C286.845 189.222 286.734 189.205 286.626 189.192C286.5 189.178 286.35 189.094 286.291 189.019C286.233 188.944 286.205 188.857 286.227 188.773C286.214 188.763 286.205 188.753 286.196 188.742C286.027 188.561 286.371 188.327 286.639 188.442ZM125.809 39.8067C126.28 39.7067 126.781 39.8838 126.929 40.2028C127.076 40.5196 126.815 40.8573 126.347 40.9574C125.877 41.0574 125.375 40.8823 125.228 40.5634C125.08 40.2466 125.341 39.9068 125.809 39.8067ZM200.976 62.3971C201.124 62.716 200.863 63.0537 200.395 63.1538C199.924 63.2538 199.423 63.0766 199.275 62.7598C199.128 62.4408 199.389 62.1031 199.857 62.0031C200.327 61.903 200.829 62.0802 200.976 62.3971ZM202.84 86.6217C203.074 86.5717 203.323 86.6592 203.397 86.8177C203.471 86.9782 203.342 87.147 203.108 87.1971C202.874 87.2471 202.625 87.1575 202.551 86.999C202.477 86.8406 202.607 86.6717 202.84 86.6217ZM256.578 103.494C256.431 103.175 256.692 102.835 257.163 102.735C257.63 102.635 258.132 102.812 258.279 103.131C258.427 103.448 258.166 103.788 257.695 103.888C257.227 103.988 256.726 103.811 256.578 103.494ZM256.046 107.467C256.514 107.365 257.015 107.542 257.163 107.861C257.311 108.178 257.049 108.518 256.578 108.618C256.111 108.716 255.61 108.541 255.462 108.222C255.314 107.905 255.576 107.567 256.046 107.467ZM282.126 167.646C282.597 167.546 283.095 167.724 283.243 168.04C283.391 168.357 283.129 168.697 282.662 168.797C282.191 168.897 281.69 168.72 281.545 168.401C281.394 168.084 281.656 167.746 282.126 167.646ZM123.751 62.6972C124.243 62.691 124.646 62.9557 124.655 63.2893C124.665 63.6228 124.274 63.898 123.782 63.9042C123.29 63.9105 122.884 63.6436 122.875 63.3122C122.865 62.9787 123.259 62.7035 123.751 62.6972ZM115.391 55.7432C115.637 55.739 115.84 55.8724 115.846 56.0392C115.849 56.2059 115.652 56.3435 115.409 56.3456C115.16 56.3498 114.957 56.2164 114.954 56.0496C114.951 55.8828 115.145 55.7452 115.391 55.7432ZM128.011 100.913C128.725 101.057 129.134 101.564 128.925 102.047C128.716 102.531 127.965 102.806 127.251 102.664C126.538 102.523 126.129 102.016 126.338 101.533C126.55 101.049 127.298 100.772 128.011 100.913ZM127.498 61.2797C127.027 61.1859 126.756 60.8524 126.895 60.5314C127.033 60.2104 127.531 60.029 128.002 60.1228C128.476 60.2166 128.743 60.5522 128.605 60.8712C128.466 61.1922 127.971 61.3756 127.498 61.2797ZM136.593 111.49C137.063 111.584 137.334 111.922 137.196 112.241C137.057 112.56 136.559 112.743 136.088 112.65C135.618 112.556 135.347 112.22 135.486 111.899C135.624 111.58 136.119 111.397 136.593 111.49ZM147.774 80.195C148.244 80.2888 148.515 80.6244 148.376 80.9455C148.238 81.2644 147.743 81.4478 147.269 81.352C146.798 81.2582 146.528 80.9225 146.666 80.6036C146.805 80.2826 147.303 80.1012 147.774 80.195ZM143.135 83.2385C143.372 83.2864 143.507 83.4532 143.437 83.6137C143.369 83.7742 143.12 83.8638 142.883 83.818C142.646 83.77 142.514 83.6033 142.581 83.4428C142.652 83.2843 142.898 83.1905 143.135 83.2385ZM124.034 88.3936C124.505 88.4874 124.775 88.823 124.637 89.142C124.496 89.463 124 89.6443 123.53 89.5505C123.059 89.4567 122.788 89.1211 122.927 88.8022C123.065 88.4832 123.56 88.2998 124.034 88.3936ZM176.33 181.033C176.8 180.931 177.299 181.108 177.446 181.427C177.594 181.744 177.335 182.082 176.865 182.182C176.397 182.282 175.896 182.107 175.745 181.788C175.598 181.471 175.859 181.134 176.33 181.033ZM144.27 197.841C144.673 197.754 145.101 197.906 145.227 198.177C145.353 198.448 145.128 198.738 144.728 198.823C144.329 198.909 143.901 198.758 143.775 198.485C143.649 198.214 143.87 197.925 144.27 197.841ZM168.551 188.807C168.788 188.757 169.037 188.844 169.111 189.005C169.184 189.163 169.055 189.332 168.818 189.382C168.585 189.432 168.332 189.345 168.262 189.184C168.188 189.026 168.317 188.857 168.551 188.807ZM102.054 181.93C102.525 181.83 103.026 182.007 103.171 182.324C103.318 182.641 103.057 182.98 102.589 183.08C102.119 183.183 101.62 183.005 101.473 182.686C101.325 182.368 101.587 182.03 102.054 181.93ZM26.6836 174.653C27.3911 174.5 28.1477 174.767 28.3723 175.249C28.5968 175.728 28.2 176.241 27.4926 176.393C26.782 176.545 26.0254 176.276 25.8009 175.797C25.5794 175.315 25.9731 174.805 26.6836 174.653ZM2.9627 141.25C3.43022 141.152 3.93159 141.327 4.07923 141.646C4.22687 141.963 3.96542 142.302 3.49482 142.402C3.02729 142.502 2.52593 142.325 2.37829 142.008C2.23064 141.689 2.49209 141.35 2.9627 141.25ZM107.126 32.9443C106.659 33.0444 106.157 32.8693 106.01 32.5504C105.862 32.2335 106.123 31.8937 106.594 31.7937C107.062 31.6936 107.563 31.8708 107.711 32.1877C107.858 32.5066 107.597 32.8443 107.126 32.9443ZM19.4554 99.9441C19.6215 99.6314 20.1321 99.4689 20.5965 99.5814C21.061 99.6961 21.2978 100.042 21.1317 100.355C20.9656 100.667 20.455 100.83 19.9906 100.718C19.5292 100.605 19.2893 100.259 19.4554 99.9441ZM37.4675 74.8294C36.9969 74.9294 36.4956 74.7522 36.351 74.4354C36.2034 74.1165 36.4617 73.7788 36.9323 73.6787C37.4029 73.5786 37.9012 73.7558 38.0489 74.0727C38.1965 74.3916 37.9351 74.7293 37.4675 74.8294ZM63.6737 41.2117C63.3139 41.2888 62.9294 41.1533 62.8156 40.9094C62.7049 40.6656 62.9048 40.405 63.2647 40.3279C63.6245 40.2528 64.009 40.3883 64.1228 40.6301C64.2366 40.8761 64.0336 41.1346 63.6737 41.2117ZM27.8524 22.0963C27.7786 21.9358 27.9109 21.7669 28.1416 21.7169C28.3784 21.6669 28.6276 21.7565 28.7014 21.915C28.7752 22.0734 28.646 22.2443 28.4122 22.2943C28.1785 22.3444 27.9293 22.2547 27.8524 22.0963ZM50.8321 84.8874C51.1551 84.8186 51.4995 84.9374 51.6041 85.1584C51.7026 85.3772 51.5272 85.6107 51.2012 85.6795C50.8782 85.7483 50.5337 85.6274 50.4322 85.4085C50.3276 85.1896 50.5091 84.9562 50.8321 84.8874ZM152.723 24.9938C153.19 24.8938 153.691 25.071 153.839 25.3878C153.987 25.7068 153.725 26.0445 153.255 26.1445C152.787 26.2446 152.286 26.0674 152.138 25.7505C151.99 25.4316 152.252 25.0939 152.723 24.9938ZM100.547 54.3069C100.778 54.2569 101.03 54.3465 101.104 54.5049C101.178 54.6634 101.048 54.8322 100.815 54.8822C100.578 54.9323 100.329 54.8447 100.255 54.6863C100.181 54.5258 100.31 54.3569 100.547 54.3069ZM91.5071 13.7768C91.3564 13.4579 91.6178 13.1181 92.0884 13.0181C92.5559 12.918 93.0573 13.0952 93.2049 13.4141C93.3526 13.7331 93.0911 14.0708 92.6205 14.1708C92.153 14.2709 91.6516 14.0937 91.5071 13.7768ZM119.746 18.0168C119.276 18.1169 118.774 17.9397 118.627 17.6228C118.479 17.3039 118.741 16.9662 119.211 16.8662C119.682 16.7661 120.18 16.9433 120.328 17.2601C120.475 17.5791 120.214 17.9189 119.746 18.0168ZM178.292 44.8347C178.418 45.1077 178.194 45.4017 177.788 45.4871C177.382 45.5747 176.951 45.4204 176.822 45.1474C176.693 44.8722 176.92 44.5783 177.326 44.4928C177.732 44.4073 178.163 44.5574 178.292 44.8347ZM176.388 29.6633C176.154 29.7112 175.902 29.6236 175.828 29.4631C175.754 29.3068 175.887 29.1359 176.117 29.0858C176.354 29.0358 176.603 29.1234 176.677 29.2839C176.751 29.4423 176.622 29.6132 176.388 29.6633ZM176.182 51.697C176.585 51.6116 177.019 51.7637 177.148 52.0389C177.274 52.3141 177.046 52.6059 176.643 52.6935C176.237 52.7789 175.804 52.6267 175.678 52.3516C175.551 52.0764 175.773 51.7846 176.182 51.697ZM155.995 19.2467C156.469 19.1467 156.967 19.3238 157.115 19.6428C157.262 19.9596 157.001 20.2973 156.534 20.3974C156.063 20.4975 155.562 20.3223 155.414 20.0034C155.269 19.6866 155.528 19.3468 155.995 19.2467ZM139.942 34.243C140.176 34.193 140.425 34.2826 140.499 34.4411C140.573 34.5995 140.444 34.7683 140.21 34.8184C139.976 34.8684 139.724 34.7808 139.65 34.6224C139.576 34.4619 139.706 34.2931 139.942 34.243ZM116.406 21.9921C116.64 21.942 116.889 22.0296 116.966 22.1901C117.04 22.3485 116.907 22.5195 116.674 22.5695C116.44 22.6195 116.191 22.5299 116.117 22.3715C116.043 22.211 116.172 22.0421 116.406 21.9921ZM154.337 55.5493C154.571 55.4972 154.823 55.5868 154.897 55.7452C154.971 55.9037 154.842 56.0746 154.605 56.1246C154.371 56.1747 154.119 56.085 154.045 55.9245C153.971 55.7682 154.104 55.5993 154.337 55.5493ZM142.335 53.5544C143.024 53.4064 143.753 53.6649 143.972 54.1297C144.184 54.5946 143.806 55.0886 143.12 55.2366C142.434 55.3825 141.702 55.124 141.486 54.6592C141.271 54.1964 141.653 53.7003 142.335 53.5544ZM75.0913 61.5883C74.6207 61.6883 74.1224 61.5132 73.9748 61.1964C73.824 60.8774 74.0855 60.5376 74.5561 60.4376C75.0236 60.3375 75.525 60.5147 75.6757 60.8337C75.8203 61.1505 75.5619 61.4903 75.0913 61.5883ZM68.9119 57.8402C69.2902 57.7589 69.6993 57.9028 69.8193 58.1612C69.9362 58.4197 69.727 58.6949 69.3456 58.7762C68.9642 58.8575 68.5582 58.7137 68.4352 58.4552C68.3152 58.1967 68.5305 57.9215 68.9119 57.8402ZM50.5706 53.9421C51.0412 53.842 51.5426 54.0192 51.6902 54.3361C51.8348 54.655 51.5764 54.9948 51.1089 55.0949C50.6383 55.1949 50.1369 55.0177 49.9893 54.7009C49.8417 54.3819 50.1031 54.0422 50.5706 53.9421ZM6.38611 131.294C6.85672 131.194 7.35808 131.371 7.50572 131.688C7.65336 132.005 7.39191 132.344 6.92131 132.444C6.45378 132.545 5.95242 132.367 5.80478 132.048C5.65714 131.732 5.91858 131.392 6.38611 131.294ZM286.405 163.692C286.876 163.592 287.377 163.769 287.525 164.086C287.669 164.405 287.411 164.745 286.94 164.845C286.47 164.943 285.971 164.768 285.824 164.449C285.676 164.132 285.934 163.792 286.405 163.692ZM52.3885 71.7421C52.2624 71.4712 52.4838 71.1835 52.8837 71.0959C53.2866 71.0125 53.7111 71.1626 53.8403 71.4336C53.9633 71.7046 53.7418 71.9944 53.342 72.0798C52.939 72.1653 52.5146 72.0152 52.3885 71.7421ZM7.18583 91.239C6.81366 91.1473 6.61988 90.87 6.75521 90.6199C6.89055 90.3677 7.29964 90.2363 7.67182 90.3281C8.04399 90.4177 8.2347 90.697 8.10243 90.9493C7.9671 91.1994 7.55493 91.3307 7.18583 91.239ZM52.3639 180.656C52.8314 180.556 53.3297 180.733 53.4773 181.052C53.628 181.369 53.3666 181.707 52.896 181.807C52.4285 181.907 51.9271 181.73 51.7794 181.413C51.6318 181.096 51.8902 180.756 52.3639 180.656ZM35.8927 150.451C36.3633 150.351 36.8647 150.528 37.0123 150.845C37.16 151.164 36.8985 151.504 36.4279 151.602C35.9573 151.702 35.459 151.524 35.3114 151.208C35.1637 150.889 35.4252 150.551 35.8927 150.451ZM34.5455 154.728C34.7823 154.678 35.0315 154.766 35.1053 154.926C35.1791 155.087 35.0499 155.256 34.8131 155.306C34.5793 155.356 34.3302 155.266 34.2564 155.108C34.1825 154.947 34.3117 154.778 34.5455 154.728ZM22.928 166.221C23.3955 166.121 23.8969 166.298 24.0445 166.617C24.1922 166.933 23.9338 167.273 23.4632 167.371C22.9926 167.471 22.4943 167.296 22.3436 166.977C22.196 166.66 22.4574 166.323 22.928 166.221ZM102.688 161.341C102.54 161.024 102.802 160.684 103.269 160.584C103.743 160.484 104.241 160.661 104.389 160.978C104.536 161.295 104.275 161.635 103.807 161.735C103.337 161.835 102.835 161.66 102.688 161.341ZM103.125 104.395C102.977 104.078 103.238 103.738 103.706 103.638C104.176 103.538 104.675 103.715 104.822 104.032C104.97 104.351 104.709 104.689 104.241 104.789C103.77 104.891 103.272 104.714 103.125 104.395ZM173.875 146.042C174.626 145.882 175.428 146.165 175.662 146.674C175.899 147.182 175.481 147.726 174.73 147.887C173.98 148.047 173.177 147.764 172.94 147.255C172.703 146.745 173.122 146.2 173.875 146.042ZM119.756 128.644C119.989 128.594 120.239 128.682 120.312 128.842C120.386 129.001 120.257 129.172 120.02 129.222C119.786 129.272 119.537 129.182 119.463 129.024C119.387 128.863 119.519 128.694 119.756 128.644ZM70.5821 74.8982C71.1973 74.7668 71.8555 74.9982 72.0493 75.4172C72.2431 75.8341 71.8986 76.2781 71.2834 76.4116C70.6651 76.5429 70.01 76.3094 69.8162 75.8925C69.6224 75.4756 69.9638 75.0295 70.5821 74.8982ZM112.986 189.336C113.219 189.286 113.469 189.374 113.542 189.534C113.619 189.693 113.487 189.862 113.253 189.912C113.016 189.962 112.767 189.874 112.693 189.716C112.62 189.555 112.752 189.386 112.986 189.336ZM97.8495 84.2891C98.0832 84.2391 98.3354 84.3287 98.4093 84.485C98.4831 84.6456 98.3508 84.8144 98.1171 84.8644C97.8802 84.9145 97.6311 84.8248 97.5573 84.6685C97.4834 84.508 97.6157 84.3391 97.8495 84.2891ZM134.077 148.771C134.307 148.721 134.56 148.808 134.633 148.967C134.707 149.125 134.578 149.296 134.341 149.346C134.108 149.396 133.855 149.306 133.781 149.148C133.708 148.99 133.84 148.821 134.077 148.771ZM132.225 129.284C132.459 129.234 132.711 129.322 132.782 129.482C132.856 129.641 132.726 129.81 132.49 129.86C132.256 129.91 132.007 129.822 131.933 129.664C131.859 129.503 131.988 129.334 132.225 129.284ZM218.087 96.0898C218.589 95.9835 219.124 96.1732 219.281 96.5129C219.438 96.8527 219.161 97.2134 218.659 97.3197C218.158 97.4281 217.623 97.2384 217.466 96.8986C217.306 96.5588 217.586 96.1982 218.087 96.0898ZM164.039 44.2489C164.509 44.1488 165.011 44.326 165.158 44.6429C165.306 44.9597 165.044 45.2995 164.577 45.3996C164.106 45.4996 163.605 45.3245 163.457 45.0035C163.313 44.6867 163.571 44.349 164.039 44.2489ZM189.374 92.6482C189.448 92.8066 189.319 92.9775 189.082 93.0276C188.848 93.0755 188.599 92.988 188.525 92.8316C188.452 92.6711 188.581 92.5023 188.818 92.4522C189.051 92.4022 189.301 92.4898 189.374 92.6482ZM158.05 36.5569C158.284 36.5069 158.536 36.5965 158.607 36.7528C158.68 36.9133 158.551 37.0822 158.318 37.1322C158.084 37.1823 157.832 37.0947 157.758 36.9342C157.684 36.7778 157.816 36.6069 158.05 36.5569ZM189.307 72.5218C189.159 72.2028 189.42 71.8651 189.888 71.7651C190.359 71.665 190.86 71.8422 191.008 72.1591C191.155 72.478 190.894 72.8157 190.426 72.9157C189.956 73.0158 189.454 72.8386 189.307 72.5218ZM188.372 105.946C188.839 105.846 189.337 106.023 189.488 106.342C189.636 106.658 189.374 106.998 188.904 107.098C188.436 107.196 187.935 107.021 187.787 106.702C187.64 106.385 187.901 106.046 188.372 105.946ZM247.025 89.0231C247.262 88.9731 247.511 89.0627 247.585 89.2212C247.659 89.3817 247.526 89.5505 247.296 89.6006C247.059 89.6506 246.81 89.5609 246.736 89.4025C246.662 89.242 246.791 89.0732 247.025 89.0231ZM65.8022 69.3282C66.2944 69.3282 66.6911 69.5971 66.6911 69.9307C66.6911 70.2642 66.2944 70.5352 65.8022 70.5352C65.3101 70.5352 64.9102 70.2642 64.9102 69.9307C64.9102 69.5971 65.3101 69.3282 65.8022 69.3282ZM119.279 28.1415C119.771 28.1415 120.171 28.4125 120.171 28.744C120.171 29.0775 119.771 29.3485 119.279 29.3485C118.787 29.3485 118.39 29.0775 118.39 28.744C118.39 28.4125 118.787 28.1415 119.279 28.1415ZM154.396 33.9053C154.645 33.9053 154.842 34.0387 154.842 34.2055C154.842 34.3723 154.645 34.5078 154.396 34.5078C154.153 34.5078 153.953 34.3723 153.953 34.2055C153.953 34.0387 154.153 33.9053 154.396 33.9053ZM193.837 4.54641C193.345 4.54641 192.948 4.27542 192.948 3.94189C192.948 3.60836 193.345 3.33945 193.837 3.33945C194.33 3.33945 194.729 3.60836 194.729 3.94189C194.729 4.27542 194.33 4.54641 193.837 4.54641ZM200.164 6.68517C199.672 6.68517 199.272 6.41626 199.272 6.08273C199.272 5.7492 199.672 5.47821 200.164 5.47821C200.657 5.47821 201.053 5.7492 201.053 6.08273C201.053 6.41626 200.657 6.68517 200.164 6.68517ZM292.738 7.89213C292.246 7.89213 291.846 7.62322 291.846 7.28969C291.846 6.95616 292.246 6.68517 292.738 6.68517C293.23 6.68517 293.63 6.95616 293.63 7.28969C293.63 7.62322 293.23 7.89213 292.738 7.89213ZM279.841 79.0652C280.333 79.0652 280.733 79.3341 280.733 79.6676C280.733 80.0012 280.333 80.2722 279.841 80.2722C279.349 80.2722 278.949 80.0012 278.949 79.6676C278.949 79.3341 279.349 79.0652 279.841 79.0652ZM293.759 105.941C293.341 105.941 293 105.712 293 105.427C293 105.141 293.341 104.912 293.759 104.912C294.178 104.912 294.522 105.141 294.522 105.427C294.522 105.712 294.178 105.941 293.759 105.941ZM288.007 86.7259C288.257 86.7259 288.453 86.8614 288.453 87.0261C288.453 87.195 288.257 87.3284 288.007 87.3284C287.764 87.3284 287.561 87.195 287.561 87.0261C287.561 86.8614 287.764 86.7259 288.007 86.7259ZM258.815 127.329C259.307 127.329 259.707 127.598 259.707 127.931C259.707 128.265 259.307 128.536 258.815 128.536C258.322 128.536 257.923 128.265 257.923 127.931C257.923 127.598 258.322 127.329 258.815 127.329ZM230.012 167.309C230.757 167.309 231.357 167.717 231.357 168.222C231.357 168.726 230.757 169.135 230.012 169.135C229.268 169.135 228.665 168.726 228.665 168.222C228.665 167.717 229.268 167.309 230.012 167.309ZM171.793 179.149C172.285 179.149 172.682 179.42 172.682 179.754C172.682 180.087 172.285 180.356 171.793 180.356C171.301 180.356 170.901 180.087 170.901 179.754C170.901 179.42 171.301 179.149 171.793 179.149ZM149.644 187.416C150.136 187.416 150.536 187.687 150.536 188.021C150.536 188.354 150.136 188.623 149.644 188.623C149.151 188.623 148.755 188.354 148.755 188.021C148.755 187.687 149.151 187.416 149.644 187.416ZM47.8577 79.9428C47.8577 79.6093 48.2576 79.3404 48.7497 79.3404C49.2419 79.3404 49.6417 79.6093 49.6417 79.9428C49.6417 80.2763 49.2419 80.5473 48.7497 80.5473C48.2576 80.5473 47.8577 80.2763 47.8577 79.9428ZM133.034 184.381C133.289 184.515 133.339 184.761 133.145 184.936C132.948 185.107 132.582 185.14 132.33 185.009C132.074 184.877 132.022 184.629 132.219 184.458C132.413 184.283 132.779 184.25 133.034 184.381ZM118.762 155.739C119.156 155.942 119.23 156.321 118.931 156.586C118.633 156.85 118.073 156.903 117.683 156.7C117.292 156.498 117.215 156.119 117.513 155.852C117.812 155.589 118.372 155.539 118.762 155.739ZM85.9398 137.525C85.9398 137.191 86.3366 136.92 86.8287 136.92C87.3208 136.92 87.7207 137.191 87.7207 137.525C87.7207 137.858 87.3208 138.129 86.8287 138.129C86.3366 138.129 85.9398 137.858 85.9398 137.525ZM47.5594 110.04C47.9377 110.04 48.2422 110.246 48.2422 110.502C48.2422 110.759 47.9377 110.967 47.5594 110.967C47.1811 110.967 46.8765 110.759 46.8765 110.502C46.8765 110.246 47.1811 110.04 47.5594 110.04ZM127.282 193.305C127.534 193.437 127.584 193.683 127.39 193.856C127.196 194.029 126.83 194.062 126.578 193.931C126.319 193.799 126.273 193.551 126.467 193.38C126.664 193.205 127.027 193.174 127.282 193.305ZM10.5723 127.308C10.8184 127.308 11.0183 127.444 11.0183 127.61C11.0183 127.777 10.8184 127.913 10.5723 127.913C10.3263 127.913 10.1263 127.777 10.1263 127.61C10.1263 127.444 10.3263 127.308 10.5723 127.308ZM103.389 172.222C104.112 172.595 104.25 173.298 103.697 173.788C103.146 174.277 102.11 174.371 101.387 173.998C100.664 173.623 100.522 172.922 101.076 172.433C101.627 171.941 102.663 171.847 103.389 172.222ZM106.508 131.49C106.846 131.49 107.12 131.677 107.12 131.905C107.12 132.136 106.846 132.321 106.508 132.321C106.167 132.321 105.893 132.136 105.893 131.905C105.893 131.677 106.167 131.49 106.508 131.49ZM58.1588 48.1595C58.6509 48.1595 59.0507 48.4305 59.0507 48.7641C59.0507 49.0976 58.6509 49.3665 58.1588 49.3665C57.6666 49.3665 57.2698 49.0976 57.2698 48.7641C57.2698 48.4305 57.6666 48.1595 58.1588 48.1595ZM78.1948 90.9076C77.9487 90.9076 77.7488 90.7742 77.7488 90.6074C77.7488 90.4406 77.9487 90.3051 78.1948 90.3051C78.4409 90.3051 78.6377 90.4406 78.6377 90.6074C78.6377 90.7742 78.4409 90.9076 78.1948 90.9076ZM17.9605 83.078C18.4527 83.078 18.8494 83.349 18.8494 83.6825C18.8494 84.016 18.4527 84.2849 17.9605 84.2849C17.4684 84.2849 17.0685 84.016 17.0685 83.6825C17.0685 83.349 17.4684 83.078 17.9605 83.078ZM30.6238 67.3104C30.6238 66.9789 31.0236 66.7079 31.5158 66.7079C32.0079 66.7079 32.4078 66.9789 32.4078 67.3104C32.4078 67.6439 32.0079 67.9149 31.5158 67.9149C31.0236 67.9149 30.6238 67.6439 30.6238 67.3104ZM87.7392 38.5706C87.3147 38.5706 86.9702 38.3371 86.9702 38.0494C86.9702 37.7618 87.3147 37.5283 87.7392 37.5283C88.1636 37.5283 88.5081 37.7618 88.5081 38.0494C88.5081 38.3371 88.1636 38.5706 87.7392 38.5706ZM65.3562 33.9053C65.6023 33.9053 65.8022 34.0387 65.8022 34.2055C65.8022 34.3723 65.6023 34.5078 65.3562 34.5078C65.1102 34.5078 64.9102 34.3723 64.9102 34.2055C64.9102 34.0387 65.1102 33.9053 65.3562 33.9053ZM97.5419 40.43C97.9663 40.43 98.3108 40.6635 98.3108 40.9511C98.3108 41.2388 97.9663 41.4744 97.5419 41.4744C97.1174 41.4744 96.7729 41.2388 96.7729 40.9511C96.7729 40.6635 97.1174 40.43 97.5419 40.43ZM45.0157 44.2552C45.0157 43.9216 45.4155 43.6527 45.9077 43.6527C46.3998 43.6527 46.7997 43.9216 46.7997 44.2552C46.7997 44.5887 46.3998 44.8597 45.9077 44.8597C45.4155 44.8597 45.0157 44.5887 45.0157 44.2552ZM61.7636 58.8283C62.0066 58.8283 62.2066 58.9638 62.2066 59.1306C62.2066 59.2973 62.0066 59.4307 61.7636 59.4307C61.5145 59.4307 61.3176 59.2973 61.3176 59.1306C61.3176 58.9638 61.5145 58.8283 61.7636 58.8283ZM37.446 70.9625C37.1999 70.9625 37 70.827 37 70.6603C37 70.4935 37.1999 70.3601 37.446 70.3601C37.6921 70.3601 37.892 70.4935 37.892 70.6603C37.892 70.827 37.6921 70.9625 37.446 70.9625ZM96.0839 55.9183C96.33 55.9183 96.5299 56.0558 96.5299 56.2205C96.5299 56.3873 96.33 56.5228 96.0839 56.5228C95.8379 56.5228 95.6379 56.3873 95.6379 56.2205C95.6379 56.0558 95.8379 55.9183 96.0839 55.9183ZM90.529 62.495C91.2518 62.495 91.8331 62.889 91.8331 63.3789C91.8331 63.8646 91.2518 64.2586 90.529 64.2586C89.8123 64.2586 89.2309 63.8646 89.2309 63.3789C89.2309 62.889 89.8123 62.495 90.529 62.495ZM79.4744 108.637C79.9665 108.637 80.3664 108.908 80.3664 109.239C80.3664 109.573 79.9665 109.844 79.4744 109.844C78.9822 109.844 78.5824 109.573 78.5824 109.239C78.5824 108.908 78.9822 108.637 79.4744 108.637ZM73.2304 112.11C73.2304 111.839 73.5564 111.62 73.9532 111.62C74.3562 111.62 74.6791 111.839 74.6791 112.11C74.6791 112.381 74.3562 112.599 73.9532 112.599C73.5564 112.599 73.2304 112.381 73.2304 112.11ZM108.516 180.898C108.907 181.1 108.981 181.48 108.686 181.744C108.387 182.009 107.828 182.061 107.437 181.857C107.046 181.655 106.969 181.277 107.268 181.013C107.566 180.748 108.126 180.696 108.516 180.898ZM63.1293 122.184C63.6215 122.184 64.0213 122.455 64.0213 122.789C64.0213 123.122 63.6215 123.391 63.1293 123.391C62.6372 123.391 62.2404 123.122 62.2404 122.789C62.2404 122.455 62.6372 122.184 63.1293 122.184ZM158.797 173.948C159.289 173.948 159.689 174.219 159.689 174.553C159.689 174.886 159.289 175.155 158.797 175.155C158.305 175.155 157.905 174.886 157.905 174.553C157.905 174.219 158.305 173.948 158.797 173.948ZM288.453 2.73493C288.946 2.73493 289.345 3.00592 289.345 3.33945C289.345 3.6709 288.946 3.94189 288.453 3.94189C287.961 3.94189 287.561 3.6709 287.561 3.33945C287.561 3.00592 287.961 2.73493 288.453 2.73493ZM87.0902 126.443C87.0902 126.157 87.4316 125.928 87.8499 125.928C88.2713 125.928 88.6096 126.157 88.6096 126.443C88.6096 126.727 88.2713 126.958 87.8499 126.958C87.4316 126.958 87.0902 126.727 87.0902 126.443ZM101.605 161.336C101.922 161.499 101.98 161.803 101.74 162.016C101.5 162.229 101.051 162.27 100.738 162.108C100.424 161.945 100.362 161.641 100.602 161.428C100.842 161.216 101.291 161.176 101.605 161.336ZM242.11 159.056C242.602 159.056 243.002 159.325 243.002 159.658C243.002 159.992 242.602 160.263 242.11 160.263C241.618 160.263 241.218 159.992 241.218 159.658C241.218 159.325 241.618 159.056 242.11 159.056ZM194.631 160.632C195.123 160.632 195.52 160.901 195.52 161.234C195.52 161.568 195.123 161.839 194.631 161.839C194.139 161.839 193.739 161.568 193.739 161.234C193.739 160.901 194.139 160.632 194.631 160.632ZM199.805 163.087C200.051 163.087 200.251 163.223 200.251 163.388C200.251 163.557 200.051 163.69 199.805 163.69C199.558 163.69 199.362 163.557 199.362 163.388C199.362 163.223 199.558 163.087 199.805 163.087ZM212.948 173.744C213.44 173.744 213.84 174.013 213.84 174.346C213.84 174.68 213.44 174.951 212.948 174.951C212.455 174.951 212.056 174.68 212.056 174.346C212.056 174.013 212.455 173.744 212.948 173.744ZM229.12 120.135C229.613 120.135 230.012 120.406 230.012 120.74C230.012 121.071 229.613 121.342 229.12 121.342C228.628 121.342 228.228 121.071 228.228 120.74C228.228 120.406 228.628 120.135 229.12 120.135ZM149.056 102.767C149.548 102.767 149.948 103.036 149.948 103.369C149.948 103.703 149.548 103.971 149.056 103.971C148.564 103.971 148.167 103.703 148.167 103.369C148.167 103.036 148.564 102.767 149.056 102.767ZM228.936 70.7561C228.936 70.2204 229.579 69.7868 230.366 69.7868C231.154 69.7868 231.793 70.2204 231.793 70.7561C231.793 71.2898 231.154 71.7213 230.366 71.7213C229.579 71.7213 228.936 71.2898 228.936 70.7561ZM189.088 100.503C189.088 100.67 188.888 100.805 188.642 100.805C188.396 100.805 188.196 100.67 188.196 100.503C188.196 100.336 188.396 100.203 188.642 100.203C188.888 100.203 189.088 100.336 189.088 100.503ZM98.9229 115.357C99.5689 115.357 100.092 115.712 100.092 116.149C100.092 116.585 99.5689 116.942 98.9229 116.942C98.277 116.942 97.7541 116.585 97.7541 116.149C97.7541 115.712 98.277 115.357 98.9229 115.357ZM272.081 122.789C272.324 122.789 272.527 122.924 272.527 123.091C272.527 123.258 272.324 123.391 272.081 123.391C271.832 123.391 271.635 123.258 271.635 123.091C271.635 122.924 271.832 122.789 272.081 122.789ZM119.608 101.045C119.851 101.045 120.051 101.18 120.051 101.347C120.051 101.514 119.851 101.649 119.608 101.649C119.359 101.649 119.162 101.514 119.162 101.347C119.162 101.18 119.359 101.045 119.608 101.045ZM221.28 96.9882C221.529 96.9882 221.726 97.1237 221.726 97.2905C221.726 97.4552 221.529 97.5927 221.28 97.5927C221.037 97.5927 220.834 97.4552 220.834 97.2905C220.834 97.1237 221.037 96.9882 221.28 96.9882ZM193.287 92.3355C193.533 92.3355 193.733 92.4731 193.733 92.6378C193.733 92.8066 193.533 92.94 193.287 92.94C193.041 92.94 192.841 92.8066 192.841 92.6378C192.841 92.4731 193.041 92.3355 193.287 92.3355ZM171.864 27.1951C171.864 26.8387 172.291 26.551 172.814 26.551C173.34 26.551 173.767 26.8387 173.767 27.1951C173.767 27.5516 173.34 27.8413 172.814 27.8413C172.291 27.8413 171.864 27.5516 171.864 27.1951ZM83.5283 45.9582C84.0205 45.9582 84.4203 46.2272 84.4203 46.5607C84.4203 46.8942 84.0205 47.1652 83.5283 47.1652C83.0362 47.1652 82.6394 46.8942 82.6394 46.5607C82.6394 46.2272 83.0362 45.9582 83.5283 45.9582ZM158.401 45.3183C158.154 45.3183 157.955 45.1849 157.955 45.0181C157.955 44.8513 158.154 44.7158 158.401 44.7158C158.644 44.7158 158.847 44.8513 158.847 45.0181C158.847 45.1849 158.644 45.3183 158.401 45.3183ZM70.4529 48.4264C70.2099 48.4264 70.0069 48.2909 70.0069 48.1241C70.0069 47.9573 70.2099 47.8218 70.4529 47.8218C70.7021 47.8218 70.8989 47.9573 70.8989 48.1241C70.8989 48.2909 70.7021 48.4264 70.4529 48.4264ZM130.035 37.5116C130.527 37.5116 130.927 37.7826 130.927 38.1161C130.927 38.4497 130.527 38.7207 130.035 38.7207C129.543 38.7207 129.143 38.4497 129.143 38.1161C129.143 37.7826 129.543 37.5116 130.035 37.5116ZM176.825 49.3561C176.825 49.0225 177.225 48.7516 177.717 48.7516C178.209 48.7516 178.606 49.0225 178.606 49.3561C178.606 49.6896 178.209 49.9585 177.717 49.9585C177.225 49.9585 176.825 49.6896 176.825 49.3561ZM170.596 6.37665C170.596 6.54342 170.793 6.67891 171.042 6.67891C171.285 6.67891 171.485 6.54342 171.485 6.37665C171.485 6.20989 171.285 6.07439 171.042 6.07439C170.793 6.07439 170.596 6.20989 170.596 6.37665Z" fill="white" fill-opacity="0.2"/>
</g>
</svg>
