<svg width="186" height="16" viewBox="0 0 186 16" fill="none" xmlns="http://www.w3.org/2000/svg">
<mask id="path-1-inside-1_92_2646" fill="white">
<path d="M147.157 1.00043C151.023 1.04281 154.122 4.21097 154.08 8.07673C154.037 11.9425 150.869 15.042 147.003 14.9996C143.138 14.9572 140.038 11.789 140.081 7.92329C140.123 4.05753 143.291 0.958058 147.157 1.00043ZM147.018 13.6508C150.139 13.685 152.697 11.1828 152.731 8.06195C152.765 4.94111 150.263 2.38343 147.142 2.34922C144.021 2.31501 141.464 4.81723 141.429 7.93807C141.395 11.0589 143.897 13.6166 147.018 13.6508Z"/>
</mask>
<path d="M147.157 1.00043C151.023 1.04281 154.122 4.21097 154.08 8.07673C154.037 11.9425 150.869 15.042 147.003 14.9996C143.138 14.9572 140.038 11.789 140.081 7.92329C140.123 4.05753 143.291 0.958058 147.157 1.00043ZM147.018 13.6508C150.139 13.685 152.697 11.1828 152.731 8.06195C152.765 4.94111 150.263 2.38343 147.142 2.34922C144.021 2.31501 141.464 4.81723 141.429 7.93807C141.395 11.0589 143.897 13.6166 147.018 13.6508Z" fill="#6A6A6A" stroke="#6A6A6A" stroke-width="1.03704" mask="url(#path-1-inside-1_92_2646)"/>
<line x1="117" y1="8.11565" x2="141" y2="8.02395" stroke="#6A6A6A" stroke-width="1.8"/>
<line x1="154" y1="8.11565" x2="174" y2="8.03923" stroke="#6A6A6A" stroke-width="1.8"/>
<mask id="path-4-inside-2_92_2646" fill="white">
<path d="M112.135 1.9896C115.449 2.02592 118.105 4.74149 118.069 8.055C118.033 11.3685 115.317 14.0252 112.004 13.9889C108.69 13.9526 106.033 11.237 106.07 7.92347C106.106 4.60996 108.822 1.95328 112.135 1.9896ZM112.016 12.8328C114.691 12.8621 116.884 10.7173 116.913 8.04233C116.942 5.36732 114.797 3.17502 112.122 3.1457C109.447 3.11638 107.255 5.26113 107.226 7.93614C107.196 10.6112 109.341 12.8034 112.016 12.8328Z"/>
</mask>
<path d="M112.135 1.9896C115.449 2.02592 118.105 4.74149 118.069 8.055C118.033 11.3685 115.317 14.0252 112.004 13.9889C108.69 13.9526 106.033 11.237 106.07 7.92347C106.106 4.60996 108.822 1.95328 112.135 1.9896ZM112.016 12.8328C114.691 12.8621 116.884 10.7173 116.913 8.04233C116.942 5.36732 114.797 3.17502 112.122 3.1457C109.447 3.11638 107.255 5.26113 107.226 7.93614C107.196 10.6112 109.341 12.8034 112.016 12.8328Z" fill="#6A6A6A" stroke="#6A6A6A" stroke-width="0.888889" mask="url(#path-4-inside-2_92_2646)"/>
<mask id="path-5-inside-3_92_2646" fill="white">
<path d="M179.135 1.9896C182.449 2.02592 185.105 4.74149 185.069 8.055C185.033 11.3685 182.317 14.0252 179.004 13.9889C175.69 13.9526 173.033 11.237 173.07 7.92347C173.106 4.60996 175.822 1.95328 179.135 1.9896ZM179.016 12.8328C181.691 12.8621 183.884 10.7173 183.913 8.04233C183.942 5.36732 181.797 3.17502 179.122 3.1457C176.447 3.11638 174.255 5.26113 174.226 7.93614C174.196 10.6112 176.341 12.8034 179.016 12.8328Z"/>
</mask>
<path d="M179.135 1.9896C182.449 2.02592 185.105 4.74149 185.069 8.055C185.033 11.3685 182.317 14.0252 179.004 13.9889C175.69 13.9526 173.033 11.237 173.07 7.92347C173.106 4.60996 175.822 1.95328 179.135 1.9896ZM179.016 12.8328C181.691 12.8621 183.884 10.7173 183.913 8.04233C183.942 5.36732 181.797 3.17502 179.122 3.1457C176.447 3.11638 174.255 5.26113 174.226 7.93614C174.196 10.6112 176.341 12.8034 179.016 12.8328Z" fill="#6A6A6A" stroke="#6A6A6A" stroke-width="0.888889" mask="url(#path-5-inside-3_92_2646)"/>
<line x1="0.996561" y1="8.42888" x2="107.001" y2="8.02385" stroke="#6A6A6A" stroke-width="1.8"/>
</svg>
