<svg width="119" height="33" viewBox="0 0 119 33" fill="none" xmlns="http://www.w3.org/2000/svg">
<path d="M8.20394 26.5806C4.92926 26.5806 2.48186 25.3397 0.792818 23.892L2.96445 20.9275C4.30879 22.0995 5.99784 22.8923 8.10053 22.8923C9.89298 22.8923 11.2029 22.3063 11.2029 21.2377C11.2029 20.0657 9.68616 19.6521 7.75582 19.204C4.96373 18.5835 1.34434 17.7218 1.34434 13.7232C1.34434 10.0004 4.61902 8.17348 8.51417 8.17348C11.5131 8.17348 13.7537 9.24206 15.3393 10.483L13.1677 13.4819C11.8923 12.5167 10.41 11.8618 8.61758 11.8618C7.10089 11.8618 5.85996 12.3444 5.85996 13.3785C5.85996 14.5505 7.34218 14.9297 9.30699 15.3433C12.0991 15.9638 15.7185 16.8255 15.7185 20.8241C15.7185 24.5469 12.4093 26.5806 8.20394 26.5806ZM29.2807 8.17348C34.1754 8.17348 37.8293 12.1376 37.8293 17.3771C37.8293 22.6165 34.1754 26.5806 29.2807 26.5806C26.9367 26.5806 24.9719 25.6499 23.5586 24.0643V32.7164H19.0774V8.58712H23.5586V10.6898C24.9719 9.10418 26.9367 8.17348 29.2807 8.17348ZM28.3844 22.2374C31.1765 22.2374 33.2103 20.1347 33.2103 17.3771C33.2103 14.6194 31.1765 12.5167 28.3844 12.5167C25.6268 12.5167 23.5586 14.6194 23.5586 17.3771C23.5586 20.1347 25.6268 22.2374 28.3844 22.2374ZM43.7116 6.00185C42.126 6.00185 40.885 4.79539 40.885 3.20976C40.885 1.62412 42.126 0.417658 43.7116 0.417658C45.2972 0.417658 46.5382 1.62412 46.5382 3.20976C46.5382 4.79539 45.2972 6.00185 43.7116 6.00185ZM41.471 26.167V8.58712H45.9522V26.167H41.471ZM58.9443 26.5806C53.5669 26.5806 49.4994 22.6165 49.4994 17.3771C49.4994 12.1376 53.5669 8.17348 58.9443 8.17348C62.4947 8.17348 65.4591 9.897 67.0448 12.5512L63.1496 14.8952C62.3568 13.4819 60.8057 12.5167 58.9443 12.5167C56.1866 12.5167 54.1184 14.6194 54.1184 17.3771C54.1184 20.1347 56.1866 22.2374 58.9443 22.2374C60.8057 22.2374 62.3568 21.2722 63.1496 19.8589L67.0448 22.2029C65.4591 24.8571 62.4947 26.5806 58.9443 26.5806ZM87.4092 17.4115C87.4092 17.8941 87.3747 18.5146 87.3058 18.9972H73.69C74.3105 21.2033 76.1719 22.6165 78.7227 22.6165C80.8598 22.6165 82.6178 21.6169 83.5485 20.4449L86.5474 23.0647C84.7205 25.2363 81.894 26.5806 78.5848 26.5806C73.0006 26.5806 68.8297 22.5821 68.8297 17.3081C68.8297 12.1031 72.8627 8.17348 78.1712 8.17348C83.4451 8.17348 87.4092 12.1031 87.4092 17.4115ZM78.1367 12.1031C75.9306 12.1031 74.2071 13.5509 73.6555 15.7225H82.6178C82.0663 13.5164 80.3083 12.1031 78.1367 12.1031ZM104.184 1.34836H108.665V26.167H104.184V24.0643C102.77 25.6155 100.806 26.5806 98.4615 26.5806C93.5667 26.5806 89.8784 22.6165 89.8784 17.3771C89.8784 12.1376 93.5667 8.17348 98.4615 8.17348C100.806 8.17348 102.77 9.13865 104.184 10.6898V1.34836ZM99.3233 22.2374C102.115 22.2374 104.184 20.1347 104.184 17.3771C104.184 14.6194 102.115 12.5167 99.3233 12.5167C96.5657 12.5167 94.4974 14.6194 94.4974 17.3771C94.4974 20.1347 96.5657 22.2374 99.3233 22.2374ZM115.547 26.4772C113.754 26.4772 112.41 25.1329 112.41 23.3749C112.41 21.6169 113.754 20.2726 115.547 20.2726C117.305 20.2726 118.649 21.6169 118.649 23.3749C118.649 25.1329 117.305 26.4772 115.547 26.4772Z" fill="white"/>
</svg>
