<svg width="60" height="51" viewBox="0 0 60 51" fill="none" xmlns="http://www.w3.org/2000/svg">
<path fill-rule="evenodd" clip-rule="evenodd" d="M36.0672 41.7032C36.0672 42.4693 36.6684 43.2558 37.4099 43.4565L43.6761 45.1524C44.9669 45.5017 46.1623 46.8699 46.3344 48.2051L46.4595 49.1762L36.7334 47.8534C35.3979 47.6718 33.4551 46.8642 32.3875 46.0486L18.0103 35.0664C11.1996 34.6122 5.67724 29.4779 4.66395 22.8681L2.60763 22.8973C1.16757 22.9178 0 21.7685 0 20.3303L7.24962 12.2179C10.4839 8.6026 14.1631 6.25123 18.9943 6.25123C19.6485 6.25123 20.2925 6.29434 20.9238 6.37788C21.6558 6.44051 22.3814 6.56559 23.0916 6.75588C32.4549 9.26479 39.3396 21.36 39.3396 21.36C39.9067 22.2502 41.1791 23.2068 42.2003 23.4804L42.6355 23.5971C43.658 23.871 45.0187 23.4226 45.6776 22.5961L47.6166 20.1641L41.438 17.152C32.9874 13.4991 35.2924 2.88635 35.2924 2.88635C35.3929 2.2355 35.868 2.07882 36.3498 2.5328L49.64 15.0562L38.864 3.04029C39.0145 0.722956 40.8962 0 40.8962 0L51.3157 16.6352L52.149 17.4204L57.6271 21.2792C58.8791 22.161 59.9132 24.127 59.929 25.6647L60 32.5964L59.5899 32.9317C58.5472 33.7842 56.7226 33.9968 55.5095 33.4106L53.6245 32.4999C51.7224 31.581 48.8679 31.9371 47.2473 33.2948L41.8075 37.8521C41.2152 38.3484 40.4353 38.8221 39.5809 39.2289C39.2676 30.4949 35.6965 23.3729 28.0329 18.0684C27.3657 17.6584 26.3736 18.8505 26.8647 19.2652C33.622 25.3673 36.0672 31.992 36.0672 40.5079V41.7032ZM57.0264 28.1478C57.7017 28.1478 58.249 27.6032 58.249 26.9314C58.249 26.2595 57.7017 25.7149 57.0264 25.7149C56.3512 25.7149 55.8038 26.2595 55.8038 26.9314C55.8038 27.6032 56.3512 28.1478 57.0264 28.1478ZM11.9642 50.9965V49.7002C11.9642 48.3526 13.0142 46.966 14.2963 46.5717C14.2963 46.5717 21.0465 44.9141 22.8804 41.9598L28.0329 46.0437C20.8718 49.6063 11.9642 50.9965 11.9642 50.9965Z" fill="white"/>
</svg>
