<svg width="41" height="40" viewBox="0 0 41 40" fill="none" xmlns="http://www.w3.org/2000/svg">
<circle cx="20.998" cy="20" r="20" fill="#0E0E12"/>
<path fill-rule="evenodd" clip-rule="evenodd" d="M19.8887 10C19.8887 9.38638 20.3861 8.88892 20.9998 8.88892C27.1363 8.88892 32.1109 13.8635 32.1109 20C32.1109 26.1365 27.1363 31.1111 20.9998 31.1111C14.8633 31.1111 9.88867 26.1365 9.88867 20C9.88867 19.3864 10.3861 18.8889 10.9998 18.8889C11.6134 18.8889 12.1109 19.3864 12.1109 20C12.1109 24.9092 16.0906 28.8889 20.9998 28.8889C25.909 28.8889 29.8887 24.9092 29.8887 20C29.8887 15.0908 25.909 11.1111 20.9998 11.1111C20.3861 11.1111 19.8887 10.6137 19.8887 10Z" fill="#FFDD18"/>
<path fill-rule="evenodd" clip-rule="evenodd" d="M19.8887 15.5556C19.8887 14.9419 20.3861 14.4445 20.9998 14.4445C24.068 14.4445 26.5553 16.9318 26.5553 20C26.5553 23.0683 24.068 25.5556 20.9998 25.5556C20.3861 25.5556 19.8887 25.0581 19.8887 24.4445C19.8887 23.8308 20.3861 23.3333 20.9998 23.3333C22.8407 23.3333 24.3331 21.841 24.3331 20C24.3331 18.1591 22.8407 16.6667 20.9998 16.6667C20.3861 16.6667 19.8887 16.1692 19.8887 15.5556Z" fill="#FFDD18"/>
<g clip-path="url(#clip0_95_2960)">
<path fill-rule="evenodd" clip-rule="evenodd" d="M21.4303 17.7223C21.5644 17.7223 21.6858 17.7765 21.7737 17.8643C21.7771 17.8677 21.7805 17.8712 21.7838 17.8747C21.8615 17.9569 21.9108 18.0664 21.916 18.1872L21.9162 18.1913C21.9164 18.197 21.9164 18.2027 21.9164 18.2084V18.2112C21.9164 18.2191 21.9213 18.2262 21.9286 18.2292C21.9359 18.2322 21.9443 18.2306 21.9499 18.225L21.9518 18.2231C21.9559 18.219 21.96 18.215 21.9641 18.2112L21.9671 18.2084C22.0563 18.1266 22.1685 18.0841 22.2817 18.0809C22.2865 18.0807 22.2913 18.0807 22.2961 18.0807C22.4203 18.0808 22.5445 18.1283 22.6393 18.2231L22.7768 18.3606C22.8716 18.4553 22.919 18.5795 22.9192 18.7038C22.9192 18.7086 22.9191 18.7134 22.919 18.7182C22.9158 18.8314 22.8732 18.9436 22.7914 19.0327L22.7887 19.0357C22.7848 19.0399 22.7808 19.044 22.7768 19.048L22.7748 19.05C22.7692 19.0556 22.7676 19.064 22.7706 19.0713C22.7737 19.0786 22.7808 19.0834 22.7887 19.0834H22.7914C22.7972 19.0834 22.8029 19.0835 22.8086 19.0837L22.8126 19.0839C22.9335 19.089 23.0429 19.1383 23.1252 19.2161C23.1287 19.2194 23.1321 19.2227 23.1355 19.2261C23.2233 19.3141 23.2776 19.4355 23.2776 19.5695V19.764C23.2776 19.898 23.2233 20.0194 23.1355 20.1073C23.1321 20.1107 23.1287 20.1141 23.1252 20.1174C23.0429 20.1951 22.9335 20.2444 22.8126 20.2496L22.8086 20.2498C22.8029 20.25 22.7972 20.2501 22.7914 20.2501H22.7887C22.7808 20.2501 22.7737 20.2549 22.7706 20.2622C22.7676 20.2695 22.7692 20.2779 22.7748 20.2835L22.7768 20.2855C22.7808 20.2895 22.7848 20.2936 22.7887 20.2978L22.7914 20.3008C22.8732 20.3899 22.9158 20.5021 22.919 20.6153C22.9191 20.6201 22.9192 20.6249 22.9192 20.6297C22.919 20.7539 22.8716 20.8781 22.7768 20.9729L22.6393 21.1104C22.5445 21.2052 22.4203 21.2527 22.2961 21.2528C22.2913 21.2528 22.2865 21.2527 22.2817 21.2526C22.1685 21.2494 22.0563 21.2069 21.9671 21.1251L21.9641 21.1223C21.96 21.1184 21.9559 21.1145 21.9518 21.1104L21.9499 21.1085C21.9443 21.1029 21.9359 21.1012 21.9286 21.1043C21.9213 21.1073 21.9164 21.1144 21.9164 21.1223V21.1251C21.9164 21.1308 21.9164 21.1365 21.9162 21.1422L21.916 21.1462C21.9108 21.2671 21.8615 21.3765 21.7838 21.4588C21.7805 21.4623 21.7771 21.4658 21.7737 21.4692C21.6858 21.5569 21.5644 21.6112 21.4303 21.6112H21.2359C21.1018 21.6112 20.9805 21.5569 20.8925 21.4692C20.8891 21.4658 20.8858 21.4623 20.8825 21.4588C20.8047 21.3765 20.7554 21.2671 20.7502 21.1462L20.7501 21.1422C20.7499 21.1365 20.7498 21.1308 20.7498 21.1251V21.1223C20.7498 21.1144 20.745 21.1073 20.7377 21.1043C20.7304 21.1012 20.722 21.1029 20.7164 21.1085L20.7144 21.1104C20.7104 21.1145 20.7062 21.1184 20.7021 21.1223L20.6991 21.1251C20.61 21.2069 20.4977 21.2494 20.3846 21.2526C20.3798 21.2527 20.375 21.2528 20.3701 21.2528C20.2459 21.2527 20.1217 21.2052 20.0269 21.1104L19.8894 20.9729C19.7947 20.8781 19.7472 20.7539 19.7471 20.6297C19.7471 20.6249 19.7471 20.6201 19.7473 20.6153C19.7505 20.5021 19.793 20.3899 19.8748 20.3008L19.8776 20.2978C19.8814 20.2936 19.8854 20.2895 19.8894 20.2855L19.8914 20.2835C19.897 20.2779 19.8986 20.2695 19.8956 20.2622C19.8926 20.2549 19.8855 20.2501 19.8776 20.2501H19.8748C19.8691 20.2501 19.8634 20.25 19.8577 20.2498L19.8536 20.2496C19.7327 20.2444 19.6233 20.1951 19.541 20.1174C19.5375 20.1141 19.5341 20.1107 19.5307 20.1073C19.4429 20.0194 19.3887 19.898 19.3887 19.764V19.5695C19.3887 19.4355 19.4429 19.3141 19.5307 19.2261C19.5341 19.2227 19.5375 19.2194 19.541 19.2161C19.6233 19.1383 19.7327 19.089 19.8536 19.0839L19.8577 19.0837C19.8634 19.0835 19.8691 19.0834 19.8748 19.0834H19.8776C19.8855 19.0834 19.8926 19.0786 19.8956 19.0713C19.8986 19.064 19.897 19.0556 19.8914 19.05L19.8894 19.048C19.8854 19.044 19.8814 19.0399 19.8776 19.0357L19.8748 19.0327C19.793 18.9436 19.7505 18.8314 19.7473 18.7182C19.7471 18.7134 19.7471 18.7086 19.7471 18.7038C19.7472 18.5795 19.7947 18.4553 19.8894 18.3606L20.0269 18.2231C20.1217 18.1283 20.2459 18.0808 20.3701 18.0807C20.375 18.0807 20.3798 18.0807 20.3846 18.0809C20.4977 18.0841 20.61 18.1266 20.6991 18.2084L20.7021 18.2112C20.7062 18.215 20.7104 18.219 20.7144 18.2231L20.7164 18.225C20.722 18.2306 20.7304 18.2322 20.7377 18.2292C20.745 18.2262 20.7498 18.2191 20.7498 18.2112V18.2084C20.7498 18.2027 20.7499 18.197 20.7501 18.1913L20.7502 18.1872C20.7554 18.0664 20.8047 17.9569 20.8825 17.8747C20.8858 17.8712 20.8891 17.8677 20.8925 17.8643C20.9805 17.7765 21.1018 17.7223 21.2359 17.7223H21.4303ZM21.1387 21.1251C21.1387 21.1788 21.1822 21.2223 21.2359 21.2223H21.4303C21.484 21.2223 21.5276 21.1788 21.5276 21.1251V21.1223C21.5276 20.9552 21.6289 20.8075 21.7796 20.745C21.9306 20.6824 22.1067 20.7154 22.2249 20.8335L22.2268 20.8354C22.2648 20.8734 22.3263 20.8734 22.3643 20.8354L22.5018 20.6979C22.5398 20.66 22.5398 20.5984 22.5018 20.5604L22.4998 20.5585C22.3817 20.4404 22.3488 20.2642 22.4114 20.1132C22.4739 19.9625 22.6215 19.8612 22.7887 19.8612H22.7914C22.8451 19.8612 22.8887 19.8177 22.8887 19.764V19.5695C22.8887 19.5158 22.8451 19.4723 22.7914 19.4723H22.7887C22.6215 19.4723 22.4739 19.3709 22.4114 19.2203C22.3488 19.0693 22.3817 18.8931 22.4998 18.775L22.5018 18.773C22.5398 18.7351 22.5398 18.6735 22.5018 18.6355L22.3643 18.498C22.3263 18.4601 22.2648 18.4601 22.2268 18.498L22.2249 18.5C22.1067 18.6181 21.9306 18.6511 21.7796 18.5884C21.6289 18.526 21.5276 18.3783 21.5276 18.2112V18.2084C21.5276 18.1547 21.484 18.1112 21.4303 18.1112H21.2359C21.1822 18.1112 21.1387 18.1547 21.1387 18.2084V18.2112C21.1387 18.3783 21.0373 18.526 20.8866 18.5884C20.7356 18.6511 20.5595 18.6181 20.4414 18.5L20.4394 18.498C20.4014 18.4601 20.3399 18.4601 20.3019 18.498L20.1644 18.6355C20.1265 18.6735 20.1265 18.7351 20.1644 18.773L20.1664 18.775C20.2845 18.8931 20.3174 19.0693 20.2548 19.2203C20.1923 19.3709 20.0447 19.4723 19.8776 19.4723H19.8748C19.8211 19.4723 19.7776 19.5158 19.7776 19.5695V19.764C19.7776 19.8177 19.8211 19.8612 19.8748 19.8612H19.8776C20.0447 19.8612 20.1923 19.9625 20.2548 20.1132C20.3174 20.2642 20.2845 20.4404 20.1664 20.5585L20.1644 20.5604C20.1265 20.5984 20.1265 20.66 20.1644 20.6979L20.3019 20.8354C20.3399 20.8734 20.4014 20.8734 20.4394 20.8354L20.4414 20.8335C20.5595 20.7154 20.7356 20.6824 20.8866 20.745C21.0373 20.8075 21.1387 20.9552 21.1387 21.1223V21.1251Z" fill="#FFDD18"/>
<path fill-rule="evenodd" clip-rule="evenodd" d="M21.3334 20.0556C21.5482 20.0556 21.7223 19.8815 21.7223 19.6667C21.7223 19.4519 21.5482 19.2778 21.3334 19.2778C21.1187 19.2778 20.9446 19.4519 20.9446 19.6667C20.9446 19.8815 21.1187 20.0556 21.3334 20.0556ZM21.3334 20.4445C21.763 20.4445 22.1112 20.0962 22.1112 19.6667C22.1112 19.2371 21.763 18.8889 21.3334 18.8889C20.9039 18.8889 20.5557 19.2371 20.5557 19.6667C20.5557 20.0962 20.9039 20.4445 21.3334 20.4445Z" fill="#FFDD18"/>
</g>
<defs>
<clipPath id="clip0_95_2960">
<rect width="4.66667" height="4.66667" fill="white" transform="translate(19 17.3334)"/>
</clipPath>
</defs>
</svg>
