<svg width="41" height="40" viewBox="0 0 41 40" fill="none" xmlns="http://www.w3.org/2000/svg">
<circle cx="20.998" cy="20" r="20" fill="#0E0E12"/>
<path fill-rule="evenodd" clip-rule="evenodd" d="M19.8887 10C19.8887 9.38638 20.3861 8.88892 20.9998 8.88892C27.1363 8.88892 32.1109 13.8635 32.1109 20C32.1109 26.1365 27.1363 31.1111 20.9998 31.1111C14.8633 31.1111 9.88867 26.1365 9.88867 20C9.88867 19.3864 10.3861 18.8889 10.9998 18.8889C11.6134 18.8889 12.1109 19.3864 12.1109 20C12.1109 24.9092 16.0906 28.8889 20.9998 28.8889C25.909 28.8889 29.8887 24.9092 29.8887 20C29.8887 15.0908 25.909 11.1111 20.9998 11.1111C20.3861 11.1111 19.8887 10.6137 19.8887 10Z" fill="#FFDD18"/>
<g clip-path="url(#clip0_108_3246)">
<path fill-rule="evenodd" clip-rule="evenodd" d="M16.1416 15.5449L16.7816 17.6408C16.3125 17.6198 15.8656 17.7652 15.5065 18.0304L14.8665 15.9345C15.3357 15.9555 15.7826 15.8101 16.1416 15.5449ZM17.8456 18.0028C18.2188 18.2657 18.4925 18.6505 18.6182 19.0894L20.1542 17.9973C19.7809 17.7344 19.5073 17.3496 19.3815 16.9106L17.8456 18.0028ZM22.4932 17.9697L23.1332 20.0655C22.6641 20.0446 22.2172 20.19 21.8581 20.4551L21.2181 18.3593C21.6873 18.3803 22.1342 18.2349 22.4932 17.9697Z" fill="#FFDD18"/>
<path fill-rule="evenodd" clip-rule="evenodd" d="M14.2952 13.8252C14.2339 14.1882 14.4785 14.5322 14.8415 14.5936C15.2046 14.6549 15.5486 14.4102 15.6099 14.0472C15.6712 13.6841 15.4266 13.3401 15.0636 13.2788C14.7005 13.2175 14.3565 13.4621 14.2952 13.8252ZM12.9805 13.6032C12.7966 14.6923 13.5304 15.7244 14.6195 15.9083C15.7087 16.0922 16.7407 15.3584 16.9246 14.2692C17.1085 13.1801 16.3747 12.148 15.2856 11.9641C14.1964 11.7802 13.1644 12.514 12.9805 13.6032ZM20.6468 16.2499C20.5855 16.613 20.8301 16.957 21.1931 17.0183C21.5562 17.0796 21.9002 16.835 21.9615 16.472C22.0228 16.1089 21.7782 15.7649 21.4151 15.7036C21.0521 15.6423 20.7081 15.8869 20.6468 16.2499ZM19.3321 16.0279C19.1481 17.1171 19.882 18.1491 20.9711 18.333C22.0603 18.5169 23.0923 17.7831 23.2762 16.694C23.4601 15.6048 22.7263 14.5728 21.6372 14.3889C20.548 14.2049 19.516 14.9388 19.3321 16.0279ZM22.3882 21.9528C22.3269 22.3159 22.5715 22.6599 22.9346 22.7212C23.2976 22.7825 23.6416 22.5379 23.7029 22.1748C23.7642 21.8118 23.5196 21.4678 23.1566 21.4065C22.7935 21.3452 22.4495 21.5898 22.3882 21.9528ZM21.0735 21.7308C20.8896 22.82 21.6234 23.852 22.7126 24.0359C23.8017 24.2198 24.8337 23.486 25.0176 22.3969C25.2016 21.3077 24.4677 20.2757 23.3786 20.0918C22.2894 19.9078 21.2574 20.6417 21.0735 21.7308ZM16.583 20.2965C16.2199 20.2351 15.9753 19.8911 16.0366 19.5281C16.0979 19.165 16.4419 18.9204 16.805 18.9817C17.168 19.043 17.4126 19.387 17.3513 19.7501C17.29 20.1131 16.946 20.3578 16.583 20.2965ZM16.361 21.6112C15.2718 21.4273 14.538 20.3952 14.7219 19.3061C14.9058 18.2169 15.9378 17.4831 17.027 17.667C18.1161 17.8509 18.85 18.8829 18.666 19.9721C18.4821 21.0613 17.4501 21.7951 16.361 21.6112Z" fill="#FFDD18"/>
</g>
<defs>
<clipPath id="clip0_108_3246">
<rect width="16" height="16" fill="white" transform="translate(12.4434 8.77966) rotate(9.58466)"/>
</clipPath>
</defs>
</svg>
