<svg width="304" height="229" viewBox="0 0 304 229" fill="none" xmlns="http://www.w3.org/2000/svg">
<rect x="35.6924" y="31.0394" width="232.615" height="167.961" rx="8" fill="#2C3340" fill-opacity="0.93"/>
<g filter="url(#filter0_d_196_5144)">
<rect x="30.8457" y="22.7368" width="242.308" height="167.961" rx="8" fill="#2C3340"/>
</g>
<g filter="url(#filter1_d_196_5144)">
<rect x="26" y="13" width="252" height="167.961" rx="8" fill="#2C3340"/>
</g>
<path d="M51.3033 47.6517L58.9636 39.9913L60.1421 41.1698L51.3033 50.0086L46 44.7054L47.1785 43.5269L51.3033 47.6517Z" fill="white"/>
<path d="M81.5687 43H80.3358C80.2628 42.6454 80.1352 42.3338 79.9529 42.0653C79.774 41.7969 79.5552 41.5715 79.2967 41.3892C79.0415 41.2036 78.7581 41.0644 78.4466 40.9716C78.135 40.8788 77.8102 40.8324 77.4721 40.8324C76.8556 40.8324 76.2972 40.9882 75.7967 41.2997C75.2995 41.6113 74.9035 42.0703 74.6085 42.6768C74.3168 43.2834 74.171 44.0275 74.171 44.9091C74.171 45.7907 74.3168 46.5348 74.6085 47.1413C74.9035 47.7479 75.2995 48.2069 75.7967 48.5185C76.2972 48.83 76.8556 48.9858 77.4721 48.9858C77.8102 48.9858 78.135 48.9394 78.4466 48.8466C78.7581 48.7538 79.0415 48.6162 79.2967 48.4339C79.5552 48.2483 79.774 48.0213 79.9529 47.7528C80.1352 47.4811 80.2628 47.1695 80.3358 46.8182H81.5687C81.4759 47.3385 81.3069 47.8042 81.0616 48.2152C80.8163 48.6262 80.5114 48.9759 80.1468 49.2642C79.7823 49.5492 79.3729 49.7663 78.9189 49.9155C78.4681 50.0646 77.9859 50.1392 77.4721 50.1392C76.6038 50.1392 75.8315 49.9271 75.1554 49.5028C74.4792 49.0786 73.9473 48.4754 73.5595 47.6932C73.1717 46.911 72.9778 45.983 72.9778 44.9091C72.9778 43.8352 73.1717 42.9072 73.5595 42.125C73.9473 41.3428 74.4792 40.7396 75.1554 40.3153C75.8315 39.8911 76.6038 39.679 77.4721 39.679C77.9859 39.679 78.4681 39.7536 78.9189 39.9027C79.3729 40.0518 79.7823 40.2706 80.1468 40.5589C80.5114 40.844 80.8163 41.192 81.0616 41.603C81.3069 42.0107 81.4759 42.4763 81.5687 43ZM88.2145 46.8778V42.3636H89.3878V50H88.2145V48.7074H88.1349C87.956 49.0952 87.6776 49.425 87.2997 49.6967C86.9219 49.9652 86.4446 50.0994 85.8679 50.0994C85.3906 50.0994 84.9664 49.995 84.5952 49.7862C84.224 49.5741 83.9323 49.2559 83.7202 48.8317C83.508 48.4041 83.402 47.8655 83.402 47.2159V42.3636H84.5753V47.1364C84.5753 47.6932 84.7311 48.1373 85.0426 48.4688C85.3575 48.8002 85.7585 48.9659 86.2457 48.9659C86.5374 48.9659 86.834 48.8913 87.1357 48.7422C87.4406 48.593 87.6958 48.3643 87.9013 48.0561C88.1101 47.7479 88.2145 47.3551 88.2145 46.8778ZM96.9458 44.0739L95.8919 44.3722C95.8256 44.1965 95.7278 44.0258 95.5985 43.8601C95.4726 43.6911 95.3002 43.5518 95.0815 43.4425C94.8627 43.3331 94.5827 43.2784 94.2413 43.2784C93.774 43.2784 93.3845 43.3861 93.073 43.6016C92.7647 43.8137 92.6106 44.0838 92.6106 44.4119C92.6106 44.7036 92.7167 44.9339 92.9288 45.103C93.1409 45.272 93.4724 45.4129 93.9231 45.5256L95.0566 45.804C95.7394 45.9697 96.2482 46.2232 96.5829 46.5646C96.9177 46.9027 97.085 47.3385 97.085 47.8722C97.085 48.3097 96.9591 48.7008 96.7072 49.0455C96.4586 49.3902 96.1106 49.6619 95.6632 49.8608C95.2157 50.0597 94.6954 50.1591 94.1021 50.1591C93.3232 50.1591 92.6786 49.9901 92.1681 49.652C91.6577 49.3139 91.3346 48.8201 91.1987 48.1705L92.3123 47.892C92.4184 48.303 92.6189 48.6113 92.9139 48.8168C93.2122 49.0223 93.6016 49.125 94.0822 49.125C94.6291 49.125 95.0633 49.009 95.3848 48.777C95.7096 48.5417 95.872 48.2599 95.872 47.9318C95.872 47.6667 95.7792 47.4446 95.5936 47.2656C95.408 47.0833 95.1229 46.9474 94.7385 46.858L93.4657 46.5597C92.7664 46.3939 92.2527 46.1371 91.9245 45.7891C91.5997 45.4377 91.4373 44.9986 91.4373 44.4716C91.4373 44.0407 91.5583 43.6596 91.8002 43.3281C92.0455 42.9967 92.3786 42.7365 92.7995 42.5476C93.2238 42.3587 93.7044 42.2642 94.2413 42.2642C94.997 42.2642 95.5903 42.4299 96.0211 42.7614C96.4553 43.0928 96.7636 43.5303 96.9458 44.0739ZM102.172 42.3636V43.358H98.2148V42.3636H102.172ZM99.3683 40.5341H100.542V47.8125C100.542 48.1439 100.59 48.3925 100.686 48.5582C100.785 48.7206 100.911 48.83 101.064 48.8864C101.219 48.9394 101.383 48.9659 101.556 48.9659C101.685 48.9659 101.791 48.9593 101.874 48.946C101.957 48.9295 102.023 48.9162 102.073 48.9062L102.311 49.9602C102.232 49.9901 102.121 50.0199 101.978 50.0497C101.836 50.0829 101.655 50.0994 101.436 50.0994C101.105 50.0994 100.78 50.0282 100.462 49.8857C100.147 49.7431 99.8853 49.526 99.6765 49.2344C99.471 48.9427 99.3683 48.5748 99.3683 48.1307V40.5341ZM106.957 50.1591C106.268 50.1591 105.663 49.995 105.143 49.6669C104.626 49.3388 104.221 48.8797 103.93 48.2898C103.641 47.6998 103.497 47.0104 103.497 46.2216C103.497 45.4261 103.641 44.7318 103.93 44.1385C104.221 43.5452 104.626 43.0845 105.143 42.7564C105.663 42.4283 106.268 42.2642 106.957 42.2642C107.647 42.2642 108.25 42.4283 108.767 42.7564C109.287 43.0845 109.692 43.5452 109.98 44.1385C110.272 44.7318 110.418 45.4261 110.418 46.2216C110.418 47.0104 110.272 47.6998 109.98 48.2898C109.692 48.8797 109.287 49.3388 108.767 49.6669C108.25 49.995 107.647 50.1591 106.957 50.1591ZM106.957 49.1051C107.481 49.1051 107.912 48.9709 108.25 48.7024C108.588 48.4339 108.838 48.081 109.001 47.6435C109.163 47.206 109.244 46.732 109.244 46.2216C109.244 45.7112 109.163 45.2356 109.001 44.7947C108.838 44.3539 108.588 43.9976 108.25 43.7259C107.912 43.4541 107.481 43.3182 106.957 43.3182C106.434 43.3182 106.003 43.4541 105.665 43.7259C105.327 43.9976 105.076 44.3539 104.914 44.7947C104.752 45.2356 104.67 45.7112 104.67 46.2216C104.67 46.732 104.752 47.206 104.914 47.6435C105.076 48.081 105.327 48.4339 105.665 48.7024C106.003 48.9709 106.434 49.1051 106.957 49.1051ZM112.209 50V42.3636H113.342V43.5568H113.442C113.601 43.1491 113.858 42.8326 114.212 42.6072C114.567 42.3786 114.993 42.2642 115.49 42.2642C115.994 42.2642 116.413 42.3786 116.748 42.6072C117.086 42.8326 117.349 43.1491 117.538 43.5568H117.618C117.813 43.1624 118.107 42.8492 118.498 42.6172C118.889 42.3819 119.358 42.2642 119.905 42.2642C120.587 42.2642 121.146 42.478 121.58 42.9055C122.014 43.3298 122.231 43.991 122.231 44.8892V50H121.058V44.8892C121.058 44.3258 120.904 43.9231 120.596 43.6811C120.287 43.4392 119.925 43.3182 119.507 43.3182C118.97 43.3182 118.554 43.4806 118.259 43.8054C117.964 44.1269 117.817 44.5346 117.817 45.0284V50H116.623V44.7699C116.623 44.3357 116.483 43.986 116.201 43.7209C115.919 43.4524 115.556 43.3182 115.112 43.3182C114.807 43.3182 114.522 43.3994 114.257 43.5618C113.995 43.7242 113.783 43.9496 113.621 44.2379C113.461 44.523 113.382 44.8527 113.382 45.2273V50H112.209ZM130.044 50L127.718 42.3636H128.95L130.601 48.2102H130.681L132.311 42.3636H133.564L135.175 48.1903H135.254L136.905 42.3636H138.138L135.811 50H134.658L132.987 44.1335H132.868L131.198 50H130.044ZM142.631 50.1591C141.895 50.1591 141.261 49.9967 140.727 49.6719C140.197 49.3438 139.787 48.8864 139.499 48.2997C139.214 47.7098 139.071 47.0237 139.071 46.2415C139.071 45.4593 139.214 44.7699 139.499 44.1733C139.787 43.5734 140.188 43.1061 140.702 42.7713C141.219 42.4332 141.822 42.2642 142.512 42.2642C142.909 42.2642 143.302 42.3305 143.69 42.4631C144.078 42.5956 144.431 42.8111 144.749 43.1094C145.067 43.4044 145.321 43.7955 145.51 44.2827C145.699 44.7699 145.793 45.3698 145.793 46.0824V46.5795H139.907V45.5653H144.6C144.6 45.1345 144.514 44.75 144.341 44.4119C144.172 44.0739 143.93 43.8071 143.615 43.6115C143.304 43.416 142.936 43.3182 142.512 43.3182C142.044 43.3182 141.64 43.4342 141.299 43.6662C140.961 43.8949 140.7 44.1932 140.518 44.5611C140.336 44.929 140.245 45.3234 140.245 45.7443V46.4205C140.245 46.9972 140.344 47.486 140.543 47.8871C140.745 48.2848 141.025 48.5881 141.383 48.7969C141.741 49.0024 142.157 49.1051 142.631 49.1051C142.939 49.1051 143.218 49.062 143.466 48.9759C143.718 48.8864 143.935 48.7538 144.118 48.5781C144.3 48.3991 144.441 48.1771 144.54 47.9119L145.674 48.2301C145.554 48.6146 145.354 48.9527 145.072 49.2443C144.79 49.5327 144.442 49.758 144.028 49.9205C143.614 50.0795 143.148 50.1591 142.631 50.1591ZM147.737 50V39.8182H148.91V43.5767H149.01C149.096 43.4441 149.215 43.2751 149.368 43.0696C149.523 42.8608 149.745 42.6752 150.034 42.5128C150.325 42.3471 150.72 42.2642 151.217 42.2642C151.86 42.2642 152.427 42.425 152.917 42.7464C153.408 43.0679 153.791 43.5237 154.066 44.1136C154.341 44.7036 154.478 45.3996 154.478 46.2017C154.478 47.0104 154.341 47.7114 154.066 48.3047C153.791 48.8946 153.409 49.352 152.922 49.6768C152.435 49.9983 151.873 50.1591 151.237 50.1591C150.746 50.1591 150.354 50.0779 150.059 49.9155C149.764 49.7498 149.537 49.5625 149.377 49.3537C149.218 49.1416 149.096 48.9659 149.01 48.8267H148.87V50H147.737ZM148.89 46.1818C148.89 46.7585 148.975 47.2673 149.144 47.7081C149.313 48.1456 149.56 48.4886 149.885 48.7372C150.209 48.9825 150.607 49.1051 151.078 49.1051C151.568 49.1051 151.978 48.9759 152.306 48.7173C152.637 48.4555 152.886 48.1042 153.051 47.6634C153.221 47.2192 153.305 46.7254 153.305 46.1818C153.305 45.6449 153.222 45.161 153.056 44.7301C152.894 44.2959 152.647 43.9529 152.316 43.701C151.988 43.4458 151.575 43.3182 151.078 43.3182C150.6 43.3182 150.199 43.4392 149.875 43.6811C149.55 43.9197 149.305 44.2545 149.139 44.6854C148.973 45.1129 148.89 45.6117 148.89 46.1818ZM163.094 50.1591C162.458 50.1591 161.896 49.9983 161.409 49.6768C160.922 49.352 160.54 48.8946 160.265 48.3047C159.99 47.7114 159.853 47.0104 159.853 46.2017C159.853 45.3996 159.99 44.7036 160.265 44.1136C160.54 43.5237 160.923 43.0679 161.414 42.7464C161.904 42.425 162.471 42.2642 163.114 42.2642C163.611 42.2642 164.004 42.3471 164.292 42.5128C164.584 42.6752 164.806 42.8608 164.958 43.0696C165.114 43.2751 165.235 43.4441 165.321 43.5767H165.421V39.8182H166.594V50H165.461V48.8267H165.321C165.235 48.9659 165.113 49.1416 164.953 49.3537C164.794 49.5625 164.567 49.7498 164.272 49.9155C163.977 50.0779 163.585 50.1591 163.094 50.1591ZM163.253 49.1051C163.724 49.1051 164.122 48.9825 164.446 48.7372C164.771 48.4886 165.018 48.1456 165.187 47.7081C165.356 47.2673 165.441 46.7585 165.441 46.1818C165.441 45.6117 165.358 45.1129 165.192 44.6854C165.026 44.2545 164.781 43.9197 164.456 43.6811C164.132 43.4392 163.73 43.3182 163.253 43.3182C162.756 43.3182 162.342 43.4458 162.01 43.701C161.682 43.9529 161.435 44.2959 161.27 44.7301C161.107 45.161 161.026 45.6449 161.026 46.1818C161.026 46.7254 161.109 47.2192 161.275 47.6634C161.444 48.1042 161.692 48.4555 162.02 48.7173C162.352 48.9759 162.763 49.1051 163.253 49.1051ZM172.108 50.1591C171.372 50.1591 170.737 49.9967 170.203 49.6719C169.673 49.3438 169.264 48.8864 168.975 48.2997C168.69 47.7098 168.548 47.0237 168.548 46.2415C168.548 45.4593 168.69 44.7699 168.975 44.1733C169.264 43.5734 169.665 43.1061 170.179 42.7713C170.696 42.4332 171.299 42.2642 171.988 42.2642C172.386 42.2642 172.779 42.3305 173.167 42.4631C173.554 42.5956 173.907 42.8111 174.225 43.1094C174.544 43.4044 174.797 43.7955 174.986 44.2827C175.175 44.7699 175.27 45.3698 175.27 46.0824V46.5795H169.383V45.5653H174.076C174.076 45.1345 173.99 44.75 173.818 44.4119C173.649 44.0739 173.407 43.8071 173.092 43.6115C172.78 43.416 172.413 43.3182 171.988 43.3182C171.521 43.3182 171.117 43.4342 170.775 43.6662C170.437 43.8949 170.177 44.1932 169.995 44.5611C169.812 44.929 169.721 45.3234 169.721 45.7443V46.4205C169.721 46.9972 169.821 47.486 170.02 47.8871C170.222 48.2848 170.502 48.5881 170.86 48.7969C171.218 49.0024 171.634 49.1051 172.108 49.1051C172.416 49.1051 172.694 49.062 172.943 48.9759C173.195 48.8864 173.412 48.7538 173.594 48.5781C173.776 48.3991 173.917 48.1771 174.017 47.9119L175.15 48.2301C175.031 48.6146 174.83 48.9527 174.549 49.2443C174.267 49.5327 173.919 49.758 173.505 49.9205C173.09 50.0795 172.625 50.1591 172.108 50.1591ZM182.463 44.0739L181.409 44.3722C181.343 44.1965 181.245 44.0258 181.116 43.8601C180.99 43.6911 180.818 43.5518 180.599 43.4425C180.38 43.3331 180.1 43.2784 179.759 43.2784C179.292 43.2784 178.902 43.3861 178.591 43.6016C178.282 43.8137 178.128 44.0838 178.128 44.4119C178.128 44.7036 178.234 44.9339 178.446 45.103C178.658 45.272 178.99 45.4129 179.441 45.5256L180.574 45.804C181.257 45.9697 181.766 46.2232 182.1 46.5646C182.435 46.9027 182.603 47.3385 182.603 47.8722C182.603 48.3097 182.477 48.7008 182.225 49.0455C181.976 49.3902 181.628 49.6619 181.181 49.8608C180.733 50.0597 180.213 50.1591 179.62 50.1591C178.841 50.1591 178.196 49.9901 177.686 49.652C177.175 49.3139 176.852 48.8201 176.716 48.1705L177.83 47.892C177.936 48.303 178.136 48.6113 178.431 48.8168C178.73 49.0223 179.119 49.125 179.6 49.125C180.147 49.125 180.581 49.009 180.902 48.777C181.227 48.5417 181.39 48.2599 181.39 47.9318C181.39 47.6667 181.297 47.4446 181.111 47.2656C180.926 47.0833 180.641 46.9474 180.256 46.858L178.983 46.5597C178.284 46.3939 177.77 46.1371 177.442 45.7891C177.117 45.4377 176.955 44.9986 176.955 44.4716C176.955 44.0407 177.076 43.6596 177.318 43.3281C177.563 42.9967 177.896 42.7365 178.317 42.5476C178.741 42.3587 179.222 42.2642 179.759 42.2642C180.515 42.2642 181.108 42.4299 181.539 42.7614C181.973 43.0928 182.281 43.5303 182.463 44.0739ZM184.369 50V42.3636H185.542V50H184.369ZM184.965 41.0909C184.737 41.0909 184.539 41.013 184.374 40.8572C184.211 40.7015 184.13 40.5142 184.13 40.2955C184.13 40.0767 184.211 39.8894 184.374 39.7337C184.539 39.5779 184.737 39.5 184.965 39.5C185.194 39.5 185.39 39.5779 185.552 39.7337C185.718 39.8894 185.801 40.0767 185.801 40.2955C185.801 40.5142 185.718 40.7015 185.552 40.8572C185.39 41.013 185.194 41.0909 184.965 41.0909ZM190.773 53.0227C190.207 53.0227 189.719 52.9498 189.312 52.804C188.904 52.6615 188.564 52.4725 188.293 52.2372C188.024 52.0052 187.81 51.7566 187.651 51.4915L188.586 50.8352C188.692 50.9744 188.826 51.1335 188.989 51.3125C189.151 51.4948 189.373 51.6522 189.655 51.7848C189.94 51.9207 190.313 51.9886 190.773 51.9886C191.39 51.9886 191.899 51.8395 192.3 51.5412C192.701 51.2429 192.901 50.7756 192.901 50.1392V48.5881H192.802C192.716 48.7273 192.593 48.8996 192.434 49.1051C192.278 49.3073 192.053 49.4879 191.758 49.647C191.466 49.8028 191.072 49.8807 190.575 49.8807C189.958 49.8807 189.405 49.7348 188.914 49.4432C188.427 49.1515 188.041 48.7273 187.756 48.1705C187.474 47.6136 187.333 46.9375 187.333 46.142C187.333 45.3598 187.471 44.6787 187.746 44.0987C188.021 43.5154 188.404 43.0646 188.894 42.7464C189.385 42.425 189.951 42.2642 190.594 42.2642C191.092 42.2642 191.486 42.3471 191.778 42.5128C192.073 42.6752 192.298 42.8608 192.454 43.0696C192.613 43.2751 192.736 43.4441 192.822 43.5767H192.941V42.3636H194.075V50.2188C194.075 50.875 193.925 51.4086 193.627 51.8196C193.332 52.2339 192.934 52.5372 192.434 52.7294C191.937 52.925 191.383 53.0227 190.773 53.0227ZM190.734 48.8267C191.204 48.8267 191.602 48.719 191.927 48.5036C192.252 48.2881 192.499 47.9782 192.668 47.5739C192.837 47.1695 192.921 46.6856 192.921 46.1222C192.921 45.572 192.838 45.0864 192.673 44.6655C192.507 44.2446 192.262 43.9148 191.937 43.6761C191.612 43.4375 191.211 43.3182 190.734 43.3182C190.237 43.3182 189.822 43.4441 189.491 43.696C189.163 43.9479 188.916 44.286 188.75 44.7102C188.588 45.1345 188.506 45.6051 188.506 46.1222C188.506 46.6525 188.589 47.1214 188.755 47.5291C188.924 47.9335 189.173 48.2517 189.501 48.4837C189.832 48.7124 190.243 48.8267 190.734 48.8267ZM197.396 45.4062V50H196.222V42.3636H197.356V43.5568H197.455C197.634 43.169 197.906 42.8575 198.271 42.6222C198.635 42.3835 199.106 42.2642 199.683 42.2642C200.2 42.2642 200.652 42.3703 201.04 42.5824C201.428 42.7912 201.729 43.1094 201.945 43.5369C202.16 43.9612 202.268 44.4981 202.268 45.1477V50H201.094V45.2273C201.094 44.6274 200.939 44.16 200.627 43.8253C200.316 43.4872 199.888 43.3182 199.344 43.3182C198.97 43.3182 198.635 43.3994 198.34 43.5618C198.049 43.7242 197.818 43.9612 197.649 44.2727C197.48 44.5843 197.396 44.9621 197.396 45.4062ZM208.767 44.9091C208.767 43.6562 208.929 42.5045 209.254 41.4538C209.582 40.3999 210.05 39.4304 210.656 38.5455H211.69C211.452 38.8736 211.228 39.2779 211.019 39.7585C210.814 40.2358 210.633 40.7611 210.477 41.3345C210.321 41.9046 210.199 42.4946 210.109 43.1044C210.023 43.7143 209.98 44.3158 209.98 44.9091C209.98 45.6979 210.056 46.4983 210.209 47.3104C210.361 48.1224 210.567 48.8764 210.825 49.5724C211.084 50.2685 211.372 50.8352 211.69 51.2727H210.656C210.05 50.3878 209.582 49.42 209.254 48.3693C208.929 47.3153 208.767 46.1619 208.767 44.9091ZM220.262 39.8182H221.495V46.5597C221.495 47.2557 221.331 47.8771 221.003 48.424C220.678 48.9676 220.219 49.3968 219.626 49.7116C219.033 50.0232 218.337 50.179 217.538 50.179C216.739 50.179 216.043 50.0232 215.45 49.7116C214.857 49.3968 214.396 48.9676 214.068 48.424C213.743 47.8771 213.581 47.2557 213.581 46.5597V39.8182H214.814V46.4602C214.814 46.9574 214.923 47.3999 215.142 47.7876C215.36 48.1721 215.672 48.4754 216.076 48.6974C216.484 48.9162 216.971 49.0256 217.538 49.0256C218.105 49.0256 218.592 48.9162 219 48.6974C219.407 48.4754 219.719 48.1721 219.934 47.7876C220.153 47.3999 220.262 46.9574 220.262 46.4602V39.8182ZM225.191 39.8182V50H223.958V39.8182H225.191ZM231.103 39.3409L227.822 51.5312H226.748L230.029 39.3409H231.103ZM239.335 39.8182H240.568V46.5597C240.568 47.2557 240.404 47.8771 240.075 48.424C239.751 48.9676 239.292 49.3968 238.698 49.7116C238.105 50.0232 237.409 50.179 236.61 50.179C235.811 50.179 235.115 50.0232 234.522 49.7116C233.929 49.3968 233.468 48.9676 233.14 48.424C232.815 47.8771 232.653 47.2557 232.653 46.5597V39.8182H233.886V46.4602C233.886 46.9574 233.995 47.3999 234.214 47.7876C234.433 48.1721 234.744 48.4754 235.149 48.6974C235.556 48.9162 236.044 49.0256 236.61 49.0256C237.177 49.0256 237.664 48.9162 238.072 48.6974C238.48 48.4754 238.791 48.1721 239.007 47.7876C239.225 47.3999 239.335 46.9574 239.335 46.4602V39.8182ZM243.626 39.8182L246.251 44.054H246.331L248.956 39.8182H250.408L247.206 44.9091L250.408 50H248.956L246.331 45.8438H246.251L243.626 50H242.175L245.456 44.9091L242.175 39.8182H243.626ZM254.359 44.9091C254.359 46.1619 254.195 47.3153 253.867 48.3693C253.542 49.42 253.076 50.3878 252.47 51.2727H251.436C251.674 50.9446 251.896 50.5402 252.102 50.0597C252.311 49.5824 252.493 49.0587 252.649 48.4886C252.804 47.9152 252.925 47.3236 253.012 46.7138C253.101 46.1006 253.146 45.4991 253.146 44.9091C253.146 44.1203 253.07 43.3198 252.917 42.5078C252.765 41.6958 252.559 40.9418 252.301 40.2457C252.042 39.5497 251.754 38.983 251.436 38.5455H252.47C253.076 39.4304 253.542 40.3999 253.867 41.4538C254.195 42.5045 254.359 43.6562 254.359 44.9091Z" fill="#EBF5FF"/>
<path d="M51.3033 75.6517L58.9636 67.9913L60.1421 69.1698L51.3033 78.0086L46 72.7054L47.1785 71.5269L51.3033 75.6517Z" fill="white"/>
<path d="M81.5687 71H80.3358C80.2628 70.6454 80.1352 70.3338 79.9529 70.0653C79.774 69.7969 79.5552 69.5715 79.2967 69.3892C79.0415 69.2036 78.7581 69.0644 78.4466 68.9716C78.135 68.8788 77.8102 68.8324 77.4721 68.8324C76.8556 68.8324 76.2972 68.9882 75.7967 69.2997C75.2995 69.6113 74.9035 70.0703 74.6085 70.6768C74.3168 71.2834 74.171 72.0275 74.171 72.9091C74.171 73.7907 74.3168 74.5348 74.6085 75.1413C74.9035 75.7479 75.2995 76.2069 75.7967 76.5185C76.2972 76.83 76.8556 76.9858 77.4721 76.9858C77.8102 76.9858 78.135 76.9394 78.4466 76.8466C78.7581 76.7538 79.0415 76.6162 79.2967 76.4339C79.5552 76.2483 79.774 76.0213 79.9529 75.7528C80.1352 75.4811 80.2628 75.1695 80.3358 74.8182H81.5687C81.4759 75.3385 81.3069 75.8042 81.0616 76.2152C80.8163 76.6262 80.5114 76.9759 80.1468 77.2642C79.7823 77.5492 79.3729 77.7663 78.9189 77.9155C78.4681 78.0646 77.9859 78.1392 77.4721 78.1392C76.6038 78.1392 75.8315 77.9271 75.1554 77.5028C74.4792 77.0786 73.9473 76.4754 73.5595 75.6932C73.1717 74.911 72.9778 73.983 72.9778 72.9091C72.9778 71.8352 73.1717 70.9072 73.5595 70.125C73.9473 69.3428 74.4792 68.7396 75.1554 68.3153C75.8315 67.8911 76.6038 67.679 77.4721 67.679C77.9859 67.679 78.4681 67.7536 78.9189 67.9027C79.3729 68.0518 79.7823 68.2706 80.1468 68.5589C80.5114 68.844 80.8163 69.192 81.0616 69.603C81.3069 70.0107 81.4759 70.4763 81.5687 71ZM88.2145 74.8778V70.3636H89.3878V78H88.2145V76.7074H88.1349C87.956 77.0952 87.6776 77.425 87.2997 77.6967C86.9219 77.9652 86.4446 78.0994 85.8679 78.0994C85.3906 78.0994 84.9664 77.995 84.5952 77.7862C84.224 77.5741 83.9323 77.2559 83.7202 76.8317C83.508 76.4041 83.402 75.8655 83.402 75.2159V70.3636H84.5753V75.1364C84.5753 75.6932 84.7311 76.1373 85.0426 76.4688C85.3575 76.8002 85.7585 76.9659 86.2457 76.9659C86.5374 76.9659 86.834 76.8913 87.1357 76.7422C87.4406 76.593 87.6958 76.3643 87.9013 76.0561C88.1101 75.7479 88.2145 75.3551 88.2145 74.8778ZM96.9458 72.0739L95.8919 72.3722C95.8256 72.1965 95.7278 72.0258 95.5985 71.8601C95.4726 71.6911 95.3002 71.5518 95.0815 71.4425C94.8627 71.3331 94.5827 71.2784 94.2413 71.2784C93.774 71.2784 93.3845 71.3861 93.073 71.6016C92.7647 71.8137 92.6106 72.0838 92.6106 72.4119C92.6106 72.7036 92.7167 72.9339 92.9288 73.103C93.1409 73.272 93.4724 73.4129 93.9231 73.5256L95.0566 73.804C95.7394 73.9697 96.2482 74.2232 96.5829 74.5646C96.9177 74.9027 97.085 75.3385 97.085 75.8722C97.085 76.3097 96.9591 76.7008 96.7072 77.0455C96.4586 77.3902 96.1106 77.6619 95.6632 77.8608C95.2157 78.0597 94.6954 78.1591 94.1021 78.1591C93.3232 78.1591 92.6786 77.9901 92.1681 77.652C91.6577 77.3139 91.3346 76.8201 91.1987 76.1705L92.3123 75.892C92.4184 76.303 92.6189 76.6113 92.9139 76.8168C93.2122 77.0223 93.6016 77.125 94.0822 77.125C94.6291 77.125 95.0633 77.009 95.3848 76.777C95.7096 76.5417 95.872 76.2599 95.872 75.9318C95.872 75.6667 95.7792 75.4446 95.5936 75.2656C95.408 75.0833 95.1229 74.9474 94.7385 74.858L93.4657 74.5597C92.7664 74.3939 92.2527 74.1371 91.9245 73.7891C91.5997 73.4377 91.4373 72.9986 91.4373 72.4716C91.4373 72.0407 91.5583 71.6596 91.8002 71.3281C92.0455 70.9967 92.3786 70.7365 92.7995 70.5476C93.2238 70.3587 93.7044 70.2642 94.2413 70.2642C94.997 70.2642 95.5903 70.4299 96.0211 70.7614C96.4553 71.0928 96.7636 71.5303 96.9458 72.0739ZM102.172 70.3636V71.358H98.2148V70.3636H102.172ZM99.3683 68.5341H100.542V75.8125C100.542 76.1439 100.59 76.3925 100.686 76.5582C100.785 76.7206 100.911 76.83 101.064 76.8864C101.219 76.9394 101.383 76.9659 101.556 76.9659C101.685 76.9659 101.791 76.9593 101.874 76.946C101.957 76.9295 102.023 76.9162 102.073 76.9062L102.311 77.9602C102.232 77.9901 102.121 78.0199 101.978 78.0497C101.836 78.0829 101.655 78.0994 101.436 78.0994C101.105 78.0994 100.78 78.0282 100.462 77.8857C100.147 77.7431 99.8853 77.526 99.6765 77.2344C99.471 76.9427 99.3683 76.5748 99.3683 76.1307V68.5341ZM106.957 78.1591C106.268 78.1591 105.663 77.995 105.143 77.6669C104.626 77.3388 104.221 76.8797 103.93 76.2898C103.641 75.6998 103.497 75.0104 103.497 74.2216C103.497 73.4261 103.641 72.7318 103.93 72.1385C104.221 71.5452 104.626 71.0845 105.143 70.7564C105.663 70.4283 106.268 70.2642 106.957 70.2642C107.647 70.2642 108.25 70.4283 108.767 70.7564C109.287 71.0845 109.692 71.5452 109.98 72.1385C110.272 72.7318 110.418 73.4261 110.418 74.2216C110.418 75.0104 110.272 75.6998 109.98 76.2898C109.692 76.8797 109.287 77.3388 108.767 77.6669C108.25 77.995 107.647 78.1591 106.957 78.1591ZM106.957 77.1051C107.481 77.1051 107.912 76.9709 108.25 76.7024C108.588 76.4339 108.838 76.081 109.001 75.6435C109.163 75.206 109.244 74.732 109.244 74.2216C109.244 73.7112 109.163 73.2356 109.001 72.7947C108.838 72.3539 108.588 71.9976 108.25 71.7259C107.912 71.4541 107.481 71.3182 106.957 71.3182C106.434 71.3182 106.003 71.4541 105.665 71.7259C105.327 71.9976 105.076 72.3539 104.914 72.7947C104.752 73.2356 104.67 73.7112 104.67 74.2216C104.67 74.732 104.752 75.206 104.914 75.6435C105.076 76.081 105.327 76.4339 105.665 76.7024C106.003 76.9709 106.434 77.1051 106.957 77.1051ZM112.209 78V70.3636H113.342V71.5568H113.442C113.601 71.1491 113.858 70.8326 114.212 70.6072C114.567 70.3786 114.993 70.2642 115.49 70.2642C115.994 70.2642 116.413 70.3786 116.748 70.6072C117.086 70.8326 117.349 71.1491 117.538 71.5568H117.618C117.813 71.1624 118.107 70.8492 118.498 70.6172C118.889 70.3819 119.358 70.2642 119.905 70.2642C120.587 70.2642 121.146 70.478 121.58 70.9055C122.014 71.3298 122.231 71.991 122.231 72.8892V78H121.058V72.8892C121.058 72.3258 120.904 71.9231 120.596 71.6811C120.287 71.4392 119.925 71.3182 119.507 71.3182C118.97 71.3182 118.554 71.4806 118.259 71.8054C117.964 72.1269 117.817 72.5346 117.817 73.0284V78H116.623V72.7699C116.623 72.3357 116.483 71.986 116.201 71.7209C115.919 71.4524 115.556 71.3182 115.112 71.3182C114.807 71.3182 114.522 71.3994 114.257 71.5618C113.995 71.7242 113.783 71.9496 113.621 72.2379C113.461 72.523 113.382 72.8527 113.382 73.2273V78H112.209ZM130.044 78L127.718 70.3636H128.95L130.601 76.2102H130.681L132.311 70.3636H133.564L135.175 76.1903H135.254L136.905 70.3636H138.138L135.811 78H134.658L132.987 72.1335H132.868L131.198 78H130.044ZM142.631 78.1591C141.895 78.1591 141.261 77.9967 140.727 77.6719C140.197 77.3438 139.787 76.8864 139.499 76.2997C139.214 75.7098 139.071 75.0237 139.071 74.2415C139.071 73.4593 139.214 72.7699 139.499 72.1733C139.787 71.5734 140.188 71.1061 140.702 70.7713C141.219 70.4332 141.822 70.2642 142.512 70.2642C142.909 70.2642 143.302 70.3305 143.69 70.4631C144.078 70.5956 144.431 70.8111 144.749 71.1094C145.067 71.4044 145.321 71.7955 145.51 72.2827C145.699 72.7699 145.793 73.3698 145.793 74.0824V74.5795H139.907V73.5653H144.6C144.6 73.1345 144.514 72.75 144.341 72.4119C144.172 72.0739 143.93 71.8071 143.615 71.6115C143.304 71.416 142.936 71.3182 142.512 71.3182C142.044 71.3182 141.64 71.4342 141.299 71.6662C140.961 71.8949 140.7 72.1932 140.518 72.5611C140.336 72.929 140.245 73.3234 140.245 73.7443V74.4205C140.245 74.9972 140.344 75.486 140.543 75.8871C140.745 76.2848 141.025 76.5881 141.383 76.7969C141.741 77.0024 142.157 77.1051 142.631 77.1051C142.939 77.1051 143.218 77.062 143.466 76.9759C143.718 76.8864 143.935 76.7538 144.118 76.5781C144.3 76.3991 144.441 76.1771 144.54 75.9119L145.674 76.2301C145.554 76.6146 145.354 76.9527 145.072 77.2443C144.79 77.5327 144.442 77.758 144.028 77.9205C143.614 78.0795 143.148 78.1591 142.631 78.1591ZM147.737 78V67.8182H148.91V71.5767H149.01C149.096 71.4441 149.215 71.2751 149.368 71.0696C149.523 70.8608 149.745 70.6752 150.034 70.5128C150.325 70.3471 150.72 70.2642 151.217 70.2642C151.86 70.2642 152.427 70.425 152.917 70.7464C153.408 71.0679 153.791 71.5237 154.066 72.1136C154.341 72.7036 154.478 73.3996 154.478 74.2017C154.478 75.0104 154.341 75.7114 154.066 76.3047C153.791 76.8946 153.409 77.352 152.922 77.6768C152.435 77.9983 151.873 78.1591 151.237 78.1591C150.746 78.1591 150.354 78.0779 150.059 77.9155C149.764 77.7498 149.537 77.5625 149.377 77.3537C149.218 77.1416 149.096 76.9659 149.01 76.8267H148.87V78H147.737ZM148.89 74.1818C148.89 74.7585 148.975 75.2673 149.144 75.7081C149.313 76.1456 149.56 76.4886 149.885 76.7372C150.209 76.9825 150.607 77.1051 151.078 77.1051C151.568 77.1051 151.978 76.9759 152.306 76.7173C152.637 76.4555 152.886 76.1042 153.051 75.6634C153.221 75.2192 153.305 74.7254 153.305 74.1818C153.305 73.6449 153.222 73.161 153.056 72.7301C152.894 72.2959 152.647 71.9529 152.316 71.701C151.988 71.4458 151.575 71.3182 151.078 71.3182C150.6 71.3182 150.199 71.4392 149.875 71.6811C149.55 71.9197 149.305 72.2545 149.139 72.6854C148.973 73.1129 148.89 73.6117 148.89 74.1818ZM163.094 78.1591C162.458 78.1591 161.896 77.9983 161.409 77.6768C160.922 77.352 160.54 76.8946 160.265 76.3047C159.99 75.7114 159.853 75.0104 159.853 74.2017C159.853 73.3996 159.99 72.7036 160.265 72.1136C160.54 71.5237 160.923 71.0679 161.414 70.7464C161.904 70.425 162.471 70.2642 163.114 70.2642C163.611 70.2642 164.004 70.3471 164.292 70.5128C164.584 70.6752 164.806 70.8608 164.958 71.0696C165.114 71.2751 165.235 71.4441 165.321 71.5767H165.421V67.8182H166.594V78H165.461V76.8267H165.321C165.235 76.9659 165.113 77.1416 164.953 77.3537C164.794 77.5625 164.567 77.7498 164.272 77.9155C163.977 78.0779 163.585 78.1591 163.094 78.1591ZM163.253 77.1051C163.724 77.1051 164.122 76.9825 164.446 76.7372C164.771 76.4886 165.018 76.1456 165.187 75.7081C165.356 75.2673 165.441 74.7585 165.441 74.1818C165.441 73.6117 165.358 73.1129 165.192 72.6854C165.026 72.2545 164.781 71.9197 164.456 71.6811C164.132 71.4392 163.73 71.3182 163.253 71.3182C162.756 71.3182 162.342 71.4458 162.01 71.701C161.682 71.9529 161.435 72.2959 161.27 72.7301C161.107 73.161 161.026 73.6449 161.026 74.1818C161.026 74.7254 161.109 75.2192 161.275 75.6634C161.444 76.1042 161.692 76.4555 162.02 76.7173C162.352 76.9759 162.763 77.1051 163.253 77.1051ZM172.108 78.1591C171.372 78.1591 170.737 77.9967 170.203 77.6719C169.673 77.3438 169.264 76.8864 168.975 76.2997C168.69 75.7098 168.548 75.0237 168.548 74.2415C168.548 73.4593 168.69 72.7699 168.975 72.1733C169.264 71.5734 169.665 71.1061 170.179 70.7713C170.696 70.4332 171.299 70.2642 171.988 70.2642C172.386 70.2642 172.779 70.3305 173.167 70.4631C173.554 70.5956 173.907 70.8111 174.225 71.1094C174.544 71.4044 174.797 71.7955 174.986 72.2827C175.175 72.7699 175.27 73.3698 175.27 74.0824V74.5795H169.383V73.5653H174.076C174.076 73.1345 173.99 72.75 173.818 72.4119C173.649 72.0739 173.407 71.8071 173.092 71.6115C172.78 71.416 172.413 71.3182 171.988 71.3182C171.521 71.3182 171.117 71.4342 170.775 71.6662C170.437 71.8949 170.177 72.1932 169.995 72.5611C169.812 72.929 169.721 73.3234 169.721 73.7443V74.4205C169.721 74.9972 169.821 75.486 170.02 75.8871C170.222 76.2848 170.502 76.5881 170.86 76.7969C171.218 77.0024 171.634 77.1051 172.108 77.1051C172.416 77.1051 172.694 77.062 172.943 76.9759C173.195 76.8864 173.412 76.7538 173.594 76.5781C173.776 76.3991 173.917 76.1771 174.017 75.9119L175.15 76.2301C175.031 76.6146 174.83 76.9527 174.549 77.2443C174.267 77.5327 173.919 77.758 173.505 77.9205C173.09 78.0795 172.625 78.1591 172.108 78.1591ZM183.066 70.3636L180.242 78H179.049L176.225 70.3636H177.498L179.606 76.4489H179.686L181.794 70.3636H183.066ZM187.543 78.1591C186.807 78.1591 186.173 77.9967 185.639 77.6719C185.109 77.3438 184.699 76.8864 184.411 76.2997C184.126 75.7098 183.983 75.0237 183.983 74.2415C183.983 73.4593 184.126 72.7699 184.411 72.1733C184.699 71.5734 185.1 71.1061 185.614 70.7713C186.131 70.4332 186.734 70.2642 187.424 70.2642C187.822 70.2642 188.214 70.3305 188.602 70.4631C188.99 70.5956 189.343 70.8111 189.661 71.1094C189.979 71.4044 190.233 71.7955 190.422 72.2827C190.611 72.7699 190.705 73.3698 190.705 74.0824V74.5795H184.819V73.5653H189.512C189.512 73.1345 189.426 72.75 189.253 72.4119C189.084 72.0739 188.842 71.8071 188.528 71.6115C188.216 71.416 187.848 71.3182 187.424 71.3182C186.956 71.3182 186.552 71.4342 186.211 71.6662C185.873 71.8949 185.613 72.1932 185.43 72.5611C185.248 72.929 185.157 73.3234 185.157 73.7443V74.4205C185.157 74.9972 185.256 75.486 185.455 75.8871C185.657 76.2848 185.937 76.5881 186.295 76.7969C186.653 77.0024 187.069 77.1051 187.543 77.1051C187.851 77.1051 188.13 77.062 188.378 76.9759C188.63 76.8864 188.847 76.7538 189.03 76.5781C189.212 76.3991 189.353 76.1771 189.452 75.9119L190.586 76.2301C190.466 76.6146 190.266 76.9527 189.984 77.2443C189.702 77.5327 189.354 77.758 188.94 77.9205C188.526 78.0795 188.06 78.1591 187.543 78.1591ZM193.663 67.8182V78H192.49V67.8182H193.663ZM198.914 78.1591C198.225 78.1591 197.62 77.995 197.1 77.6669C196.583 77.3388 196.178 76.8797 195.887 76.2898C195.598 75.6998 195.454 75.0104 195.454 74.2216C195.454 73.4261 195.598 72.7318 195.887 72.1385C196.178 71.5452 196.583 71.0845 197.1 70.7564C197.62 70.4283 198.225 70.2642 198.914 70.2642C199.604 70.2642 200.207 70.4283 200.724 70.7564C201.244 71.0845 201.649 71.5452 201.937 72.1385C202.229 72.7318 202.375 73.4261 202.375 74.2216C202.375 75.0104 202.229 75.6998 201.937 76.2898C201.649 76.8797 201.244 77.3388 200.724 77.6669C200.207 77.995 199.604 78.1591 198.914 78.1591ZM198.914 77.1051C199.438 77.1051 199.869 76.9709 200.207 76.7024C200.545 76.4339 200.795 76.081 200.958 75.6435C201.12 75.206 201.201 74.732 201.201 74.2216C201.201 73.7112 201.12 73.2356 200.958 72.7947C200.795 72.3539 200.545 71.9976 200.207 71.7259C199.869 71.4541 199.438 71.3182 198.914 71.3182C198.391 71.3182 197.96 71.4541 197.622 71.7259C197.284 71.9976 197.033 72.3539 196.871 72.7947C196.709 73.2356 196.627 73.7112 196.627 74.2216C196.627 74.732 196.709 75.206 196.871 75.6435C197.033 76.081 197.284 76.4339 197.622 76.7024C197.96 76.9709 198.391 77.1051 198.914 77.1051ZM204.166 80.8636V70.3636H205.299V71.5767H205.438C205.525 71.4441 205.644 71.2751 205.796 71.0696C205.952 70.8608 206.174 70.6752 206.463 70.5128C206.754 70.3471 207.149 70.2642 207.646 70.2642C208.289 70.2642 208.856 70.425 209.346 70.7464C209.837 71.0679 210.219 71.5237 210.494 72.1136C210.77 72.7036 210.907 73.3996 210.907 74.2017C210.907 75.0104 210.77 75.7114 210.494 76.3047C210.219 76.8946 209.838 77.352 209.351 77.6768C208.864 77.9983 208.302 78.1591 207.666 78.1591C207.175 78.1591 206.782 78.0779 206.487 77.9155C206.192 77.7498 205.965 77.5625 205.806 77.3537C205.647 77.1416 205.525 76.9659 205.438 76.8267H205.339V80.8636H204.166ZM205.319 74.1818C205.319 74.7585 205.404 75.2673 205.573 75.7081C205.742 76.1456 205.989 76.4886 206.313 76.7372C206.638 76.9825 207.036 77.1051 207.507 77.1051C207.997 77.1051 208.406 76.9759 208.735 76.7173C209.066 76.4555 209.315 76.1042 209.48 75.6634C209.649 75.2192 209.734 74.7254 209.734 74.1818C209.734 73.6449 209.651 73.161 209.485 72.7301C209.323 72.2959 209.076 71.9529 208.744 71.701C208.416 71.4458 208.004 71.3182 207.507 71.3182C207.029 71.3182 206.628 71.4392 206.303 71.6811C205.979 71.9197 205.733 72.2545 205.568 72.6854C205.402 73.1129 205.319 73.6117 205.319 74.1818ZM212.697 78V70.3636H213.83V71.5568H213.93C214.089 71.1491 214.346 70.8326 214.7 70.6072C215.055 70.3786 215.481 70.2642 215.978 70.2642C216.482 70.2642 216.901 70.3786 217.236 70.6072C217.574 70.8326 217.838 71.1491 218.026 71.5568H218.106C218.302 71.1624 218.595 70.8492 218.986 70.6172C219.377 70.3819 219.846 70.2642 220.393 70.2642C221.076 70.2642 221.634 70.478 222.068 70.9055C222.503 71.3298 222.72 71.991 222.72 72.8892V78H221.546V72.8892C221.546 72.3258 221.392 71.9231 221.084 71.6811C220.776 71.4392 220.413 71.3182 219.995 71.3182C219.458 71.3182 219.042 71.4806 218.747 71.8054C218.452 72.1269 218.305 72.5346 218.305 73.0284V78H217.112V72.7699C217.112 72.3357 216.971 71.986 216.689 71.7209C216.407 71.4524 216.044 71.3182 215.6 71.3182C215.295 71.3182 215.01 71.3994 214.745 71.5618C214.483 71.7242 214.271 71.9496 214.109 72.2379C213.95 72.523 213.87 72.8527 213.87 73.2273V78H212.697ZM228.067 78.1591C227.331 78.1591 226.696 77.9967 226.162 77.6719C225.632 77.3438 225.223 76.8864 224.934 76.2997C224.649 75.7098 224.507 75.0237 224.507 74.2415C224.507 73.4593 224.649 72.7699 224.934 72.1733C225.223 71.5734 225.624 71.1061 226.138 70.7713C226.655 70.4332 227.258 70.2642 227.947 70.2642C228.345 70.2642 228.738 70.3305 229.126 70.4631C229.513 70.5956 229.866 70.8111 230.184 71.1094C230.503 71.4044 230.756 71.7955 230.945 72.2827C231.134 72.7699 231.229 73.3698 231.229 74.0824V74.5795H225.342V73.5653H230.035C230.035 73.1345 229.949 72.75 229.777 72.4119C229.608 72.0739 229.366 71.8071 229.051 71.6115C228.739 71.416 228.372 71.3182 227.947 71.3182C227.48 71.3182 227.076 71.4342 226.734 71.6662C226.396 71.8949 226.136 72.1932 225.954 72.5611C225.771 72.929 225.68 73.3234 225.68 73.7443V74.4205C225.68 74.9972 225.78 75.486 225.979 75.8871C226.181 76.2848 226.461 76.5881 226.819 76.7969C227.177 77.0024 227.593 77.1051 228.067 77.1051C228.375 77.1051 228.653 77.062 228.902 76.9759C229.154 76.8864 229.371 76.7538 229.553 76.5781C229.735 76.3991 229.876 76.1771 229.976 75.9119L231.109 76.2301C230.99 76.6146 230.789 76.9527 230.508 77.2443C230.226 77.5327 229.878 77.758 229.464 77.9205C229.049 78.0795 228.584 78.1591 228.067 78.1591ZM234.187 73.4062V78H233.013V70.3636H234.147V71.5568H234.246C234.425 71.169 234.697 70.8575 235.062 70.6222C235.426 70.3835 235.897 70.2642 236.474 70.2642C236.991 70.2642 237.443 70.3703 237.831 70.5824C238.219 70.7912 238.52 71.1094 238.736 71.5369C238.951 71.9612 239.059 72.4981 239.059 73.1477V78H237.885V73.2273C237.885 72.6274 237.73 72.16 237.418 71.8253C237.107 71.4872 236.679 71.3182 236.135 71.3182C235.761 71.3182 235.426 71.3994 235.131 71.5618C234.84 71.7242 234.609 71.9612 234.44 72.2727C234.271 72.5843 234.187 72.9621 234.187 73.4062ZM244.524 70.3636V71.358H240.566V70.3636H244.524ZM241.72 68.5341H242.893V75.8125C242.893 76.1439 242.941 76.3925 243.037 76.5582C243.137 76.7206 243.263 76.83 243.415 76.8864C243.571 76.9394 243.735 76.9659 243.907 76.9659C244.037 76.9659 244.143 76.9593 244.225 76.946C244.308 76.9295 244.375 76.9162 244.424 76.9062L244.663 77.9602C244.583 77.9901 244.472 78.0199 244.33 78.0497C244.187 78.0829 244.007 78.0994 243.788 78.0994C243.457 78.0994 243.132 78.0282 242.814 77.8857C242.499 77.7431 242.237 77.526 242.028 77.2344C241.823 76.9427 241.72 76.5748 241.72 76.1307V68.5341Z" fill="#EBF5FF"/>
<path d="M51.3033 103.652L58.9636 95.9913L60.1421 97.1698L51.3033 106.009L46 100.705L47.1785 99.5269L51.3033 103.652Z" fill="white"/>
<path d="M73.3755 106V95.8182H79.5204V96.9119H74.6085V100.352H79.2022V101.446H74.6085V104.906H79.6V106H73.3755ZM85.9586 101.088V102.182H81.5041V101.088H85.9586ZM91.1254 106.159C90.4094 106.159 89.793 105.99 89.2759 105.652C88.7589 105.314 88.3612 104.848 88.0827 104.255C87.8043 103.662 87.6651 102.984 87.6651 102.222C87.6651 101.446 87.8076 100.762 88.0927 100.168C88.381 99.5717 88.7821 99.1061 89.2958 98.7713C89.8129 98.4332 90.4161 98.2642 91.1055 98.2642C91.6424 98.2642 92.1263 98.3636 92.5572 98.5625C92.988 98.7614 93.341 99.0398 93.6161 99.3977C93.8912 99.7557 94.0619 100.173 94.1282 100.651H92.9549C92.8654 100.303 92.6665 99.9943 92.3583 99.7259C92.0534 99.4541 91.6424 99.3182 91.1254 99.3182C90.668 99.3182 90.2669 99.4375 89.9222 99.6761C89.5808 99.9115 89.314 100.245 89.1218 100.675C88.9329 101.103 88.8384 101.605 88.8384 102.182C88.8384 102.772 88.9312 103.286 89.1168 103.723C89.3058 104.161 89.5709 104.5 89.9123 104.742C90.257 104.984 90.6613 105.105 91.1254 105.105C91.4303 105.105 91.707 105.052 91.9556 104.946C92.2042 104.84 92.4147 104.688 92.587 104.489C92.7594 104.29 92.882 104.051 92.9549 103.773H94.1282C94.0619 104.223 93.8978 104.629 93.636 104.991C93.3775 105.349 93.0344 105.634 92.6069 105.846C92.1826 106.055 91.6888 106.159 91.1254 106.159ZM98.9457 106.159C98.2563 106.159 97.6514 105.995 97.131 105.667C96.614 105.339 96.2096 104.88 95.918 104.29C95.6296 103.7 95.4854 103.01 95.4854 102.222C95.4854 101.426 95.6296 100.732 95.918 100.138C96.2096 99.5452 96.614 99.0845 97.131 98.7564C97.6514 98.4283 98.2563 98.2642 98.9457 98.2642C99.6351 98.2642 100.238 98.4283 100.755 98.7564C101.276 99.0845 101.68 99.5452 101.968 100.138C102.26 100.732 102.406 101.426 102.406 102.222C102.406 103.01 102.26 103.7 101.968 104.29C101.68 104.88 101.276 105.339 100.755 105.667C100.238 105.995 99.6351 106.159 98.9457 106.159ZM98.9457 105.105C99.4693 105.105 99.9002 104.971 100.238 104.702C100.576 104.434 100.827 104.081 100.989 103.643C101.151 103.206 101.233 102.732 101.233 102.222C101.233 101.711 101.151 101.236 100.989 100.795C100.827 100.354 100.576 99.9976 100.238 99.7259C99.9002 99.4541 99.4693 99.3182 98.9457 99.3182C98.422 99.3182 97.9911 99.4541 97.6531 99.7259C97.315 99.9976 97.0647 100.354 96.9023 100.795C96.7399 101.236 96.6587 101.711 96.6587 102.222C96.6587 102.732 96.7399 103.206 96.9023 103.643C97.0647 104.081 97.315 104.434 97.6531 104.702C97.9911 104.971 98.422 105.105 98.9457 105.105ZM104.197 106V98.3636H105.33V99.5568H105.43C105.589 99.1491 105.846 98.8326 106.2 98.6072C106.555 98.3786 106.981 98.2642 107.478 98.2642C107.982 98.2642 108.401 98.3786 108.736 98.6072C109.074 98.8326 109.338 99.1491 109.526 99.5568H109.606C109.802 99.1624 110.095 98.8492 110.486 98.6172C110.877 98.3819 111.346 98.2642 111.893 98.2642C112.576 98.2642 113.134 98.478 113.568 98.9055C114.003 99.3298 114.22 99.991 114.22 100.889V106H113.046V100.889C113.046 100.326 112.892 99.9231 112.584 99.6811C112.276 99.4392 111.913 99.3182 111.495 99.3182C110.958 99.3182 110.542 99.4806 110.247 99.8054C109.952 100.127 109.805 100.535 109.805 101.028V106H108.612V100.77C108.612 100.336 108.471 99.986 108.189 99.7209C107.907 99.4524 107.544 99.3182 107.1 99.3182C106.795 99.3182 106.51 99.3994 106.245 99.5618C105.983 99.7242 105.771 99.9496 105.609 100.238C105.45 100.523 105.37 100.853 105.37 101.227V106H104.197ZM116.365 106V98.3636H117.498V99.5568H117.598C117.757 99.1491 118.014 98.8326 118.368 98.6072C118.723 98.3786 119.149 98.2642 119.646 98.2642C120.15 98.2642 120.569 98.3786 120.904 98.6072C121.242 98.8326 121.506 99.1491 121.694 99.5568H121.774C121.97 99.1624 122.263 98.8492 122.654 98.6172C123.045 98.3819 123.514 98.2642 124.061 98.2642C124.744 98.2642 125.302 98.478 125.736 98.9055C126.171 99.3298 126.388 99.991 126.388 100.889V106H125.214V100.889C125.214 100.326 125.06 99.9231 124.752 99.6811C124.444 99.4392 124.081 99.3182 123.663 99.3182C123.126 99.3182 122.71 99.4806 122.415 99.8054C122.12 100.127 121.973 100.535 121.973 101.028V106H120.78V100.77C120.78 100.336 120.639 99.986 120.357 99.7209C120.075 99.4524 119.712 99.3182 119.268 99.3182C118.963 99.3182 118.678 99.3994 118.413 99.5618C118.151 99.7242 117.939 99.9496 117.777 100.238C117.618 100.523 117.538 100.853 117.538 101.227V106H116.365ZM131.735 106.159C130.999 106.159 130.364 105.997 129.83 105.672C129.3 105.344 128.891 104.886 128.602 104.3C128.317 103.71 128.175 103.024 128.175 102.241C128.175 101.459 128.317 100.77 128.602 100.173C128.891 99.5734 129.292 99.1061 129.806 98.7713C130.323 98.4332 130.926 98.2642 131.615 98.2642C132.013 98.2642 132.406 98.3305 132.794 98.4631C133.181 98.5956 133.534 98.8111 133.852 99.1094C134.171 99.4044 134.424 99.7955 134.613 100.283C134.802 100.77 134.896 101.37 134.896 102.082V102.58H129.01V101.565H133.703C133.703 101.134 133.617 100.75 133.445 100.412C133.276 100.074 133.034 99.8071 132.719 99.6115C132.407 99.416 132.039 99.3182 131.615 99.3182C131.148 99.3182 130.744 99.4342 130.402 99.6662C130.064 99.8949 129.804 100.193 129.622 100.561C129.439 100.929 129.348 101.323 129.348 101.744V102.42C129.348 102.997 129.448 103.486 129.646 103.887C129.849 104.285 130.129 104.588 130.487 104.797C130.845 105.002 131.261 105.105 131.735 105.105C132.043 105.105 132.321 105.062 132.57 104.976C132.822 104.886 133.039 104.754 133.221 104.578C133.403 104.399 133.544 104.177 133.644 103.912L134.777 104.23C134.658 104.615 134.457 104.953 134.176 105.244C133.894 105.533 133.546 105.758 133.132 105.92C132.717 106.08 132.252 106.159 131.735 106.159ZM136.681 106V98.3636H137.815V99.517H137.894C138.034 99.1392 138.285 98.8326 138.65 98.5973C139.015 98.362 139.426 98.2443 139.883 98.2443C139.969 98.2443 140.077 98.246 140.206 98.2493C140.335 98.2526 140.433 98.2576 140.499 98.2642V99.4574C140.46 99.4474 140.369 99.4325 140.226 99.4126C140.087 99.3894 139.939 99.3778 139.784 99.3778C139.412 99.3778 139.081 99.4557 138.789 99.6115C138.501 99.764 138.272 99.9761 138.103 100.248C137.937 100.516 137.855 100.823 137.855 101.168V106H136.681ZM144.76 106.159C144.044 106.159 143.428 105.99 142.911 105.652C142.394 105.314 141.996 104.848 141.718 104.255C141.439 103.662 141.3 102.984 141.3 102.222C141.3 101.446 141.442 100.762 141.727 100.168C142.016 99.5717 142.417 99.1061 142.931 98.7713C143.448 98.4332 144.051 98.2642 144.74 98.2642C145.277 98.2642 145.761 98.3636 146.192 98.5625C146.623 98.7614 146.976 99.0398 147.251 99.3977C147.526 99.7557 147.697 100.173 147.763 100.651H146.59C146.5 100.303 146.301 99.9943 145.993 99.7259C145.688 99.4541 145.277 99.3182 144.76 99.3182C144.303 99.3182 143.902 99.4375 143.557 99.6761C143.216 99.9115 142.949 100.245 142.757 100.675C142.568 101.103 142.473 101.605 142.473 102.182C142.473 102.772 142.566 103.286 142.752 103.723C142.941 104.161 143.206 104.5 143.547 104.742C143.892 104.984 144.296 105.105 144.76 105.105C145.065 105.105 145.342 105.052 145.59 104.946C145.839 104.84 146.049 104.688 146.222 104.489C146.394 104.29 146.517 104.051 146.59 103.773H147.763C147.697 104.223 147.533 104.629 147.271 104.991C147.012 105.349 146.669 105.634 146.242 105.846C145.817 106.055 145.324 106.159 144.76 106.159ZM152.68 106.159C151.944 106.159 151.309 105.997 150.776 105.672C150.245 105.344 149.836 104.886 149.548 104.3C149.263 103.71 149.12 103.024 149.12 102.241C149.12 101.459 149.263 100.77 149.548 100.173C149.836 99.5734 150.237 99.1061 150.751 98.7713C151.268 98.4332 151.871 98.2642 152.561 98.2642C152.958 98.2642 153.351 98.3305 153.739 98.4631C154.127 98.5956 154.48 98.8111 154.798 99.1094C155.116 99.4044 155.369 99.7955 155.558 100.283C155.747 100.77 155.842 101.37 155.842 102.082V102.58H149.955V101.565H154.649C154.649 101.134 154.562 100.75 154.39 100.412C154.221 100.074 153.979 99.8071 153.664 99.6115C153.353 99.416 152.985 99.3182 152.561 99.3182C152.093 99.3182 151.689 99.4342 151.347 99.6662C151.009 99.8949 150.749 100.193 150.567 100.561C150.385 100.929 150.294 101.323 150.294 101.744V102.42C150.294 102.997 150.393 103.486 150.592 103.887C150.794 104.285 151.074 104.588 151.432 104.797C151.79 105.002 152.206 105.105 152.68 105.105C152.988 105.105 153.267 105.062 153.515 104.976C153.767 104.886 153.984 104.754 154.166 104.578C154.349 104.399 154.49 104.177 154.589 103.912L155.722 104.23C155.603 104.615 155.403 104.953 155.121 105.244C154.839 105.533 154.491 105.758 154.077 105.92C153.663 106.08 153.197 106.159 152.68 106.159ZM166.973 100.074L165.919 100.372C165.853 100.196 165.755 100.026 165.626 99.8601C165.5 99.6911 165.328 99.5518 165.109 99.4425C164.89 99.3331 164.61 99.2784 164.269 99.2784C163.801 99.2784 163.412 99.3861 163.1 99.6016C162.792 99.8137 162.638 100.084 162.638 100.412C162.638 100.704 162.744 100.934 162.956 101.103C163.168 101.272 163.5 101.413 163.95 101.526L165.084 101.804C165.767 101.97 166.276 102.223 166.61 102.565C166.945 102.903 167.112 103.339 167.112 103.872C167.112 104.31 166.986 104.701 166.735 105.045C166.486 105.39 166.138 105.662 165.691 105.861C165.243 106.06 164.723 106.159 164.129 106.159C163.351 106.159 162.706 105.99 162.195 105.652C161.685 105.314 161.362 104.82 161.226 104.17L162.34 103.892C162.446 104.303 162.646 104.611 162.941 104.817C163.24 105.022 163.629 105.125 164.11 105.125C164.656 105.125 165.091 105.009 165.412 104.777C165.737 104.542 165.899 104.26 165.899 103.932C165.899 103.667 165.807 103.445 165.621 103.266C165.435 103.083 165.15 102.947 164.766 102.858L163.493 102.56C162.794 102.394 162.28 102.137 161.952 101.789C161.627 101.438 161.465 100.999 161.465 100.472C161.465 100.041 161.586 99.6596 161.828 99.3281C162.073 98.9967 162.406 98.7365 162.827 98.5476C163.251 98.3587 163.732 98.2642 164.269 98.2642C165.024 98.2642 165.618 98.4299 166.048 98.7614C166.483 99.0928 166.791 99.5303 166.973 100.074ZM171.981 106.159C171.291 106.159 170.687 105.995 170.166 105.667C169.649 105.339 169.245 104.88 168.953 104.29C168.665 103.7 168.521 103.01 168.521 102.222C168.521 101.426 168.665 100.732 168.953 100.138C169.245 99.5452 169.649 99.0845 170.166 98.7564C170.687 98.4283 171.291 98.2642 171.981 98.2642C172.67 98.2642 173.273 98.4283 173.79 98.7564C174.311 99.0845 174.715 99.5452 175.004 100.138C175.295 100.732 175.441 101.426 175.441 102.222C175.441 103.01 175.295 103.7 175.004 104.29C174.715 104.88 174.311 105.339 173.79 105.667C173.273 105.995 172.67 106.159 171.981 106.159ZM171.981 105.105C172.504 105.105 172.935 104.971 173.273 104.702C173.612 104.434 173.862 104.081 174.024 103.643C174.187 103.206 174.268 102.732 174.268 102.222C174.268 101.711 174.187 101.236 174.024 100.795C173.862 100.354 173.612 99.9976 173.273 99.7259C172.935 99.4541 172.504 99.3182 171.981 99.3182C171.457 99.3182 171.026 99.4541 170.688 99.7259C170.35 99.9976 170.1 100.354 169.938 100.795C169.775 101.236 169.694 101.711 169.694 102.222C169.694 102.732 169.775 103.206 169.938 103.643C170.1 104.081 170.35 104.434 170.688 104.702C171.026 104.971 171.457 105.105 171.981 105.105ZM178.405 95.8182V106H177.232V95.8182H178.405ZM185.367 102.878V98.3636H186.54V106H185.367V104.707H185.287C185.108 105.095 184.83 105.425 184.452 105.697C184.074 105.965 183.597 106.099 183.02 106.099C182.543 106.099 182.119 105.995 181.748 105.786C181.376 105.574 181.085 105.256 180.873 104.832C180.66 104.404 180.554 103.866 180.554 103.216V98.3636H181.728V103.136C181.728 103.693 181.883 104.137 182.195 104.469C182.51 104.8 182.911 104.966 183.398 104.966C183.69 104.966 183.986 104.891 184.288 104.742C184.593 104.593 184.848 104.364 185.054 104.056C185.262 103.748 185.367 103.355 185.367 102.878ZM192.01 98.3636V99.358H188.053V98.3636H192.01ZM189.206 96.5341H190.379V103.812C190.379 104.144 190.427 104.393 190.524 104.558C190.623 104.721 190.749 104.83 190.901 104.886C191.057 104.939 191.221 104.966 191.394 104.966C191.523 104.966 191.629 104.959 191.712 104.946C191.795 104.929 191.861 104.916 191.911 104.906L192.149 105.96C192.07 105.99 191.959 106.02 191.816 106.05C191.674 106.083 191.493 106.099 191.274 106.099C190.943 106.099 190.618 106.028 190.3 105.886C189.985 105.743 189.723 105.526 189.514 105.234C189.309 104.943 189.206 104.575 189.206 104.131V96.5341ZM193.775 106V98.3636H194.948V106H193.775ZM194.372 97.0909C194.143 97.0909 193.946 97.013 193.78 96.8572C193.618 96.7015 193.536 96.5142 193.536 96.2955C193.536 96.0767 193.618 95.8894 193.78 95.7337C193.946 95.5779 194.143 95.5 194.372 95.5C194.6 95.5 194.796 95.5779 194.958 95.7337C195.124 95.8894 195.207 96.0767 195.207 96.2955C195.207 96.5142 195.124 96.7015 194.958 96.8572C194.796 97.013 194.6 97.0909 194.372 97.0909ZM200.2 106.159C199.51 106.159 198.905 105.995 198.385 105.667C197.868 105.339 197.464 104.88 197.172 104.29C196.884 103.7 196.739 103.01 196.739 102.222C196.739 101.426 196.884 100.732 197.172 100.138C197.464 99.5452 197.868 99.0845 198.385 98.7564C198.905 98.4283 199.51 98.2642 200.2 98.2642C200.889 98.2642 201.492 98.4283 202.009 98.7564C202.53 99.0845 202.934 99.5452 203.222 100.138C203.514 100.732 203.66 101.426 203.66 102.222C203.66 103.01 203.514 103.7 203.222 104.29C202.934 104.88 202.53 105.339 202.009 105.667C201.492 105.995 200.889 106.159 200.2 106.159ZM200.2 105.105C200.723 105.105 201.154 104.971 201.492 104.702C201.83 104.434 202.08 104.081 202.243 103.643C202.405 103.206 202.487 102.732 202.487 102.222C202.487 101.711 202.405 101.236 202.243 100.795C202.08 100.354 201.83 99.9976 201.492 99.7259C201.154 99.4541 200.723 99.3182 200.2 99.3182C199.676 99.3182 199.245 99.4541 198.907 99.7259C198.569 99.9976 198.319 100.354 198.156 100.795C197.994 101.236 197.913 101.711 197.913 102.222C197.913 102.732 197.994 103.206 198.156 103.643C198.319 104.081 198.569 104.434 198.907 104.702C199.245 104.971 199.676 105.105 200.2 105.105ZM206.624 101.406V106H205.451V98.3636H206.584V99.5568H206.684C206.863 99.169 207.135 98.8575 207.499 98.6222C207.864 98.3835 208.334 98.2642 208.911 98.2642C209.428 98.2642 209.881 98.3703 210.268 98.5824C210.656 98.7912 210.958 99.1094 211.173 99.5369C211.389 99.9612 211.496 100.498 211.496 101.148V106H210.323V101.227C210.323 100.627 210.167 100.16 209.856 99.8253C209.544 99.4872 209.117 99.3182 208.573 99.3182C208.198 99.3182 207.864 99.3994 207.569 99.5618C207.277 99.7242 207.047 99.9612 206.878 100.273C206.709 100.584 206.624 100.962 206.624 101.406ZM219.049 100.074L217.995 100.372C217.929 100.196 217.831 100.026 217.702 99.8601C217.576 99.6911 217.404 99.5518 217.185 99.4425C216.966 99.3331 216.686 99.2784 216.345 99.2784C215.877 99.2784 215.488 99.3861 215.176 99.6016C214.868 99.8137 214.714 100.084 214.714 100.412C214.714 100.704 214.82 100.934 215.032 101.103C215.244 101.272 215.576 101.413 216.027 101.526L217.16 101.804C217.843 101.97 218.352 102.223 218.686 102.565C219.021 102.903 219.189 103.339 219.189 103.872C219.189 104.31 219.063 104.701 218.811 105.045C218.562 105.39 218.214 105.662 217.767 105.861C217.319 106.06 216.799 106.159 216.206 106.159C215.427 106.159 214.782 105.99 214.272 105.652C213.761 105.314 213.438 104.82 213.302 104.17L214.416 103.892C214.522 104.303 214.722 104.611 215.017 104.817C215.316 105.022 215.705 105.125 216.186 105.125C216.733 105.125 217.167 105.009 217.488 104.777C217.813 104.542 217.975 104.26 217.975 103.932C217.975 103.667 217.883 103.445 217.697 103.266C217.511 103.083 217.226 102.947 216.842 102.858L215.569 102.56C214.87 102.394 214.356 102.137 214.028 101.789C213.703 101.438 213.541 100.999 213.541 100.472C213.541 100.041 213.662 99.6596 213.904 99.3281C214.149 98.9967 214.482 98.7365 214.903 98.5476C215.327 98.3587 215.808 98.2642 216.345 98.2642C217.1 98.2642 217.694 98.4299 218.125 98.7614C218.559 99.0928 218.867 99.5303 219.049 100.074Z" fill="#EBF5FF"/>
<path d="M51.3033 131.652L58.9636 123.991L60.1421 125.17L51.3033 134.009L46 128.705L47.1785 127.527L51.3033 131.652Z" fill="white"/>
<path d="M81.5687 127H80.3358C80.2628 126.645 80.1352 126.334 79.9529 126.065C79.774 125.797 79.5552 125.571 79.2967 125.389C79.0415 125.204 78.7581 125.064 78.4466 124.972C78.135 124.879 77.8102 124.832 77.4721 124.832C76.8556 124.832 76.2972 124.988 75.7967 125.3C75.2995 125.611 74.9035 126.07 74.6085 126.677C74.3168 127.283 74.171 128.027 74.171 128.909C74.171 129.791 74.3168 130.535 74.6085 131.141C74.9035 131.748 75.2995 132.207 75.7967 132.518C76.2972 132.83 76.8556 132.986 77.4721 132.986C77.8102 132.986 78.135 132.939 78.4466 132.847C78.7581 132.754 79.0415 132.616 79.2967 132.434C79.5552 132.248 79.774 132.021 79.9529 131.753C80.1352 131.481 80.2628 131.17 80.3358 130.818H81.5687C81.4759 131.339 81.3069 131.804 81.0616 132.215C80.8163 132.626 80.5114 132.976 80.1468 133.264C79.7823 133.549 79.3729 133.766 78.9189 133.915C78.4681 134.065 77.9859 134.139 77.4721 134.139C76.6038 134.139 75.8315 133.927 75.1554 133.503C74.4792 133.079 73.9473 132.475 73.5595 131.693C73.1717 130.911 72.9778 129.983 72.9778 128.909C72.9778 127.835 73.1717 126.907 73.5595 126.125C73.9473 125.343 74.4792 124.74 75.1554 124.315C75.8315 123.891 76.6038 123.679 77.4721 123.679C77.9859 123.679 78.4681 123.754 78.9189 123.903C79.3729 124.052 79.7823 124.271 80.1468 124.559C80.5114 124.844 80.8163 125.192 81.0616 125.603C81.3069 126.011 81.4759 126.476 81.5687 127ZM83.5611 123.818H85.0327L88.4929 132.27H88.6122L92.0724 123.818H93.544V134H92.3906V126.264H92.2912L89.1094 134H87.9957L84.8139 126.264H84.7145V134H83.5611V123.818ZM101.584 126.364C101.525 125.86 101.283 125.469 100.858 125.19C100.434 124.912 99.9139 124.773 99.2974 124.773C98.8467 124.773 98.4522 124.846 98.1142 124.991C97.7794 125.137 97.5176 125.338 97.3287 125.593C97.1431 125.848 97.0502 126.138 97.0502 126.463C97.0502 126.735 97.1149 126.969 97.2441 127.164C97.3767 127.356 97.5458 127.517 97.7512 127.646C97.9567 127.772 98.1722 127.877 98.3975 127.96C98.6229 128.039 98.8301 128.104 99.019 128.153L100.053 128.432C100.318 128.501 100.613 128.598 100.938 128.72C101.266 128.843 101.579 129.01 101.878 129.222C102.179 129.431 102.428 129.7 102.623 130.028C102.819 130.356 102.917 130.759 102.917 131.236C102.917 131.786 102.773 132.283 102.484 132.727C102.199 133.171 101.782 133.524 101.231 133.786C100.684 134.048 100.02 134.179 99.2377 134.179C98.5086 134.179 97.8772 134.061 97.3436 133.826C96.8133 133.591 96.3957 133.263 96.0907 132.842C95.7891 132.421 95.6184 131.932 95.5787 131.375H96.8514C96.8845 131.759 97.0138 132.078 97.2392 132.33C97.4679 132.578 97.7562 132.764 98.1042 132.886C98.4556 133.006 98.8334 133.065 99.2377 133.065C99.7084 133.065 100.131 132.989 100.506 132.837C100.88 132.681 101.177 132.465 101.395 132.19C101.614 131.912 101.724 131.587 101.724 131.216C101.724 130.878 101.629 130.603 101.44 130.391C101.251 130.179 101.003 130.006 100.694 129.874C100.386 129.741 100.053 129.625 99.6951 129.526L98.4423 129.168C97.6468 128.939 97.0171 128.612 96.5531 128.188C96.0891 127.764 95.8571 127.209 95.8571 126.523C95.8571 125.953 96.0112 125.455 96.3194 125.031C96.631 124.604 97.0486 124.272 97.5723 124.037C98.0993 123.798 98.6876 123.679 99.3372 123.679C99.9934 123.679 100.577 123.797 101.087 124.032C101.598 124.264 102.002 124.582 102.3 124.987C102.602 125.391 102.761 125.85 102.778 126.364H101.584ZM114.131 128.074L113.077 128.372C113.011 128.196 112.913 128.026 112.784 127.86C112.658 127.691 112.486 127.552 112.267 127.442C112.048 127.333 111.768 127.278 111.427 127.278C110.96 127.278 110.57 127.386 110.259 127.602C109.95 127.814 109.796 128.084 109.796 128.412C109.796 128.704 109.902 128.934 110.114 129.103C110.326 129.272 110.658 129.413 111.109 129.526L112.242 129.804C112.925 129.97 113.434 130.223 113.768 130.565C114.103 130.903 114.271 131.339 114.271 131.872C114.271 132.31 114.145 132.701 113.893 133.045C113.644 133.39 113.296 133.662 112.849 133.861C112.401 134.06 111.881 134.159 111.288 134.159C110.509 134.159 109.864 133.99 109.354 133.652C108.843 133.314 108.52 132.82 108.384 132.17L109.498 131.892C109.604 132.303 109.804 132.611 110.099 132.817C110.398 133.022 110.787 133.125 111.268 133.125C111.815 133.125 112.249 133.009 112.57 132.777C112.895 132.542 113.058 132.26 113.058 131.932C113.058 131.667 112.965 131.445 112.779 131.266C112.594 131.083 112.308 130.947 111.924 130.858L110.651 130.56C109.952 130.394 109.438 130.137 109.11 129.789C108.785 129.438 108.623 128.999 108.623 128.472C108.623 128.041 108.744 127.66 108.986 127.328C109.231 126.997 109.564 126.737 109.985 126.548C110.409 126.359 110.89 126.264 111.427 126.264C112.183 126.264 112.776 126.43 113.207 126.761C113.641 127.093 113.949 127.53 114.131 128.074ZM119.139 134.159C118.45 134.159 117.845 133.995 117.324 133.667C116.807 133.339 116.403 132.88 116.111 132.29C115.823 131.7 115.679 131.01 115.679 130.222C115.679 129.426 115.823 128.732 116.111 128.138C116.403 127.545 116.807 127.085 117.324 126.756C117.845 126.428 118.45 126.264 119.139 126.264C119.828 126.264 120.432 126.428 120.949 126.756C121.469 127.085 121.873 127.545 122.162 128.138C122.453 128.732 122.599 129.426 122.599 130.222C122.599 131.01 122.453 131.7 122.162 132.29C121.873 132.88 121.469 133.339 120.949 133.667C120.432 133.995 119.828 134.159 119.139 134.159ZM119.139 133.105C119.663 133.105 120.094 132.971 120.432 132.702C120.77 132.434 121.02 132.081 121.182 131.643C121.345 131.206 121.426 130.732 121.426 130.222C121.426 129.711 121.345 129.236 121.182 128.795C121.02 128.354 120.77 127.998 120.432 127.726C120.094 127.454 119.663 127.318 119.139 127.318C118.615 127.318 118.184 127.454 117.846 127.726C117.508 127.998 117.258 128.354 117.096 128.795C116.933 129.236 116.852 129.711 116.852 130.222C116.852 130.732 116.933 131.206 117.096 131.643C117.258 132.081 117.508 132.434 117.846 132.702C118.184 132.971 118.615 133.105 119.139 133.105ZM125.564 123.818V134H124.39V123.818H125.564ZM132.525 130.878V126.364H133.698V134H132.525V132.707H132.445C132.267 133.095 131.988 133.425 131.61 133.697C131.232 133.965 130.755 134.099 130.178 134.099C129.701 134.099 129.277 133.995 128.906 133.786C128.535 133.574 128.243 133.256 128.031 132.832C127.819 132.404 127.713 131.866 127.713 131.216V126.364H128.886V131.136C128.886 131.693 129.042 132.137 129.353 132.469C129.668 132.8 130.069 132.966 130.556 132.966C130.848 132.966 131.145 132.891 131.446 132.742C131.751 132.593 132.006 132.364 132.212 132.056C132.421 131.748 132.525 131.355 132.525 130.878ZM139.168 126.364V127.358H135.211V126.364H139.168ZM136.364 124.534H137.538V131.812C137.538 132.144 137.586 132.393 137.682 132.558C137.781 132.721 137.907 132.83 138.06 132.886C138.215 132.939 138.379 132.966 138.552 132.966C138.681 132.966 138.787 132.959 138.87 132.946C138.953 132.929 139.019 132.916 139.069 132.906L139.308 133.96C139.228 133.99 139.117 134.02 138.974 134.05C138.832 134.083 138.651 134.099 138.433 134.099C138.101 134.099 137.776 134.028 137.458 133.886C137.143 133.743 136.881 133.526 136.673 133.234C136.467 132.943 136.364 132.575 136.364 132.131V124.534ZM140.933 134V126.364H142.107V134H140.933ZM141.53 125.091C141.301 125.091 141.104 125.013 140.938 124.857C140.776 124.701 140.695 124.514 140.695 124.295C140.695 124.077 140.776 123.889 140.938 123.734C141.104 123.578 141.301 123.5 141.53 123.5C141.759 123.5 141.954 123.578 142.116 123.734C142.282 123.889 142.365 124.077 142.365 124.295C142.365 124.514 142.282 124.701 142.116 124.857C141.954 125.013 141.759 125.091 141.53 125.091ZM147.358 134.159C146.668 134.159 146.064 133.995 145.543 133.667C145.026 133.339 144.622 132.88 144.33 132.29C144.042 131.7 143.898 131.01 143.898 130.222C143.898 129.426 144.042 128.732 144.33 128.138C144.622 127.545 145.026 127.085 145.543 126.756C146.064 126.428 146.668 126.264 147.358 126.264C148.047 126.264 148.65 126.428 149.167 126.756C149.688 127.085 150.092 127.545 150.381 128.138C150.672 128.732 150.818 129.426 150.818 130.222C150.818 131.01 150.672 131.7 150.381 132.29C150.092 132.88 149.688 133.339 149.167 133.667C148.65 133.995 148.047 134.159 147.358 134.159ZM147.358 133.105C147.881 133.105 148.312 132.971 148.65 132.702C148.988 132.434 149.239 132.081 149.401 131.643C149.564 131.206 149.645 130.732 149.645 130.222C149.645 129.711 149.564 129.236 149.401 128.795C149.239 128.354 148.988 127.998 148.65 127.726C148.312 127.454 147.881 127.318 147.358 127.318C146.834 127.318 146.403 127.454 146.065 127.726C145.727 127.998 145.477 128.354 145.314 128.795C145.152 129.236 145.071 129.711 145.071 130.222C145.071 130.732 145.152 131.206 145.314 131.643C145.477 132.081 145.727 132.434 146.065 132.702C146.403 132.971 146.834 133.105 147.358 133.105ZM153.782 129.406V134H152.609V126.364H153.743V127.557H153.842C154.021 127.169 154.293 126.857 154.657 126.622C155.022 126.384 155.493 126.264 156.069 126.264C156.586 126.264 157.039 126.37 157.426 126.582C157.814 126.791 158.116 127.109 158.331 127.537C158.547 127.961 158.654 128.498 158.654 129.148V134H157.481V129.227C157.481 128.627 157.325 128.16 157.014 127.825C156.702 127.487 156.275 127.318 155.731 127.318C155.357 127.318 155.022 127.399 154.727 127.562C154.435 127.724 154.205 127.961 154.036 128.273C153.867 128.584 153.782 128.962 153.782 129.406ZM166.208 128.074L165.154 128.372C165.087 128.196 164.99 128.026 164.86 127.86C164.734 127.691 164.562 127.552 164.343 127.442C164.124 127.333 163.844 127.278 163.503 127.278C163.036 127.278 162.646 127.386 162.335 127.602C162.026 127.814 161.872 128.084 161.872 128.412C161.872 128.704 161.978 128.934 162.191 129.103C162.403 129.272 162.734 129.413 163.185 129.526L164.318 129.804C165.001 129.97 165.51 130.223 165.845 130.565C166.179 130.903 166.347 131.339 166.347 131.872C166.347 132.31 166.221 132.701 165.969 133.045C165.72 133.39 165.372 133.662 164.925 133.861C164.477 134.06 163.957 134.159 163.364 134.159C162.585 134.159 161.94 133.99 161.43 133.652C160.919 133.314 160.596 132.82 160.46 132.17L161.574 131.892C161.68 132.303 161.881 132.611 162.176 132.817C162.474 133.022 162.863 133.125 163.344 133.125C163.891 133.125 164.325 133.009 164.646 132.777C164.971 132.542 165.134 132.26 165.134 131.932C165.134 131.667 165.041 131.445 164.855 131.266C164.67 131.083 164.385 130.947 164 130.858L162.727 130.56C162.028 130.394 161.514 130.137 161.186 129.789C160.861 129.438 160.699 128.999 160.699 128.472C160.699 128.041 160.82 127.66 161.062 127.328C161.307 126.997 161.64 126.737 162.061 126.548C162.485 126.359 162.966 126.264 163.503 126.264C164.259 126.264 164.852 126.43 165.283 126.761C165.717 127.093 166.025 127.53 166.208 128.074Z" fill="#EBF5FF"/>
<path d="M51.3033 159.652L58.9636 151.991L60.1421 153.17L51.3033 162.009L46 156.705L47.1785 155.527L51.3033 159.652Z" fill="white"/>
<path d="M78.9437 154.364C78.8841 153.86 78.6421 153.469 78.2179 153.19C77.7936 152.912 77.2733 152.773 76.6568 152.773C76.206 152.773 75.8116 152.846 75.4735 152.991C75.1388 153.137 74.877 153.338 74.688 153.593C74.5024 153.848 74.4096 154.138 74.4096 154.463C74.4096 154.735 74.4743 154.969 74.6035 155.164C74.7361 155.356 74.9051 155.517 75.1106 155.646C75.3161 155.772 75.5315 155.877 75.7569 155.96C75.9823 156.039 76.1895 156.104 76.3784 156.153L77.4125 156.432C77.6776 156.501 77.9726 156.598 78.2974 156.72C78.6255 156.843 78.9387 157.01 79.237 157.222C79.5386 157.431 79.7872 157.7 79.9828 158.028C80.1783 158.356 80.2761 158.759 80.2761 159.236C80.2761 159.786 80.1319 160.283 79.8436 160.727C79.5585 161.171 79.1409 161.524 78.5907 161.786C78.0439 162.048 77.3793 162.179 76.5971 162.179C75.868 162.179 75.2366 162.061 74.7029 161.826C74.1726 161.591 73.755 161.263 73.4501 160.842C73.1485 160.421 72.9778 159.932 72.938 159.375H74.2108C74.2439 159.759 74.3732 160.078 74.5985 160.33C74.8272 160.578 75.1156 160.764 75.4636 160.886C75.8149 161.006 76.1928 161.065 76.5971 161.065C77.0678 161.065 77.4904 160.989 77.8649 160.837C78.2394 160.681 78.536 160.465 78.7548 160.19C78.9735 159.912 79.0829 159.587 79.0829 159.216C79.0829 158.878 78.9885 158.603 78.7995 158.391C78.6106 158.179 78.362 158.006 78.0538 157.874C77.7456 157.741 77.4125 157.625 77.0545 157.526L75.8017 157.168C75.0062 156.939 74.3765 156.612 73.9125 156.188C73.4484 155.764 73.2164 155.209 73.2164 154.523C73.2164 153.953 73.3706 153.455 73.6788 153.031C73.9904 152.604 74.408 152.272 74.9316 152.037C75.4586 151.798 76.0469 151.679 76.6966 151.679C77.3528 151.679 77.9361 151.797 78.4466 152.032C78.957 152.264 79.3613 152.582 79.6596 152.987C79.9612 153.391 80.1203 153.85 80.1369 154.364H78.9437ZM82.3033 162V151.818H88.4482V152.912H83.5362V156.352H88.13V157.446H83.5362V160.906H88.5277V162H82.3033ZM99.2614 156.909C99.2614 157.983 99.0675 158.911 98.6797 159.693C98.2919 160.475 97.7599 161.079 97.0838 161.503C96.4077 161.927 95.6354 162.139 94.767 162.139C93.8987 162.139 93.1264 161.927 92.4503 161.503C91.7741 161.079 91.2422 160.475 90.8544 159.693C90.4666 158.911 90.2727 157.983 90.2727 156.909C90.2727 155.835 90.4666 154.907 90.8544 154.125C91.2422 153.343 91.7741 152.74 92.4503 152.315C93.1264 151.891 93.8987 151.679 94.767 151.679C95.6354 151.679 96.4077 151.891 97.0838 152.315C97.7599 152.74 98.2919 153.343 98.6797 154.125C99.0675 154.907 99.2614 155.835 99.2614 156.909ZM98.0682 156.909C98.0682 156.027 97.9207 155.283 97.6257 154.677C97.334 154.07 96.938 153.611 96.4375 153.3C95.9403 152.988 95.3835 152.832 94.767 152.832C94.1506 152.832 93.5921 152.988 93.0916 153.3C92.5945 153.611 92.1984 154.07 91.9034 154.677C91.6117 155.283 91.4659 156.027 91.4659 156.909C91.4659 157.791 91.6117 158.535 91.9034 159.141C92.1984 159.748 92.5945 160.207 93.0916 160.518C93.5921 160.83 94.1506 160.986 94.767 160.986C95.3835 160.986 95.9403 160.83 96.4375 160.518C96.938 160.207 97.334 159.748 97.6257 159.141C97.9207 158.535 98.0682 157.791 98.0682 156.909Z" fill="#EBF5FF"/>
<defs>
<filter id="filter0_d_196_5144" x="0.845703" y="0.736816" width="302.308" height="227.961" filterUnits="userSpaceOnUse" color-interpolation-filters="sRGB">
<feFlood flood-opacity="0" result="BackgroundImageFix"/>
<feColorMatrix in="SourceAlpha" type="matrix" values="0 0 0 0 0 0 0 0 0 0 0 0 0 0 0 0 0 0 127 0" result="hardAlpha"/>
<feOffset dy="8"/>
<feGaussianBlur stdDeviation="15"/>
<feComposite in2="hardAlpha" operator="out"/>
<feColorMatrix type="matrix" values="0 0 0 0 0 0 0 0 0 0 0 0 0 0 0 0 0 0 0.3 0"/>
<feBlend mode="normal" in2="BackgroundImageFix" result="effect1_dropShadow_196_5144"/>
<feBlend mode="normal" in="SourceGraphic" in2="effect1_dropShadow_196_5144" result="shape"/>
</filter>
<filter id="filter1_d_196_5144" x="15" y="5" width="272" height="187.961" filterUnits="userSpaceOnUse" color-interpolation-filters="sRGB">
<feFlood flood-opacity="0" result="BackgroundImageFix"/>
<feColorMatrix in="SourceAlpha" type="matrix" values="0 0 0 0 0 0 0 0 0 0 0 0 0 0 0 0 0 0 127 0" result="hardAlpha"/>
<feOffset dx="-1" dy="2"/>
<feGaussianBlur stdDeviation="5"/>
<feComposite in2="hardAlpha" operator="out"/>
<feColorMatrix type="matrix" values="0 0 0 0 0 0 0 0 0 0 0 0 0 0 0 0 0 0 0.32 0"/>
<feBlend mode="normal" in2="BackgroundImageFix" result="effect1_dropShadow_196_5144"/>
<feBlend mode="normal" in="SourceGraphic" in2="effect1_dropShadow_196_5144" result="shape"/>
</filter>
</defs>
</svg>
