<svg width="40" height="40" viewBox="0 0 40 40" fill="none" xmlns="http://www.w3.org/2000/svg">
<circle cx="20" cy="20" r="20" fill="black"/>
<path fill-rule="evenodd" clip-rule="evenodd" d="M18.8877 9.9999C18.8877 9.38626 19.3852 8.88879 19.9988 8.88879C26.1353 8.88879 31.1099 13.8634 31.1099 19.9999C31.1099 26.1364 26.1353 31.111 19.9988 31.111C13.8623 31.111 8.8877 26.1364 8.8877 19.9999C8.8877 19.3863 9.38516 18.8888 9.99881 18.8888C10.6125 18.8888 11.1099 19.3863 11.1099 19.9999C11.1099 24.9091 15.0896 28.8888 19.9988 28.8888C24.908 28.8888 28.8877 24.9091 28.8877 19.9999C28.8877 15.0907 24.908 11.111 19.9988 11.111C19.3852 11.111 18.8877 10.6136 18.8877 9.9999Z" fill="#FFDD18"/>
<path fill-rule="evenodd" clip-rule="evenodd" d="M21.166 14.9166C22.3166 14.9166 23.2493 15.8494 23.2493 17V21.1666C23.2493 22.3172 22.3166 23.25 21.166 23.25H16.9993C15.8488 23.25 14.916 22.3172 14.916 21.1666C14.916 20.7831 15.2269 20.4722 15.6105 20.4722C15.994 20.4722 16.3049 20.7831 16.3049 21.1666C16.3049 21.5502 16.6158 21.8611 16.9993 21.8611H21.166C21.5495 21.8611 21.8605 21.5502 21.8605 21.1666V17C21.8605 16.6164 21.5495 16.3055 21.166 16.3055C20.7825 16.3055 20.4716 15.9946 20.4716 15.6111C20.4716 15.2275 20.7825 14.9166 21.166 14.9166Z" fill="#FFDD18"/>
<path fill-rule="evenodd" clip-rule="evenodd" d="M14.9157 12.1388C13.3816 12.1388 12.1379 13.3825 12.1379 14.9166C12.1379 16.4507 13.3816 17.6944 14.9157 17.6944C16.4498 17.6944 17.6935 16.4507 17.6935 14.9166C17.6935 13.3825 16.4498 12.1388 14.9157 12.1388ZM10.749 14.9166C10.749 12.6154 12.6145 10.7499 14.9157 10.7499C17.2169 10.7499 19.0824 12.6154 19.0824 14.9166C19.0824 17.2178 17.2169 19.0833 14.9157 19.0833C12.6145 19.0833 10.749 17.2178 10.749 14.9166Z" fill="#FFDD18"/>
</svg>
