<svg width="40" height="40" viewBox="0 0 40 40" fill="none" xmlns="http://www.w3.org/2000/svg">
<circle cx="20" cy="20" r="20" fill="black"/>
<path fill-rule="evenodd" clip-rule="evenodd" d="M19.1617 9.50016C19.1676 8.88654 19.6698 8.39389 20.2834 8.39979C26.4197 8.45886 31.3462 13.4811 31.2871 19.6173C31.228 25.7536 26.2058 30.6801 20.0696 30.621C13.9333 30.5619 9.00684 25.5397 9.0659 19.4034C9.07181 18.7898 9.57404 18.2972 10.1877 18.3031C10.8013 18.309 11.2939 18.8112 11.288 19.4248C11.2408 24.3338 15.182 28.3516 20.0909 28.3989C24.9999 28.4461 29.0177 24.5049 29.065 19.596C29.1122 14.687 25.171 10.6692 20.2621 10.6219C19.6484 10.616 19.1558 10.1138 19.1617 9.50016Z" fill="#FFDD18"/>
<path d="M17.2256 21.3055L15.4008 19.4807C15.358 19.438 15.334 19.3799 15.334 19.3195C15.334 19.259 15.358 19.201 15.4008 19.1582L17.2256 17.3334L17.5481 17.6559L15.8846 19.3195L17.5481 20.983L17.2256 21.3055Z" fill="#FFDD18" stroke="#FFDD18" stroke-width="0.533333"/>
<path d="M22.3235 21.3055L22.001 20.983L23.6645 19.3195L22.001 17.6559L22.3235 17.3334L24.1483 19.1582C24.1911 19.201 24.2151 19.259 24.2151 19.3195C24.2151 19.3799 24.1911 19.438 24.1483 19.4807L22.3235 21.3055Z" fill="#FFDD18" stroke="#FFDD18" stroke-width="0.533333"/>
<path d="M20.3484 17.3334L18.752 21.6673L19.18 21.825L20.7765 17.4911L20.3484 17.3334Z" fill="#FFDD18" stroke="#FFDD18" stroke-width="0.533333"/>
</svg>
