<svg width="103" height="28" viewBox="0 0 103 28" fill="none" xmlns="http://www.w3.org/2000/svg">
<g clip-path="url(#clip0_72_1556)">
<path d="M24.9619 0.0231934V21.599L27.7329 21.6095V11.3399H34.4277V8.62177H27.7329V2.74132H36.4478V0.0231934H24.9619ZM41.4504 4.40181C42.4552 4.40181 43.259 3.58743 43.259 2.59325C43.259 1.59907 42.4446 0.784691 41.4504 0.784691C40.4457 0.784691 39.6419 1.59907 39.6419 2.59325C39.6419 3.58743 40.4563 4.40181 41.4504 4.40181ZM40.0438 7.11993V21.599H42.8148V7.11993H40.0438Z" fill="white"/>
<path fill-rule="evenodd" clip-rule="evenodd" d="M53.1059 6.69702C49.4148 6.69702 46.8447 9.81705 46.8447 13.5188C46.8447 17.2205 49.4148 20.3405 53.1059 20.3405C54.7981 20.3405 56.1836 19.6848 57.199 18.6272V20.5415C57.199 22.9423 55.3164 24.9412 52.8521 24.9412C51.9637 24.9412 51.0858 24.6028 50.3878 24.1163L48.9917 26.5277C50.1022 27.2469 51.4243 27.6594 52.8415 27.6594C56.7759 27.6594 59.9594 24.4759 59.9594 20.5415V7.12008H57.199V8.41039C56.1836 7.35276 54.7981 6.69702 53.1059 6.69702ZM49.6263 13.5188C49.6263 11.2237 51.382 9.41515 53.4126 9.41515C55.4433 9.41515 57.199 11.2237 57.199 13.5188C57.199 15.8138 55.4433 17.6224 53.4126 17.6224C51.382 17.6224 49.6263 15.8138 49.6263 13.5188Z" fill="white"/>
<path d="M69.9754 9.41515C68.336 9.41515 67.0034 10.8112 67.0034 12.4506V21.5991H64.2324V7.12008H67.0034V8.44212C67.8178 7.39506 69.0129 6.69702 70.5782 6.69702C72.5243 6.69702 74.0155 7.65947 74.8828 9.14016C75.8453 7.71235 77.4105 6.69702 79.3037 6.69702C82.466 6.69702 84.4332 9.24592 84.4438 12.3977V21.5991H81.6728V12.44C81.6728 10.8006 80.3402 9.40457 78.7009 9.40457C77.0615 9.40457 75.7289 10.8006 75.7289 12.44V21.5991H72.9579V12.44C72.9473 10.8006 71.6147 9.41515 69.9754 9.41515Z" fill="white"/>
<path fill-rule="evenodd" clip-rule="evenodd" d="M99.2296 8.75941C97.9922 7.47967 96.2999 6.69702 94.3433 6.69702C90.2185 6.69702 87.2783 10.1978 87.2783 14.3649C87.2783 18.532 90.208 22.0327 94.3433 22.0327C96.2999 22.0327 97.9922 21.2395 99.2296 19.9704V21.5991H102.001V7.12008H99.2296V8.75941ZM90.0599 14.3649C90.0599 11.6045 92.1752 9.41515 94.65 9.41515C97.1143 9.41515 99.2402 11.5939 99.2402 14.3649C99.2402 17.1253 97.1249 19.3146 94.65 19.3146C92.1752 19.304 90.0599 17.1253 90.0599 14.3649Z" fill="white"/>
<path d="M9.72266 14.0052C9.72266 11.4352 11.8062 9.34106 14.3868 9.34106C16.9569 9.34106 19.051 11.4246 19.051 14.0052C19.051 16.5753 16.9675 18.6694 14.3868 18.6694C11.8168 18.6694 9.72266 16.5753 9.72266 14.0052Z" fill="white"/>
<path d="M0.404297 23.323C0.404297 20.7529 2.48784 18.6588 5.06847 18.6588H9.73263V23.323C9.73263 25.893 7.64909 27.9872 5.06847 27.9872C2.48784 27.9872 0.404297 25.9036 0.404297 23.323Z" fill="white"/>
<path d="M9.72266 0.0232717V9.34104H14.3868C16.9569 9.34104 19.051 7.2575 19.051 4.67687C19.051 2.10681 16.9675 0.0126953 14.3868 0.0126953H9.72266V0.0232717Z" fill="white"/>
<path d="M0.404297 4.68737C0.404297 7.25742 2.48784 9.35154 5.06847 9.35154H9.73263V0.0231934H5.06847C2.48784 0.0231934 0.404297 2.10674 0.404297 4.68737Z" fill="white"/>
<path d="M0.404297 14.0054C0.404297 16.5754 2.48784 18.6695 5.06847 18.6695H9.73263V9.34119H5.06847C2.48784 9.34119 0.404297 11.4353 0.404297 14.0054Z" fill="white"/>
</g>
<defs>
<clipPath id="clip0_72_1556">
<rect width="101.596" height="28" fill="white" transform="translate(0.405273)"/>
</clipPath>
</defs>
</svg>
