<svg width="100" height="60" viewBox="0 0 100 60" fill="none" xmlns="http://www.w3.org/2000/svg">
<path d="M23.455 15.6564H42.2034V17.1466H25.1736V28.362H41.188V29.852H25.1736V42.1655H42.3987V43.6555H23.455V15.6564ZM43.8832 15.6564H45.8751L54.7024 27.9698L63.7251 15.6562L75.9973 0.015625L55.8351 29.264L66.2249 43.6555H64.1547L54.7024 30.558L45.211 43.6555H43.18L53.6478 29.2638L43.8832 15.6564ZM66.9669 17.1466V15.6562H88.3325V17.1464H78.4894V43.6554H76.7708V17.1466H66.9669ZM0 15.6562H2.14824L31.7713 59.9845L19.5297 43.6554L1.79664 17.7739L1.71859 43.6557H0L0 15.6562ZM88.1593 41.7154C87.8081 41.7154 87.5448 41.4436 87.5448 41.0918C87.5448 40.7404 87.8081 40.4682 88.1593 40.4682C88.5146 40.4682 88.7738 40.7402 88.7738 41.0918C88.7738 41.4434 88.5146 41.7154 88.1593 41.7154ZM89.848 40.0749H90.7677C90.7801 40.5729 91.1438 40.9078 91.6788 40.9078C92.2766 40.9078 92.6152 40.5478 92.6152 39.8739V35.6046H93.5516V39.878C93.5516 41.0918 92.8493 41.791 91.6872 41.791C90.5961 41.791 89.848 41.1128 89.848 40.0747V40.0749ZM94.7762 40.0205H95.7043C95.7837 40.5938 96.3438 40.9579 97.1507 40.9579C97.903 40.9579 98.4548 40.5686 98.4548 40.0329C98.4548 39.5726 98.1035 39.2964 97.3052 39.108L96.5277 38.9197C95.4365 38.6642 94.9393 38.1369 94.9393 37.2496C94.9393 36.1741 95.8171 35.4582 97.1338 35.4582C98.3585 35.4582 99.2531 36.1739 99.3075 37.191H98.3961C98.3084 36.6344 97.8234 36.2869 97.1212 36.2869C96.3815 36.2869 95.8883 36.6427 95.8883 37.1867C95.8883 37.6177 96.2058 37.8649 96.9917 38.049L97.6562 38.2122C98.8935 38.5011 99.4036 39.0034 99.4036 39.9116C99.4036 41.0668 98.5091 41.791 97.0796 41.791C95.7419 41.791 94.843 41.1002 94.7762 40.0203V40.0205Z" fill="white"/>
</svg>
