<svg width="45" height="40" viewBox="0 0 45 40" fill="none" xmlns="http://www.w3.org/2000/svg">
<path d="M44.9165 20.0046C44.9165 17.0291 41.1902 14.2092 35.4772 12.4605C36.7956 6.63767 36.2097 2.00504 33.6278 0.521858C33.0327 0.173953 32.3369 0.00915527 31.577 0.00915527V2.05081C31.9982 2.05081 32.3369 2.13321 32.6207 2.28885C33.8659 3.00298 34.4061 5.72213 33.9849 9.2195C33.8842 10.0801 33.7194 10.9865 33.518 11.9112C31.7235 11.4717 29.7643 11.133 27.7043 10.9133C26.4683 9.2195 25.1865 7.68139 23.8956 6.33555C26.8803 3.56146 29.6819 2.04166 31.5862 2.04166V0C29.0684 0 25.7725 1.79446 22.4399 4.9073C19.1074 1.81277 15.8114 0.0366218 13.2937 0.0366218V2.07828C15.1888 2.07828 17.9995 3.58892 20.9842 6.3447C19.7025 7.69055 18.4207 9.2195 17.203 10.9133C15.1339 11.133 13.1746 11.4717 11.3802 11.9203C11.1696 11.0048 11.014 10.1167 10.9041 9.26528C10.4738 5.76791 11.0048 3.04875 12.2408 2.32547C12.5155 2.16068 12.8725 2.08743 13.2937 2.08743V0.0457771C12.5246 0.0457771 11.8288 0.210574 11.2245 0.55848C8.65187 2.04166 8.07508 6.66514 9.40261 12.4697C3.70794 14.2275 0 17.0382 0 20.0046C0 22.9801 3.72625 25.8 9.43923 27.5486C8.12085 33.3715 8.7068 38.0041 11.2886 39.4873C11.8837 39.8352 12.5795 40 13.3486 40C15.8663 40 19.1623 38.2055 22.4949 35.0927C25.8274 38.1872 29.1234 39.9634 31.6411 39.9634C32.4102 39.9634 33.106 39.7986 33.7102 39.4507C36.2829 37.9675 36.8597 33.344 35.5322 27.5395C41.2085 25.7908 44.9165 22.9709 44.9165 20.0046ZM32.9961 13.8979C32.6574 15.079 32.2362 16.2966 31.7601 17.5143C31.3848 16.7819 30.9911 16.0494 30.5608 15.317C30.1396 14.5846 29.691 13.8704 29.2424 13.1746C30.5425 13.3669 31.7968 13.6049 32.9961 13.8979ZM28.8029 23.6484C28.0888 24.8844 27.3564 26.0563 26.5965 27.1458C25.2323 27.2648 23.8499 27.3289 22.4582 27.3289C21.0758 27.3289 19.6933 27.2648 18.3383 27.155C17.5784 26.0655 16.8368 24.9027 16.1227 23.6759C15.4269 22.4765 14.7952 21.2589 14.2184 20.032C14.786 18.8052 15.4269 17.5784 16.1135 16.379C16.8277 15.1431 17.5601 13.9712 18.32 12.8817C19.6841 12.7626 21.0666 12.6986 22.4582 12.6986C23.8407 12.6986 25.2232 12.7626 26.5782 12.8725C27.3381 13.962 28.0797 15.1247 28.7938 16.3516C29.4896 17.5509 30.1213 18.7686 30.6981 19.9954C30.1213 21.2222 29.4896 22.4491 28.8029 23.6484ZM31.7601 22.4582C32.2545 23.6851 32.6757 24.9119 33.0236 26.1021C31.8242 26.3951 30.5608 26.6423 29.2516 26.8345C29.7002 26.1295 30.1488 25.4063 30.5699 24.6647C30.9911 23.9322 31.3848 23.1907 31.7601 22.4582ZM22.4765 32.2271C21.6251 31.3481 20.7736 30.3685 19.9313 29.2973C20.7553 29.3339 21.5976 29.3614 22.4491 29.3614C23.3097 29.3614 24.1611 29.3431 24.9943 29.2973C24.1703 30.3685 23.3188 31.3481 22.4765 32.2271ZM15.6649 26.8345C14.3648 26.6423 13.1106 26.4042 11.9112 26.1112C12.2499 24.9302 12.6711 23.7125 13.1472 22.4949C13.5225 23.2273 13.9162 23.9597 14.3465 24.6921C14.7768 25.4246 15.2163 26.1387 15.6649 26.8345ZM22.4308 7.7821C23.2822 8.66102 24.1337 9.64065 24.976 10.7118C24.152 10.6752 23.3097 10.6477 22.4582 10.6477C21.5976 10.6477 20.7462 10.6661 19.913 10.7118C20.737 9.64065 21.5885 8.66102 22.4308 7.7821ZM15.6558 13.1746C15.2071 13.8796 14.7585 14.6029 14.3374 15.3445C13.9162 16.0769 13.5225 16.8093 13.1472 17.5418C12.6528 16.3149 12.2316 15.0881 11.8837 13.8979C13.0831 13.6141 14.3465 13.3669 15.6558 13.1746ZM7.37011 24.6372C4.12909 23.2547 2.0325 21.442 2.0325 20.0046C2.0325 18.5672 4.12909 16.7452 7.37011 15.3719C8.15748 15.0332 9.01808 14.7311 9.90616 14.4472C10.428 16.2417 11.1147 18.1094 11.9661 20.0229C11.1238 21.9272 10.4463 23.7858 9.93363 25.5711C9.02724 25.2872 8.16663 24.976 7.37011 24.6372ZM12.2957 37.7203C11.0506 37.0062 10.5104 34.287 10.9316 30.7897C11.0323 29.929 11.1971 29.0227 11.3985 28.098C13.193 28.5374 15.1522 28.8762 17.2122 29.0959C18.4482 30.7897 19.7299 32.3278 21.0208 33.6736C18.0362 36.4477 15.2346 37.9675 13.3303 37.9675C12.9183 37.9583 12.5704 37.8759 12.2957 37.7203ZM34.0124 30.7439C34.4427 34.2412 33.9117 36.9604 32.6757 37.6837C32.401 37.8485 32.044 37.9217 31.6228 37.9217C29.7276 37.9217 26.9169 36.4111 23.9323 33.6553C25.214 32.3095 26.4958 30.7805 27.7134 29.0867C29.7826 28.867 31.7418 28.5283 33.5363 28.0797C33.7469 29.0043 33.9117 29.8924 34.0124 30.7439ZM37.5372 24.6372C36.7498 24.976 35.8892 25.2781 35.0012 25.5619C34.4793 23.7675 33.7926 21.8997 32.9412 19.9863C33.7835 18.0819 34.461 16.2234 34.9737 14.4381C35.8801 14.7219 36.7407 15.0332 37.5464 15.3719C40.7874 16.7544 42.884 18.5672 42.884 20.0046C42.8748 21.442 40.7782 23.2639 37.5372 24.6372Z" fill="white"/>
<path d="M22.4487 24.1886C24.7594 24.1886 26.6327 22.3154 26.6327 20.0046C26.6327 17.6938 24.7594 15.8206 22.4487 15.8206C20.1379 15.8206 18.2646 17.6938 18.2646 20.0046C18.2646 22.3154 20.1379 24.1886 22.4487 24.1886Z" fill="white"/>
</svg>
