<svg width="129" height="32" viewBox="0 0 129 32" fill="none" xmlns="http://www.w3.org/2000/svg">
<path fill-rule="evenodd" clip-rule="evenodd" d="M26.1075 24.421C26.3901 28.0798 26.3901 29.7949 26.3901 31.6671H17.9894C17.9894 31.2592 17.9967 30.8862 18.0039 30.5079C18.0266 29.332 18.0503 28.1058 17.8613 25.6294C17.6115 22.0041 16.0622 21.1985 13.2135 21.1985H10.6897H0.000976562V14.6023H13.6134C17.2116 14.6023 19.0107 13.4992 19.0107 10.5788C19.0107 8.01084 17.2116 6.45454 13.6134 6.45454H0.000976562V0H15.1125C23.2588 0 27.3069 3.87716 27.3069 10.0705C27.3069 14.703 24.4583 17.724 20.61 18.2276C23.8585 18.8822 25.7575 20.7453 26.1075 24.421Z" fill="white"/>
<path d="M0 31.6671V26.7498H8.88258C10.3663 26.7498 10.6883 27.8587 10.6883 28.5199V31.6671H0Z" fill="white"/>
<path d="M127.472 9.55249H119.146L115.357 14.8772L111.667 9.55249H102.743L110.77 20.5534L102.045 31.9561H110.371L114.808 25.878L119.246 31.9561H128.17L119.395 20.2018L127.472 9.55249Z" fill="white"/>
<path d="M75.0298 13.2654C74.0824 10.6533 72.0383 8.84497 68.0996 8.84497C64.7592 8.84497 62.3661 10.3521 61.1695 12.8133V9.44781H53.0928V31.8512H61.1695V20.8505C61.1695 17.485 62.1168 15.2747 64.7592 15.2747C67.2022 15.2747 67.8006 16.8821 67.8006 19.9464V31.8512H75.8773V20.8505C75.8773 17.485 76.7746 15.2747 79.4669 15.2747C81.91 15.2747 82.4584 16.8821 82.4584 19.9464V31.8512H90.5352V17.7864C90.5352 13.1147 88.7404 8.84497 82.6079 8.84497C78.8688 8.84497 76.2264 10.7538 75.0298 13.2654Z" fill="white"/>
<path d="M44.6807 23.1569C43.9328 24.915 42.5369 25.6683 40.3432 25.6683C37.9002 25.6683 35.9058 24.3624 35.7064 21.5995H51.3116V19.3392C51.3116 13.2611 47.373 8.13733 39.9442 8.13733C33.0141 8.13733 27.8291 13.2109 27.8291 20.2935C27.8291 27.4264 32.9145 31.7464 40.044 31.7464C45.9272 31.7464 50.0154 28.8833 51.1621 23.7595L44.6807 23.1569ZM35.8062 17.6814C36.1052 15.5717 37.2521 13.9643 39.8446 13.9643C42.2377 13.9643 43.5339 15.6721 43.6337 17.6814H35.8062Z" fill="white"/>
<path d="M93.1749 9.5966V32H101.252V9.5966H93.1749ZM93.125 7.48683H101.302V0.35376H93.125V7.48683Z" fill="white"/>
</svg>
