<svg width="201" height="26" viewBox="0 0 201 26" fill="none" xmlns="http://www.w3.org/2000/svg">
<g clip-path="url(#clip0_72_1553)">
<path d="M62.4623 11.0631H58.8632V17.9994C58.8632 19.8489 60.0837 19.8189 62.4623 19.7041V22.5071C57.6452 23.0861 55.7283 21.7558 55.7283 17.9994V11.0631H53.0576V8.05552H55.7283V4.17432L58.8632 3.25082V8.05552H62.4623V11.0631ZM76.1851 8.05552H79.32V22.5071H76.1851V20.4254C75.0819 21.958 73.3671 22.884 71.1033 22.884C67.1572 22.884 63.8776 19.5594 63.8776 15.2813C63.8776 10.9758 67.1572 7.68113 71.1033 7.68113C73.3671 7.68113 75.0819 8.60463 76.1851 10.1072V8.05552ZM71.5975 19.9063C74.2108 19.9063 76.1851 17.9694 76.1851 15.2813C76.1851 12.5932 74.2108 10.6563 71.5975 10.6563C68.9843 10.6563 67.0125 12.5932 67.0125 15.2813C67.0125 17.9694 68.9843 19.9063 71.5975 19.9063ZM84.544 5.88904C83.4408 5.88904 82.5398 4.96304 82.5398 3.89478C82.5423 3.6327 82.5947 3.37312 82.6945 3.13102C82.7954 2.88894 82.943 2.66911 83.1288 2.4841C83.3147 2.29909 83.5352 2.15252 83.7777 2.05277C84.0199 1.95293 84.2819 1.90052 84.544 1.90052C84.8061 1.90052 85.0657 1.95293 85.3103 2.05277C85.5524 2.15261 85.772 2.29987 85.9592 2.48457C86.1439 2.67176 86.2912 2.89141 86.3935 3.13102C86.4933 3.37312 86.5458 3.6327 86.5458 3.89478C86.5458 4.96304 85.6472 5.88904 84.544 5.88904ZM82.9766 22.5071V8.05552H86.1115V22.5071H82.9766ZM89.7406 22.5071V1.40881H92.8755V22.5071H89.7406ZM113.222 8.05552H116.532L111.974 22.5071H108.897L105.879 12.7679L102.832 22.5071H99.7543L95.1967 8.05552H98.5063L101.322 18.0268L104.369 8.05552H107.359L110.377 18.0268L113.222 8.05552ZM120.421 5.88904C119.318 5.88904 118.419 4.96304 118.419 3.89478C118.419 3.6327 118.471 3.37312 118.571 3.13102C118.674 2.89141 118.821 2.67176 119.006 2.48457C119.193 2.29987 119.412 2.15261 119.655 2.05277C119.899 1.95293 120.159 1.90052 120.421 1.90052C120.951 1.90064 121.46 2.11061 121.836 2.48457C122.023 2.67176 122.17 2.89141 122.27 3.13102C122.373 3.37312 122.425 3.6327 122.425 3.89478C122.425 4.96304 121.524 5.88904 120.421 5.88904ZM118.853 22.5071V8.05552H121.988V22.5071H118.853ZM138.826 13.634V22.5071H135.691V13.9535C135.691 11.7545 134.413 10.5989 132.439 10.5989C130.377 10.5989 128.752 11.8144 128.752 14.7621V22.5071H125.617V8.05552H128.752V9.90502C129.711 8.40246 131.278 7.68113 133.252 7.68113C136.502 7.68113 138.826 9.87757 138.826 13.634ZM153.687 2.27491H156.822V22.5071H153.687V20.4254C152.584 21.958 150.871 22.884 148.608 22.884C144.659 22.884 141.379 19.5594 141.379 15.2813C141.379 10.9758 144.659 7.68113 148.608 7.68113C150.871 7.68113 152.584 8.60463 153.687 10.1072V2.27491ZM149.102 19.9063C151.712 19.9063 153.687 17.9694 153.687 15.2813C153.687 12.5932 151.712 10.6563 149.102 10.6563C146.488 10.6563 144.514 12.5932 144.514 15.2813C144.514 17.9694 146.488 19.9063 149.102 19.9063ZM159.667 15.2813C159.667 10.9758 162.947 7.68113 167.33 7.68113C170.175 7.68113 172.641 9.15374 173.802 11.4101L171.103 12.97C170.465 11.6123 169.042 10.7437 167.3 10.7437C164.746 10.7437 162.802 12.6805 162.802 15.2813C162.802 17.8821 164.746 19.8189 167.3 19.8189C169.042 19.8189 170.465 18.9229 171.161 17.595L173.862 19.1251C172.641 21.4088 170.175 22.884 167.33 22.884C162.947 22.884 159.667 19.5594 159.667 15.2813ZM186.835 18.4312C186.835 21.3215 184.31 22.884 181.175 22.884C178.272 22.884 176.183 21.5811 175.254 19.5019L177.952 17.9395C178.419 19.2424 179.58 20.0211 181.175 20.0211C182.57 20.0211 183.643 19.5594 183.643 18.4037C183.643 15.8304 175.836 17.2756 175.836 12.1015C175.836 9.38586 178.187 7.68113 181.147 7.68113C183.526 7.68113 185.5 8.77935 186.516 10.6863L183.875 12.1614C183.354 11.0332 182.338 10.514 181.147 10.514C180.014 10.514 179.028 11.0032 179.028 12.044C179.028 14.6748 186.835 13.0849 186.835 18.4312ZM200.219 18.4312C200.219 21.3215 197.693 22.884 194.558 22.884C191.655 22.884 189.564 21.5811 188.635 19.5019L191.336 17.9395C191.8 19.2424 192.961 20.0211 194.558 20.0211C195.951 20.0211 197.024 19.5594 197.024 18.4037C197.024 15.8304 189.217 17.2756 189.217 12.1015C189.217 9.38586 191.568 7.68113 194.528 7.68113C196.909 7.68113 198.883 8.77935 199.899 10.6863L197.256 12.1614C196.734 11.0332 195.719 10.514 194.528 10.514C193.397 10.514 192.409 11.0032 192.409 12.044C192.409 14.6748 200.219 13.0849 200.219 18.4312Z" fill="white"/>
<path d="M21.2168 0.680054C15.7182 0.680054 12.2788 3.41811 10.9035 8.89422C12.9677 6.15616 15.3738 5.12783 18.1243 5.81172C19.6918 6.20359 20.8124 7.33675 22.0554 8.59221C24.0771 10.6339 26.4183 13.0001 31.53 13.0001C37.0286 13.0001 40.4655 10.262 41.8408 4.78589C39.7792 7.52394 37.3731 8.54978 34.6225 7.86589C33.0551 7.47652 31.9319 6.34086 30.6914 5.0879C28.6697 3.04372 26.3285 0.680054 21.2168 0.680054ZM10.9035 13.0001C5.40496 13.0001 1.96804 15.7381 0.592773 21.2142C2.65443 18.4762 5.06052 17.4503 7.81106 18.1342C9.38101 18.5236 10.5017 19.6592 11.7422 20.9122C13.7639 22.9564 16.1051 25.3201 21.2168 25.3201C26.7179 25.3201 30.1548 22.582 31.53 17.1059C29.4659 19.8439 27.0598 20.8723 24.3118 20.1884C22.7418 19.7965 21.6211 18.6634 20.3782 17.4079C18.3564 15.3662 16.0152 13.0001 10.9035 13.0001Z" fill="white"/>
</g>
<defs>
<clipPath id="clip0_72_1553">
<rect width="200" height="24.64" fill="white" transform="translate(0.405273 0.680054)"/>
</clipPath>
</defs>
</svg>
